{
.appVersion = "1349";
copyright = "Copyright 2011 The Maven Pro Project Authors (http://www.vissol.co.uk/mavenpro/), with Reserved Font Name \"Maven Pro\".";
customParameters = (
{
name = licenseURL;
value = "http://scripts.sil.org/OFL";
},
{
name = trademark;
value = "Maven Pro is a trademark of Vissol Ltd. www.vissol.co.uk";
},
{
name = license;
value = "This Font Software is licensed under the SIL Open Font License, Version 1.1. This license is available with a FAQ at: http://scripts.sil.org/OFL";
},
{
name = fsType;
value = (
);
},
{
name = "Use Typo Metrics";
value = 1;
},
{
name = Axes;
value = (
{
Name = Weight;
Tag = wght;
}
);
}
);
date = "2016-08-05 10:04:49 +0000";
designer = "Joe Prince";
designerURL = "http://www.admixdesigns.com/";
familyName = "Maven Pro";
featurePrefixes = (
{
automatic = 1;
code = "languagesystem DFLT dflt;\012languagesystem latn dflt;\012languagesystem latn ROM;\012languagesystem latn CRT;\012languagesystem latn MOL;\012languagesystem latn TAT;\012languagesystem latn KAZ;\012languagesystem latn CAT;\012languagesystem latn AZE;\012languagesystem latn TRK;\012";
name = Languagesystems;
}
);
features = (
{
automatic = 1;
code = "feature ccmp;\012feature locl;\012feature numr;\012feature dnom;\012feature frac;\012feature ordn;\012feature case;\012feature zero;\012";
name = aalt;
},
{
automatic = 1;
code = "lookup ccmp_latn_1 {\012	script latn;\012	lookupflag 0;\012	sub brevecomb acutecomb by brevecomb_acutecomb;\012	sub brevecomb gravecomb by brevecomb_gravecomb;\012	sub brevecomb tildecomb by brevecomb_tildecomb;\012	sub circumflexcomb acutecomb by circumflexcomb_acutecomb;\012	sub circumflexcomb gravecomb by circumflexcomb_gravecomb;\012	sub circumflexcomb tildecomb by circumflexcomb_tildecomb;\012} ccmp_latn_1;\012";
name = ccmp;
},
{
automatic = 1;

glyphs = (
{
glyphname = A;
lastChange = "2016-09-02 16:33:00 +0000";
layers = (
{
anchors = (
{
name = bottom;
position = "{323, 0}";
},
{
name = ogonek;
position = "{643, 10}";
},
{
name = top;
position = "{323, 667}";
}
);
layerId = UUID0;
paths = (
{
closed = 1;
nodes = (
"98 0 LINE",
"330 602 LINE",
"315 600 LINE",
"546 0 LINE",
"623 0 LINE",
"358 667 LINE",
"286 667 LINE",
"20 0 LINE"
);
},
{
closed = 1;
nodes = (
"500 208 LINE",
"495 277 LINE",
"168 277 LINE",
"137 208 LINE"
);
}
);
width = 643;
},
{
anchors = (
{
name = bottom;
position = "{356, 0}";
},
{
name = ogonek;
position = "{716, 10}";
},
{
name = top;
position = "{356, 667}";
}
);
layerId = "ECACF70C-BE42-4FA5-B3A0-AFDA71FB1D31";
paths = (
{
closed = 1;
nodes = (
"195 0 LINE",
"398 651 LINE",
"292 642 LINE",
"497 0 LINE",
"702 0 LINE",
"478 667 LINE",
"256 667 LINE",
"10 0 LINE"
);
},
{
closed = 1;
nodes = (
"509 117 LINE",
"490 257 LINE",
"197 257 LINE",
"163 117 LINE"
);
}
);
width = 712;
}
);
leftKerningGroup = A;
rightKerningGroup = A;
unicode = 0041;
},
{
glyphname = AE;
lastChange = "2016-09-02 17:50:54 +0000";
layers = (
{
anchors = (
{
name = bottom;
position = "{479, 0}";
},
{
name = top;
position = "{676, 667}";
}
);
layerId = UUID0;
paths = (
{
closed = 1;
nodes = (
"473 0 LINE",
"882 0 LINE",
"882 69 LINE",
"545 69 LINE",
"545 298 LINE",
"841 298 LINE",
"841 368 LINE",
"545 368 LINE",
"545 598 LINE",
"882 598 LINE",
"882 667 LINE",
"476 667 LINE",
"20 0 LINE",
"103 0 LINE",
"544 651 LINE",
"473 651 LINE"
);
},
{
closed = 1;
nodes = (
"497 281 LINE",
"229 281 LINE",
"171 209 LINE",
"493 209 LINE"
);
}
);
width = 957;
},
{
anchors = (
{
name = bottom;
position = "{527, 0}";
},
{
name = top;
position = "{743, 667}";
}
);
background = {
paths = (
{
closed = 1;
nodes = (
"1007 0 LINE",
"1007 150 LINE",
"734 150 LINE",
"734 259 LINE",
"968 259 LINE",
"968 409 LINE",
"735 409 LINE",
"735 517 LINE",
"1007 517 LINE",
"1007 667 LINE",
"534 667 LINE",
"534 0 LINE"
);
}
);
};
layerId = "ECACF70C-BE42-4FA5-B3A0-AFDA71FB1D31";
paths = (
{
closed = 1;
nodes = (
"534 0 LINE",
"999 0 LINE",
"999 151 LINE",
"734 151 LINE",
"734 263 LINE",
"960 263 LINE",
"960 414 LINE",
"734 414 LINE",
"734 517 LINE",
"999 517 LINE",
"999 667 LINE",
"479 667 LINE",
"10 0 LINE",
"233 0 LINE",
"608 592 LINE",
"534 608 LINE"
);
},
{
closed = 1;
nodes = (
"631 256 LINE",
"254 256 LINE",
"205 120 LINE",
"616 120 LINE"
);
}
);
width = 1059;
}
);
leftMetricsKey = A;
rightMetricsKey = E;
unicode = 00C6;
},
{
glyphname = B;
lastChange = "2016-08-15 13:46:18 +0000";
layers = (
{
background = {
paths = (
{
closed = 1;
nodes = (
"326 0 LINE SMOOTH",
"476 0 OFFCURVE",
"568 56 OFFCURVE",
"568 189 CURVE SMOOTH",
"568 322 OFFCURVE",
"457 355 OFFCURVE",
"457 355 CURVE SMOOTH",
"457 355 OFFCURVE",
"528 391 OFFCURVE",
"528 488 CURVE SMOOTH",
"528 585 OFFCURVE",
"479 667 OFFCURVE",
"306 667 CURVE SMOOTH",
"85 667 LINE",
"85 0 LINE"
);
},
{
closed = 1;
nodes = (
"157 310 LINE",
"329 310 LINE SMOOTH",
"407 310 OFFCURVE",
"496 300 OFFCURVE",
"496 193 CURVE SMOOTH",
"496 86 OFFCURVE",
"418 67 OFFCURVE",
"332 67 CURVE SMOOTH",
"157 67 LINE"
);
},
{
closed = 1;
nodes = (
"157 598 LINE",
"313 598 LINE SMOOTH",
"402 598 OFFCURVE",
"456 574 OFFCURVE",
"456 483 CURVE SMOOTH",
"456 389 OFFCURVE",
"387 378 OFFCURVE",
"322 378 CURVE SMOOTH",
"157 378 LINE"
);
}
);
};
layerId = UUID0;
paths = (
{
closed = 1;
nodes = (
"326 0 LINE SMOOTH",
"476 0 OFFCURVE",
"568 56 OFFCURVE",
"568 189 CURVE SMOOTH",
"568 296 OFFCURVE",
"492 344 OFFCURVE",
"440 363 CURVE",
"448 350 LINE",
"481 382 OFFCURVE",
"528 402 OFFCURVE",
"528 488 CURVE SMOOTH",
"528 585 OFFCURVE",
"479 667 OFFCURVE",
"306 667 CURVE SMOOTH",
"85 667 LINE",
"85 0 LINE"
);
},
{
closed = 1;
nodes = (
"157 310 LINE",
"329 310 LINE SMOOTH",
"407 310 OFFCURVE",
"496 300 OFFCURVE",
"496 193 CURVE SMOOTH",
"496 86 OFFCURVE",
"418 67 OFFCURVE",
"332 67 CURVE SMOOTH",
"157 67 LINE"
);
},
{
closed = 1;
nodes = (
"157 598 LINE",
"313 598 LINE SMOOTH",
"402 598 OFFCURVE",
"456 574 OFFCURVE",
"456 483 CURVE SMOOTH",
"456 389 OFFCURVE",
"387 378 OFFCURVE",
"322 378 CURVE SMOOTH",
"157 378 LINE"
);
}
);
width = 628;
},
{
background = {
paths = (
{
closed = 1;
nodes = (
"351 0 LINE SMOOTH",
"461 0 OFFCURVE",
"628 21 OFFCURVE",
"628 184 CURVE SMOOTH",
"628 271 OFFCURVE",
"586 321 OFFCURVE",
"505 348 CURVE SMOOTH",
"502 349 OFFCURVE",
"498 350 OFFCURVE",
"494 351 CURVE",
"526 362 OFFCURVE",
"595 388 OFFCURVE",
"595 480 CURVE SMOOTH",
"595 648 OFFCURVE",
"434 667 OFFCURVE",
"331 667 CURVE SMOOTH",
"65 667 LINE",
"65 0 LINE"
);
},
{
closed = 1;
nodes = (
"277 285 LINE",
"372 285 LINE SMOOTH",
"407 285 OFFCURVE",
"461 269 OFFCURVE",
"461 214 CURVE SMOOTH",
"461 161 OFFCURVE",
"418 140 OFFCURVE",
"375 141 CURVE SMOOTH",
"277 141 LINE"
);
},
{
closed = 1;
nodes = (
"277 527 LINE",
"355 527 LINE SMOOTH",
"386 527 OFFCURVE",
"428 512 OFFCURVE",
"428 462 CURVE SMOOTH",
"428 425 OFFCURVE",
"393 406 OFFCURVE",
"365 406 CURVE SMOOTH",
"277 406 LINE"
);
}
);
};
layerId = "ECACF70C-BE42-4FA5-B3A0-AFDA71FB1D31";
paths = (
{
closed = 1;
nodes = (
"404 0 LINE",
"534 0 OFFCURVE",
"654 64 OFFCURVE",
"654 207 CURVE",
"654 307 OFFCURVE",
"577 372 OFFCURVE",
"444 372 CURVE",
"467 327 LINE",
"529 342 OFFCURVE",
"622 388 OFFCURVE",
"622 480 CURVE",
"622 628 OFFCURVE",
"507 667 OFFCURVE",
"374 667 CURVE",
"65 667 LINE",
"65 0 LINE"
);
},
{
closed = 1;
nodes = (
"266 276 LINE",
"382 276 LINE",
"419 276 OFFCURVE",
"447 256 OFFCURVE",
"447 214 CURVE",
"447 171 OFFCURVE",
"418 149 OFFCURVE",
"385 150 CURVE",
"266 150 LINE"
);
},
{
closed = 1;
nodes = (
"265 517 LINE",
"370 517 LINE",
"393 517 OFFCURVE",
"418 502 OFFCURVE",
"418 463 CURVE",
"418 437 OFFCURVE",
"399 416 OFFCURVE",
"380 416 CURVE",
"265 416 LINE"
);
}
);
width = 689;
}
);
leftKerningGroup = B;
leftMetricsKey = H;
rightMetricsKey = O;
unicode = 0042;
},
{
glyphname = C;
lastChange = "2016-09-02 14:53:32 +0000";
layers = (
{
anchors = (
{
name = bottom;
position = "{314, 0}";
},
{
name = top;
position = "{346, 667}";
}
);
layerId = UUID0;
paths = (
{
closed = 1;
nodes = (
"434 -8 OFFCURVE",
"503 10 OFFCURVE",
"567 40 CURVE",
"567 109 LINE",
"505 75 OFFCURVE",
"440 60 OFFCURVE",
"372 60 CURVE SMOOTH",
"203 60 OFFCURVE",
"130 144 OFFCURVE",
"130 334 CURVE SMOOTH",
"130 523 OFFCURVE",
"203 608 OFFCURVE",
"372 608 CURVE SMOOTH",
"440 608 OFFCURVE",
"505 591 OFFCURVE",
"567 558 CURVE",
"567 627 LINE",
"503 658 OFFCURVE",
"435 676 OFFCURVE",
"364 676 CURVE SMOOTH",
"159 676 OFFCURVE",
"55 561 OFFCURVE",
"55 334 CURVE SMOOTH",
"55 107 OFFCURVE",
"159 -8 OFFCURVE",
"364 -8 CURVE SMOOTH"
);
}
);
width = 622;
},
{
anchors = (
{
name = bottom;
position = "{317, 0}";
},
{
name = top;
position = "{355, 697}";
}
);
layerId = "ECACF70C-BE42-4FA5-B3A0-AFDA71FB1D31";
paths = (
{
closed = 1;
nodes = (
"438 -15 OFFCURVE",
"531 4 OFFCURVE",
"583 32 CURVE",
"583 203 LINE",
"510 154 OFFCURVE",
"446 135 OFFCURVE",
"405 135 CURVE",
"299 135 OFFCURVE",
"237 178 OFFCURVE",
"237 332 CURVE",
"237 489 OFFCURVE",
"299 534 OFFCURVE",
"395 534 CURVE",
"446 534 OFFCURVE",
"510 515 OFFCURVE",
"583 464 CURVE",
"583 635 LINE",
"513 665 OFFCURVE",
"438 684 OFFCURVE",
"367 684 CURVE",
"137 684 OFFCURVE",
"30 564 OFFCURVE",
"30 333 CURVE",
"30 92 OFFCURVE",
"149 -15 OFFCURVE",
"367 -15 CURVE SMOOTH"
);
}
);
width = 633;
}
);
leftKerningGroup = C;
leftMetricsKey = o;
rightKerningGroup = C;
unicode = 0043;
},
{
glyphname = D;
lastChange = "2016-08-18 15:34:38 +0000";
layers = (
{
anchors = (
{
name = bottom;
position = "{333, 0}";
},
{
name = center;
position = "{129, 334}";
},
{
name = top;
position = "{273, 667}";
}
);
layerId = UUID0;
paths = (
{
closed = 1;
nodes = (
"294 0 LINE SMOOTH",
"502 0 OFFCURVE",
"607 112 OFFCURVE",
"607 334 CURVE SMOOTH",
"607 555 OFFCURVE",
"502 667 OFFCURVE",
"294 667 CURVE SMOOTH",
"85 667 LINE",
"85 0 LINE"
);
},
{
closed = 1;
nodes = (
"157 600 LINE",
"289 600 LINE SMOOTH",
"459 600 OFFCURVE",
"533 518 OFFCURVE",
"533 334 CURVE SMOOTH",
"533 150 OFFCURVE",
"459 68 OFFCURVE",
"289 68 CURVE SMOOTH",
"157 68 LINE"
);
}
);
width = 667;
},
{
anchors = (
{
name = bottom;
position = "{370, 0}";
},
{
name = center;
position = "{167, 334}";
},
{
name = top;
position = "{330, 667}";
}
);
layerId = "ECACF70C-BE42-4FA5-B3A0-AFDA71FB1D31";
paths = (
{
closed = 1;
nodes = (
"358 0 LINE",
"593 0 OFFCURVE",
"695 116 OFFCURVE",
"695 333 CURVE",
"695 552 OFFCURVE",
"593 667 OFFCURVE",
"358 667 CURVE",
"65 667 LINE",
"65 0 LINE"
);
},
{
closed = 1;
nodes = (
"265 517 LINE",
"333 517 LINE",
"431 517 OFFCURVE",
"490 462 OFFCURVE",
"490 333 CURVE",
"490 205 OFFCURVE",
"431 150 OFFCURVE",
"333 150 CURVE",
"265 150 LINE"
);
}
);
width = 730;
}
);
leftKerningGroup = B;
leftMetricsKey = H;
rightKerningGroup = D;
rightMetricsKey = O;
unicode = 0044;
},
{
glyphname = E;
lastChange = "2016-08-31 15:02:37 +0000";
layers = (
{
anchors = (
{
name = bottom;
position = "{281, 0}";
},
{
name = ogonek;
position = "{527, 10}";
},
{
name = top;
position = "{307, 667}";
},
{
name = topleft;
position = "{18, 667}";
}
);
layerId = UUID0;
paths = (
{
closed = 1;
nodes = (
"506 0 LINE",
"506 68 LINE",
"157 68 LINE",
"157 299 LINE",
"464 299 LINE",
"464 369 LINE",
"157 369 LINE",
"157 599 LINE",
"506 599 LINE",
"506 667 LINE",
"85 667 LINE",
"85 0 LINE"
);
}
);
width = 581;
},
{
anchors = (
{
name = bottom;
position = "{302, 0}";
},
{
name = ogonek;
position = "{539, 10}";
},
{
name = top;
position = "{302, 667}";
},
{
name = topleft;
position = "{25, 667}";
}
);
layerId = "ECACF70C-BE42-4FA5-B3A0-AFDA71FB1D31";
paths = (
{
closed = 1;
nodes = (
"538 0 LINE",
"538 150 LINE",
"265 150 LINE",
"265 259 LINE",
"499 259 LINE",
"499 409 LINE",
"266 409 LINE",
"266 517 LINE",
"538 517 LINE",
"538 667 LINE",
"65 667 LINE",
"65 0 LINE"
);
}
);
width = 598;
}
);
leftKerningGroup = B;
leftMetricsKey = H;
rightKerningGroup = E;
unicode = 0045;
},
{
glyphname = F;
lastChange = "2016-08-30 23:57:29 +0000";
layers = (
{
anchors = (
{
name = center;
position = "{124, 138}";
}
);
layerId = UUID0;
paths = (
{
closed = 1;
nodes = (
"157 0 LINE",
"157 299 LINE",
"453 299 LINE",
"453 369 LINE",
"157 369 LINE",
"157 599 LINE",
"494 599 LINE",
"494 667 LINE",
"85 667 LINE",
"85 0 LINE"
);
}
);
width = 539;
},
{
anchors = (
{
name = center;
position = "{167, 131}";
}
);
layerId = "ECACF70C-BE42-4FA5-B3A0-AFDA71FB1D31";
paths = (
{
closed = 1;
nodes = (
"265 0 LINE",
"265 238 LINE",
"499 238 LINE",
"499 389 LINE",
"265 389 LINE",
"265 517 LINE",
"538 517 LINE",
"538 667 LINE",
"65 667 LINE",
"65 0 LINE"
);
}
);
width = 583;
}
);
leftKerningGroup = B;
leftMetricsKey = H;
unicode = 0046;
},
{
glyphname = G;
lastChange = "2016-09-02 13:12:13 +0000";
layers = (
{
anchors = (
{
name = bottom;
position = "{331, 0}";
},
{
name = top;
position = "{364, 667}";
}
);
layerId = UUID0;
paths = (
{
closed = 1;
nodes = (
"451 -10 OFFCURVE",
"529 7 OFFCURVE",
"602 42 CURVE",
"602 343 LINE",
"369 343 LINE",
"369 273 LINE",
"530 273 LINE",
"530 83 LINE",
"481 67 OFFCURVE",
"430 59 OFFCURVE",
"377 59 CURVE SMOOTH",
"208 59 OFFCURVE",
"132 145 OFFCURVE",
"132 334 CURVE SMOOTH",
"132 522 OFFCURVE",
"208 608 OFFCURVE",
"377 608 CURVE SMOOTH",
"448 608 OFFCURVE",
"516 584 OFFCURVE",
"579 556 CURVE",
"579 631 LINE",
"513 662 OFFCURVE",
"442 676 OFFCURVE",
"369 676 CURVE SMOOTH",
"164 676 OFFCURVE",
"60 561 OFFCURVE",
"60 334 CURVE SMOOTH",
"60 107 OFFCURVE",
"164 -10 OFFCURVE",
"369 -10 CURVE SMOOTH"
);
}
);
width = 687;
},
{
anchors = (
{
name = bottom;
position = "{322, 0}";
},
{
name = top;
position = "{374, 687}";
}
);
layerId = "ECACF70C-BE42-4FA5-B3A0-AFDA71FB1D31";
paths = (
{
closed = 1;
nodes = (
"465 -15 OFFCURVE",
"562 14 OFFCURVE",
"649 65 CURVE",
"649 384 LINE",
"360 384 LINE",
"360 234 LINE",
"449 234 LINE",
"449 147 LINE",
"436 138 OFFCURVE",
"411 134 OFFCURVE",
"382 134 CURVE",
"307 134 OFFCURVE",
"240 178 OFFCURVE",
"240 334 CURVE",
"240 493 OFFCURVE",
"301 533 OFFCURVE",
"393 533 CURVE",
"467 533 OFFCURVE",
"530 504 OFFCURVE",
"618 456 CURVE",
"618 634 LINE",
"540 665 OFFCURVE",
"456 684 OFFCURVE",
"367 684 CURVE",
"174 684 OFFCURVE",
"35 583 OFFCURVE",
"35 333 CURVE",
"35 76 OFFCURVE",
"174 -15 OFFCURVE",
"368 -15 CURVE"
);
}
);
width = 714;
}
);
leftKerningGroup = C;
leftMetricsKey = O;
rightKerningGroup = G;
rightMetricsKey = H;
unicode = 0047;
},
{
glyphname = H;
lastChange = "2016-08-30 23:41:36 +0000";
layers = (
{
anchors = (
{
name = bottom;
position = "{335, 0}";
},
{
name = center;
position = "{335, 525}";
},
{
name = top;
position = "{335, 667}";
},
{
name = topleft;
position = "{18, 667}";
}
);
layerId = UUID0;
paths = (
{
closed = 1;
nodes = (
"157 0 LINE",
"157 299 LINE",
"512 299 LINE",
"512 0 LINE",
"584 0 LINE",
"584 667 LINE",
"512 667 LINE",
"512 367 LINE",
"157 367 LINE",
"157 667 LINE",
"85 667 LINE",
"85 0 LINE"
);
}
);
width = 669;
},
{
anchors = (
{
name = bottom;
position = "{364, 0}";
},
{
name = center;
position = "{364, 535}";
},
{
name = top;
position = "{364, 667}";
},
{
name = topleft;
position = "{25, 667}";
}
);
layerId = "ECACF70C-BE42-4FA5-B3A0-AFDA71FB1D31";
paths = (
{
closed = 1;
nodes = (
"265 0 LINE",
"265 250 LINE",
"463 250 LINE",
"463 0 LINE",
"663 0 LINE",
"663 667 LINE",
"463 667 LINE",
"463 410 LINE",
"265 410 LINE",
"265 667 LINE",
"65 667 LINE",
"65 0 LINE"
);
}
);
width = 728;
}
);
leftKerningGroup = B;
rightKerningGroup = H;
unicode = 0048;
},
{
glyphname = Hbar;
lastChange = "2016-08-18 11:54:29 +0000";
layers = (
{
anchors = (
{
name = _center;
position = "{335, 505}";
}
);
components = (
{
name = H;
}
);
layerId = UUID0;
paths = (
{
closed = 1;
nodes = (
"634 478 LINE",
"634 531 LINE",
"35 531 LINE",
"35 478 LINE"
);
}
);
width = 669;
},
{
anchors = (
{
name = _center;
position = "{364, 535}";
}
);
components = (
{
name = H;
}
);
layerId = "ECACF70C-BE42-4FA5-B3A0-AFDA71FB1D31";
paths = (
{
closed = 1;
nodes = (
"703 491 LINE",
"703 579 LINE",
"25 579 LINE",
"25 491 LINE"
);
}
);
width = 728;
}
);
unicode = 0126;
},
{
glyphname = I;
lastChange = "2016-08-18 19:18:50 +0000";
layers = (
{
anchors = (
{
name = bottom;
position = "{121, 0}";
},
{
name = ogonek;
position = "{179, 10}";
},
{
name = top;
position = "{121, 667}";
},
{
name = topleft;
position = "{18, 667}";
}
);
layerId = UUID0;
paths = (
{
closed = 1;
nodes = (
"157 0 LINE",
"157 667 LINE",
"85 667 LINE",
"85 0 LINE"
);
}
);
width = 242;
},
{
anchors = (
{
name = bottom;
position = "{156, 0}";
},
{
name = ogonek;
position = "{277, 10}";
},
{
name = top;
position = "{173, 667}";
},
{
name = topleft;
position = "{25, 667}";
}
);
layerId = "ECACF70C-BE42-4FA5-B3A0-AFDA71FB1D31";
paths = (
{
closed = 1;
nodes = (
"266 0 LINE",
"266 667 LINE",
"65 667 LINE",
"65 0 LINE"
);
}
);
width = 331;
}
);
leftKerningGroup = B;
leftMetricsKey = H;
rightKerningGroup = H;
rightMetricsKey = H;
unicode = 0049;
},
{
glyphname = Iogonek;
lastChange = "2016-08-18 15:42:23 +0000";
layers = (
{
anchors = (
{
name = _ogonek;
position = "{179, 10}";
}
);
components = (
{
name = I;
}
);
layerId = UUID0;
paths = (
{
closed = 1;
nodes = (
"119 -173 OFFCURVE",
"138 -164 OFFCURVE",
"154 -155 CURVE",
"154 -92 LINE",
"146 -100 OFFCURVE",
"125 -119 OFFCURVE",
"99 -119 CURVE SMOOTH",
"77 -119 OFFCURVE",
"65 -109 OFFCURVE",
"65 -85 CURVE SMOOTH",
"65 -56 OFFCURVE",
"104 -25 OFFCURVE",
"157 0 CURVE",
"90 11 LINE",
"42 -9 OFFCURVE",
"6 -57 OFFCURVE",
"6 -90 CURVE SMOOTH",
"6 -143 OFFCURVE",
"40 -173 OFFCURVE",
"94 -173 CURVE SMOOTH"
);
}
);
width = 242;
},
{
anchors = (
{
name = _ogonek;
position = "{277, 10}";
}
);
components = (
{
name = I;
}
);
layerId = "ECACF70C-BE42-4FA5-B3A0-AFDA71FB1D31";
paths = (
{
closed = 1;
nodes = (
"219 -194 OFFCURVE",
"246 -179 OFFCURVE",
"267 -168 CURVE",
"267 -73 LINE",
"244 -94 OFFCURVE",
"221 -110 OFFCURVE",
"197 -110 CURVE SMOOTH",
"177 -110 OFFCURVE",
"162 -104 OFFCURVE",
"162 -74 CURVE SMOOTH",
"162 -47 OFFCURVE",
"206 -21 OFFCURVE",
"261 0 CURVE",
"157 31 LINE",
"76 0 OFFCURVE",
"19 -36 OFFCURVE",
"19 -93 CURVE SMOOTH",
"19 -161 OFFCURVE",
"62 -194 OFFCURVE",
"162 -194 CURVE SMOOTH"
);
}
);
width = 331;
}
);
leftKerningGroup = B;
rightKerningGroup = H;
unicode = 012E;
},
{
glyphname = J;
lastChange = "2016-09-02 14:39:59 +0000";
layers = (
{
anchors = (
{
name = bottom;
position = "{227, 0}";
},
{
name = top;
position = "{337, 667}";
}
);
layerId = UUID0;
paths = (
{
closed = 1;
nodes = (
"264 -8 OFFCURVE",
"368 28 OFFCURVE",
"368 199 CURVE SMOOTH",
"368 667 LINE",
"296 667 LINE",
"296 205 LINE SMOOTH",
"296 103 OFFCURVE",
"259 62 OFFCURVE",
"168 62 CURVE SMOOTH",
"118 62 OFFCURVE",
"78 79 OFFCURVE",
"45 102 CURVE",
"45 27 LINE",
"81 6 OFFCURVE",
"125 -8 OFFCURVE",
"177 -8 CURVE SMOOTH"
);
}
);
width = 453;
},
{
anchors = (
{
name = bottom;
position = "{245, 0}";
},
{
name = top;
position = "{325, 667}";
}
);
layerId = "ECACF70C-BE42-4FA5-B3A0-AFDA71FB1D31";
paths = (
{
closed = 1;
nodes = (
"310 -15 OFFCURVE",
"424 39 OFFCURVE",
"424 204 CURVE",
"424 667 LINE",
"223 667 LINE",
"223 212 LINE",
"223 161 OFFCURVE",
"189 140 OFFCURVE",
"146 140 CURVE SMOOTH",
"113 140 OFFCURVE",
"79 167 OFFCURVE",
"30 202 CURVE",
"30 23 LINE",
"79 2 OFFCURVE",
"136 -15 OFFCURVE",
"198 -15 CURVE SMOOTH"
);
}
);
width = 489;
}
);
leftKerningGroup = J;
rightKerningGroup = J;
rightMetricsKey = H;
unicode = 004A;
},
{
glyphname = K;
lastChange = "2016-08-18 19:19:30 +0000";
layers = (
{
anchors = (
{
name = bottom;
position = "{317, 0}";
},
{
name = top;
position = "{317, 667}";
}
);
layerId = UUID0;
paths = (
{
closed = 1;
nodes = (
"565 667 LINE",
"473 667 LINE",
"149 307 LINE",
"149 213 LINE"
);
},
{
closed = 1;
nodes = (
"157 0 LINE",
"157 667 LINE",
"85 667 LINE",
"85 0 LINE"
);
},
{
closed = 1;
nodes = (
"207 327 LINE",
"488 0 LINE",
"588 0 LINE",
"261 376 LINE"
);
}
);
width = 613;
},
{
anchors = (
{
name = bottom;
position = "{344, 0}";
},
{
name = top;
position = "{364, 667}";
}
);
layerId = "ECACF70C-BE42-4FA5-B3A0-AFDA71FB1D31";
paths = (
{
closed = 1;
nodes = (
"674 667 LINE",
"422 667 LINE",
"181 302 LINE",
"259 195 LINE"
);
},
{
closed = 1;
nodes = (
"266 0 LINE",
"266 667 LINE",
"65 667 LINE",
"65 0 LINE"
);
},
{
closed = 1;
nodes = (
"262 302 LINE",
"446 0 LINE",
"693 0 LINE",
"418 429 LINE"
);
}
);
width = 708;
}
);
leftKerningGroup = B;
leftMetricsKey = H;
rightKerningGroup = K;
unicode = 004B;
},
{
glyphname = L;
lastChange = "2016-09-02 13:08:29 +0000";
layers = (
{
anchors = (
{
name = bottom;
position = "{269, 0}";
},
{
name = center;
position = "{321, 334}";
},
{
name = top;
position = "{125, 667}";
},
{
name = topright;
position = "{518, 667}";
}
);
layerId = UUID0;
paths = (
{
closed = 1;
nodes = (
"498 0 LINE",
"498 70 LINE",
"157 70 LINE",
"157 667 LINE",
"85 667 LINE",
"85 0 LINE"
);
}
);
width = 523;
},
{
anchors = (
{
name = bottom;
position = "{284, 0}";
},
{
name = center;
position = "{444, 334}";
},
{
name = top;
position = "{174, 667}";
},
{
name = topright;
position = "{548, 667}";
}
);
background = {
paths = (
{
closed = 1;
nodes = (
"266 0 LINE",
"266 667 LINE",
"65 667 LINE",
"65 0 LINE"
);
}
);
};
layerId = "ECACF70C-BE42-4FA5-B3A0-AFDA71FB1D31";
paths = (
{
closed = 1;
nodes = (
"533 0 LINE",
"533 151 LINE",
"266 151 LINE",
"266 667 LINE",
"65 667 LINE",
"65 0 LINE"
);
}
);
width = 568;
}
);
leftKerningGroup = B;
leftMetricsKey = H;
rightKerningGroup = L;
unicode = 004C;
},
{
glyphname = Lslash;
lastChange = "2016-08-18 15:48:05 +0000";
layers = (
{
components = (
{
name = L;
}
);
layerId = UUID0;
paths = (
{
closed = 1;
nodes = (
"293 440 LINE",
"293 504 LINE",
"13 315 LINE",
"13 251 LINE"
);
}
);
width = 521;
},
{
components = (
{
name = L;
}
);
layerId = "ECACF70C-BE42-4FA5-B3A0-AFDA71FB1D31";
paths = (
{
closed = 1;
nodes = (
"4 284 LINE",
"4 162 LINE",
"405 382 LINE",
"405 504 LINE"
);
}
);
width = 576;
}
);
unicode = 0141;
},
{
glyphname = M;
lastChange = "2016-08-22 17:43:27 +0000";
layers = (
{
anchors = (
{
name = bottom;
position = "{393, 0}";
},
{
name = top;
position = "{393, 667}";
}
);
layerId = UUID0;
paths = (
{
closed = 1;
nodes = (
"157 0 LINE",
"157 624 LINE",
"131 587 LINE",
"385 209 LINE",
"660 595 LINE",
"628 595 LINE",
"628 0 LINE",
"700 0 LINE",
"700 667 LINE",
"622 667 LINE",
"361 277 LINE",
"410 288 LINE",
"163 667 LINE",
"85 667 LINE",
"85 0 LINE"
);
}
);
width = 785;
},
{
anchors = (
{
name = bottom;
position = "{436, 0}";
},
{
name = top;
position = "{436, 667}";
}
);
layerId = "ECACF70C-BE42-4FA5-B3A0-AFDA71FB1D31";
paths = (
{
closed = 1;
nodes = (
"255 0 LINE",
"255 479 LINE",
"217 460 LINE",
"431 182 LINE",
"638 450 LINE",
"607 523 LINE",
"607 0 LINE",
"807 0 LINE",
"807 667 LINE",
"611 667 LINE",
"384 374 LINE",
"488 374 LINE",
"267 667 LINE",
"65 667 LINE",
"65 0 LINE"
);
}
);
width = 872;
}
);
leftMetricsKey = H;
rightMetricsKey = H;
unicode = 004D;
},
{
glyphname = N;
lastChange = "2016-08-15 13:46:22 +0000";
layers = (
{
anchors = (
{
name = bottom;
position = "{362, 0}";
},
{
name = top;
position = "{362, 667}";
}
);
layerId = UUID0;
paths = (
{
closed = 1;
nodes = (
"157 0 LINE",
"157 640 LINE",
"124 609 LINE",
"556 0 LINE",
"637 0 LINE",
"637 667 LINE",
"565 667 LINE",
"565 52 LINE",
"583 80 LINE",
"167 667 LINE",
"85 667 LINE",
"85 0 LINE"
);
}
);
width = 722;
},
{
anchors = (
{
name = bottom;
position = "{363, 0}";
},
{
name = top;
position = "{363, 667}";
}
);
layerId = "ECACF70C-BE42-4FA5-B3A0-AFDA71FB1D31";
paths = (
{
closed = 1;
nodes = (
"247 0 LINE",
"247 482 LINE",
"207 391 LINE",
"520 0 LINE",
"660 0 LINE",
"660 667 LINE",
"478 667 LINE",
"478 127 LINE",
"539 259 LINE",
"227 667 LINE",
"65 667 LINE",
"65 0 LINE"
);
}
);
width = 725;
}
);
leftKerningGroup = B;
leftMetricsKey = H;
rightKerningGroup = H;
rightMetricsKey = H;
unicode = 004E;
},
{
glyphname = Eng;
lastChange = "2016-08-18 15:51:23 +0000";
layers = (
{
layerId = UUID0;
paths = (
{
closed = 1;
nodes = (
"581 -172 OFFCURVE",
"638 -119 OFFCURVE",
"638 -9 CURVE SMOOTH",
"638 667 LINE",
"566 667 LINE",
"566 105 LINE",
"169 667 LINE",
"87 667 LINE",
"87 0 LINE",
"159 0 LINE",
"159 562 LINE",
"585 -35 LINE",
"566 29 LINE",
"566 -12 LINE",
"565 -72 OFFCURVE",
"548 -104 OFFCURVE",
"464 -105 CURVE",
"464 -172 LINE"
);
}
);
width = 728;
},
{
layerId = "ECACF70C-BE42-4FA5-B3A0-AFDA71FB1D31";
paths = (
{
closed = 1;
nodes = (
"584 -193 OFFCURVE",
"698 -154 OFFCURVE",
"702 0 CURVE SMOOTH",
"702 667 LINE",
"530 667 LINE",
"530 267 LINE",
"259 667 LINE",
"87 667 LINE",
"87 0 LINE",
"259 0 LINE",
"259 397 LINE",
"552 -29 LINE",
"530 30 LINE",
"530 -8 LINE",
"530 -61 OFFCURVE",
"485 -69 OFFCURVE",
"448 -69 CURVE",
"448 -193 LINE"
);
}
);
width = 791;
}
);
leftKerningGroup = B;
rightKerningGroup = H;
unicode = 014A;
},
{
glyphname = Nhookleft;
lastChange = "2016-08-17 15:27:30 +0000";
layers = (
{
anchors = (
{
name = bottom;
position = "{389, 0}";
},
{
name = top;
position = "{389, 667}";
}
);
layerId = UUID0;
paths = (
{
closed = 1;
nodes = (
"184 640 LINE",
"151 609 LINE",
"583 0 LINE",
"664 0 LINE",
"664 667 LINE",
"592 667 LINE",
"592 52 LINE",
"610 80 LINE",
"194 667 LINE",
"112 667 LINE",
"112 -25 LINE",
"112 -90 OFFCURVE",
"97 -124 OFFCURVE",
"10 -126 CURVE",
"10 -193 LINE",
"127 -193 OFFCURVE",
"184 -139 OFFCURVE",
"184 -29 CURVE"
);
}
);
width = 749;
},
{
anchors = (
{
name = bottom;
position = "{373, 0}";
},
{
name = top;
position = "{373, 667}";
}
);
layerId = "ECACF70C-BE42-4FA5-B3A0-AFDA71FB1D31";
paths = (
{
closed = 1;
nodes = (
"257 482 LINE",
"217 391 LINE",
"530 0 LINE",
"670 0 LINE",
"670 667 LINE",
"488 667 LINE",
"488 127 LINE",
"549 259 LINE",
"237 667 LINE",
"75 667 LINE",
"75 5 LINE",
"75 -39 OFFCURVE",
"45 -58 OFFCURVE",
"5 -49 CURVE",
"5 -193 LINE",
"143 -193 OFFCURVE",
"257 -153 OFFCURVE",
"257 7 CURVE"
);
}
);
width = 735;
}
);
leftMetricsKey = j;
rightMetricsKey = N;
unicode = 019D;
},
{
glyphname = O;
lastChange = "2016-09-07 23:16:03 +0000";
layers = (
{
anchors = (
{
name = bottom;
position = "{367, 0}";
},
{
name = center;
position = "{367, 334}";
},
{
name = ogonek;
position = "{665, 10}";
},
{
name = top;
position = "{367, 667}";
},
{
name = topleft;
position = "{13, 667}";
},
{
name = topright;
position = "{439, 667}";
}
);
layerId = UUID0;
paths = (
{
closed = 1;
nodes = (
"558 -10 OFFCURVE",
"659 106 OFFCURVE",
"659 333 CURVE",
"659 560 OFFCURVE",
"558 676 OFFCURVE",
"359 676 CURVE",
"161 676 OFFCURVE",
"60 560 OFFCURVE",
"60 333 CURVE",
"60 106 OFFCURVE",
"161 -10 OFFCURVE",
"359 -10 CURVE"
);
},
{
closed = 1;
nodes = (
"202 58 OFFCURVE",
"134 143 OFFCURVE",
"134 333 CURVE",
"134 522 OFFCURVE",
"202 608 OFFCURVE",
"359 608 CURVE",
"517 608 OFFCURVE",
"585 522 OFFCURVE",
"585 333 CURVE",
"585 143 OFFCURVE",
"517 58 OFFCURVE",
"359 58 CURVE"
);
}
);
width = 719;
},
{
anchors = (
{
name = bottom;
position = "{372, 0}";
},
{
name = center;
position = "{372, 334}";
},
{
name = ogonek;
position = "{546, 10}";
},
{
name = top;
position = "{372, 697}";
},
{
name = topleft;
position = "{20, 667}";
},
{
name = topright;
position = "{418, 650}";
}
);
layerId = "ECACF70C-BE42-4FA5-B3A0-AFDA71FB1D31";
paths = (
{
closed = 1;
nodes = (
"582 -15 OFFCURVE",
"709 105 OFFCURVE",
"709 334 CURVE",
"709 575 OFFCURVE",
"570 682 OFFCURVE",
"372 682 CURVE",
"162 682 OFFCURVE",
"35 562 OFFCURVE",
"35 333 CURVE",
"35 92 OFFCURVE",
"174 -15 OFFCURVE",
"372 -15 CURVE"
);
},
{
closed = 1;
nodes = (
"294 145 OFFCURVE",
"242 188 OFFCURVE",
"242 332 CURVE",
"242 477 OFFCURVE",
"294 522 OFFCURVE",
"372 522 CURVE",
"450 522 OFFCURVE",
"502 479 OFFCURVE",
"502 335 CURVE",
"502 190 OFFCURVE",
"450 145 OFFCURVE",
"372 145 CURVE"
);
}
);
width = 744;
}
);
leftKerningGroup = O;
rightKerningGroup = O;
unicode = 004F;
},
{
glyphname = Oslash;
lastChange = "2016-09-02 17:52:11 +0000";
layers = (
{
anchors = (
{
name = bottom;
position = "{360, 0}";
},
{
name = top;
position = "{360, 667}";
}
);
background = {
paths = (
{
closed = 1;
nodes = (
"576 -9 OFFCURVE",
"680 107 OFFCURVE",
"680 334 CURVE SMOOTH",
"680 438 OFFCURVE",
"657 519 OFFCURVE",
"613 575 CURVE",
"691 667 LINE",
"613 667 LINE",
"571 618 LINE",
"521 656 OFFCURVE",
"454 676 OFFCURVE",
"370 676 CURVE SMOOTH",
"165 676 OFFCURVE",
"61 560 OFFCURVE",
"61 334 CURVE SMOOTH",
"61 229 OFFCURVE",
"83 148 OFFCURVE",
"127 92 CURVE",
"50 0 LINE",
"128 0 LINE",
"170 49 LINE",
"220 11 OFFCURVE",
"287 -9 OFFCURVE",
"370 -9 CURVE SMOOTH"
);
},
{
closed = 1;
nodes = (
"304 59 OFFCURVE",
"253 73 OFFCURVE",
"215 102 CURVE",
"567 520 LINE",
"594 476 OFFCURVE",
"608 414 OFFCURVE",
"608 334 CURVE SMOOTH",
"608 144 OFFCURVE",
"535 59 OFFCURVE",
"370 59 CURVE SMOOTH"
);
},
{
closed = 1;
nodes = (
"146 191 OFFCURVE",
"133 253 OFFCURVE",
"133 334 CURVE SMOOTH",
"133 523 OFFCURVE",
"206 608 OFFCURVE",
"370 608 CURVE SMOOTH",
"437 608 OFFCURVE",
"488 594 OFFCURVE",
"526 565 CURVE",
"174 147 LINE"
);
}
);
};
components = (
{
name = O;
}
);
layerId = UUID0;
paths = (
{
closed = 1;
nodes = (
"122 0 LINE",
"685 667 LINE",
"619 667 LINE",
"57 0 LINE"
);
}
);
width = 719;
},
{
anchors = (
{
name = bottom;
position = "{372, 0}";
},
{
name = top;
position = "{372, 667}";
}
);
background = {
paths = (
{
closed = 1;
nodes = (
"517 -7 OFFCURVE",
"687 52 OFFCURVE",
"687 333 CURVE SMOOTH",
"687 427 OFFCURVE",
"668 496 OFFCURVE",
"637 547 CURVE",
"740 667 LINE",
"580 667 LINE",
"550 632 LINE",
"496 663 OFFCURVE",
"432 673 OFFCURVE",
"374 673 CURVE SMOOTH",
"231 673 OFFCURVE",
"61 614 OFFCURVE",
"61 333 CURVE SMOOTH",
"61 239 OFFCURVE",
"80 170 OFFCURVE",
"110 120 CURVE",
"7 0 LINE",
"167 0 LINE",
"197 35 LINE",
"251 3 OFFCURVE",
"315 -7 OFFCURVE",
"374 -7 CURVE SMOOTH"
);
},
{
closed = 1;
nodes = (
"348 140 OFFCURVE",
"323 144 OFFCURVE",
"302 156 CURVE",
"510 399 LINE",
"513 380 OFFCURVE",
"515 358 OFFCURVE",
"515 333 CURVE SMOOTH",
"515 174 OFFCURVE",
"447 140 OFFCURVE",
"374 140 CURVE SMOOTH"
);
},
{
closed = 1;
nodes = (
"234 287 OFFCURVE",
"233 309 OFFCURVE",
"233 333 CURVE SMOOTH",
"233 492 OFFCURVE",
"301 526 OFFCURVE",
"374 526 CURVE SMOOTH",
"399 526 OFFCURVE",
"424 522 OFFCURVE",
"445 510 CURVE",
"237 268 LINE"
);
}
);
};
components = (
{
name = O;
}
);
layerId = "ECACF70C-BE42-4FA5-B3A0-AFDA71FB1D31";
paths = (
{
closed = 1;
nodes = (
"134 0 LINE",
"730 666 LINE",
"605 666 LINE",
"10 0 LINE"
);
}
);
width = 744;
}
);
leftKerningGroup = Oslash;
unicode = 00D8;
},
{
glyphname = P;
lastChange = "2016-08-22 15:19:34 +0000";
layers = (
{
layerId = UUID0;
paths = (
{
closed = 1;
nodes = (
"322 255 LINE SMOOTH",
"471 255 OFFCURVE",
"553 328 OFFCURVE",
"553 461 CURVE SMOOTH",
"553 594 OFFCURVE",
"471 667 OFFCURVE",
"322 667 CURVE SMOOTH",
"85 667 LINE",
"85 0 LINE",
"157 0 LINE",
"157 255 LINE"
);
},
{
closed = 1;
nodes = (
"157 598 LINE",
"313 598 LINE SMOOTH",
"462 598 OFFCURVE",
"481 525 OFFCURVE",
"481 461 CURVE SMOOTH",
"481 397 OFFCURVE",
"462 324 OFFCURVE",
"313 324 CURVE SMOOTH",
"157 324 LINE"
);
}
);
width = 613;
},
{
layerId = "ECACF70C-BE42-4FA5-B3A0-AFDA71FB1D31";
paths = (
{
closed = 1;
nodes = (
"392 203 LINE",
"551 203 OFFCURVE",
"651 290 OFFCURVE",
"651 445 CURVE",
"651 599 OFFCURVE",
"551 667 OFFCURVE",
"392 667 CURVE",
"65 667 LINE",
"65 0 LINE",
"265 0 LINE",
"265 203 LINE"
);
},
{
closed = 1;
nodes = (
"265 517 LINE",
"367 517 LINE",
"402 517 OFFCURVE",
"433 490 OFFCURVE",
"433 430 CURVE",
"433 378 OFFCURVE",
"402 353 OFFCURVE",
"367 353 CURVE",
"265 353 LINE"
);
}
);
width = 686;
}
);
leftKerningGroup = B;
leftMetricsKey = H;
rightMetricsKey = O;
unicode = 0050;
},
{
glyphname = Thorn;
lastChange = "2016-08-05 09:29:49 +0000";
layers = (
{
layerId = UUID0;
paths = (
{
closed = 1;
nodes = (
"158 0 LINE",
"158 153 LINE",
"288 153 LINE SMOOTH",
"436 153 OFFCURVE",
"518 226 OFFCURVE",
"518 359 CURVE SMOOTH",
"518 492 OFFCURVE",
"436 566 OFFCURVE",
"288 566 CURVE SMOOTH",
"158 566 LINE",
"158 667 LINE",
"86 667 LINE",
"86 0 LINE"
);
},
{
closed = 1;
nodes = (
"158 496 LINE",
"278 496 LINE SMOOTH",
"427 496 OFFCURVE",
"446 423 OFFCURVE",
"446 359 CURVE SMOOTH",
"446 295 OFFCURVE",
"427 222 OFFCURVE",
"278 222 CURVE SMOOTH",
"158 222 LINE"
);
}
);
width = 570;
},
{
layerId = "ECACF70C-BE42-4FA5-B3A0-AFDA71FB1D31";
paths = (
{
closed = 1;
nodes = (
"258 0 LINE",
"258 99 LINE",
"344 99 LINE SMOOTH",
"506 99 OFFCURVE",
"599 185 OFFCURVE",
"599 334 CURVE SMOOTH",
"599 482 OFFCURVE",
"506 568 OFFCURVE",
"344 568 CURVE SMOOTH",
"258 568 LINE",
"258 667 LINE",
"86 667 LINE",
"86 0 LINE"
);
},
{
closed = 1;
nodes = (
"258 428 LINE",
"328 428 LINE SMOOTH",
"404 428 OFFCURVE",
"428 376 OFFCURVE",
"428 334 CURVE SMOOTH",
"428 290 OFFCURVE",
"404 241 OFFCURVE",
"328 241 CURVE SMOOTH",
"258 241 LINE"
);
}
);
width = 653;
}
);
leftKerningGroup = B;
unicode = 00DE;
},
{
glyphname = Q;
lastChange = "2016-08-17 20:14:46 +0000";
layers = (
{
layerId = UUID0;
paths = (
{
closed = 1;
nodes = (
"558 -10 OFFCURVE",
"659 106 OFFCURVE",
"659 333 CURVE",
"659 560 OFFCURVE",
"558 676 OFFCURVE",
"359 676 CURVE",
"161 676 OFFCURVE",
"60 560 OFFCURVE",
"60 333 CURVE",
"60 106 OFFCURVE",
"161 -10 OFFCURVE",
"359 -10 CURVE"
);
},
{
closed = 1;
nodes = (
"202 58 OFFCURVE",
"134 143 OFFCURVE",
"134 333 CURVE",
"134 522 OFFCURVE",
"202 608 OFFCURVE",
"359 608 CURVE",
"517 608 OFFCURVE",
"585 522 OFFCURVE",
"585 333 CURVE",
"585 143 OFFCURVE",
"519 64 OFFCURVE",
"359 58 CURVE"
);
},
{
closed = 1;
nodes = (
"570 -28 OFFCURVE",
"545 -7 OFFCURVE",
"514 52 CURVE SMOOTH",
"478 121 OFFCURVE",
"421 199 OFFCURVE",
"328 199 CURVE SMOOTH",
"268 199 OFFCURVE",
"230 170 OFFCURVE",
"208 153 CURVE",
"208 81 LINE",
"236 112 OFFCURVE",
"269 138 OFFCURVE",
"320 138 CURVE",
"393 138 OFFCURVE",
"421 76 OFFCURVE",
"451 16 CURVE SMOOTH",
"483 -47 OFFCURVE",
"530 -90 OFFCURVE",
"591 -90 CURVE SMOOTH",
"603 -90 OFFCURVE",
"628 -88 OFFCURVE",
"658 -72 CURVE",
"658 -8 LINE",
"630 -25 OFFCURVE",
"616 -28 OFFCURVE",
"599 -28 CURVE"
);
}
);
width = 719;
},
{
layerId = "ECACF70C-BE42-4FA5-B3A0-AFDA71FB1D31";
paths = (
{
closed = 1;
nodes = (
"602 -25 OFFCURVE",
"709 95 OFFCURVE",
"709 334 CURVE",
"709 585 OFFCURVE",
"590 692 OFFCURVE",
"372 692 CURVE",
"142 692 OFFCURVE",
"35 572 OFFCURVE",
"35 333 CURVE",
"35 82 OFFCURVE",
"154 -25 OFFCURVE",
"372 -25 CURVE"
);
},
{
closed = 1;
nodes = (
"294 105 OFFCURVE",
"242 148 OFFCURVE",
"242 332 CURVE",
"242 497 OFFCURVE",
"294 542 OFFCURVE",
"372 542 CURVE",
"450 542 OFFCURVE",
"502 499 OFFCURVE",
"502 335 CURVE",
"502 150 OFFCURVE",
"450 105 OFFCURVE",
"372 105 CURVE"
);
},
{
closed = 1;
nodes = (
"592 2 OFFCURVE",
"562 54 OFFCURVE",
"551 120 CURVE SMOOTH",
"522 288 OFFCURVE",
"441 319 OFFCURVE",
"369 319 CURVE SMOOTH",
"306 319 OFFCURVE",
"248 285 OFFCURVE",
"226 244 CURVE",
"226 127 LINE",
"254 168 OFFCURVE",
"292 184 OFFCURVE",
"329 184 CURVE",
"366 184 OFFCURVE",
"404 136 OFFCURVE",
"415 50 CURVE SMOOTH",
"433 -88 OFFCURVE",
"526 -112 OFFCURVE",
"601 -112 CURVE SMOOTH",
"653 -112 OFFCURVE",
"686 -105 OFFCURVE",
"708 -93 CURVE",
"708 22 LINE",
"680 5 OFFCURVE",
"666 2 OFFCURVE",
"640 2 CURVE"
);
}
);
width = 744;
}
);
leftKerningGroup = C;
leftMetricsKey = O;
rightKerningGroup = O;
rightMetricsKey = O;
unicode = 0051;
},
{
glyphname = R;
lastChange = "2016-08-18 15:56:21 +0000";
layers = (
{
anchors = (
{
name = bottom;
position = "{316, 0}";
},
{
name = top;
position = "{296, 667}";
}
);
layerId = UUID0;
paths = (
{
closed = 1;
nodes = (
"157 0 LINE",
"157 269 LINE",
"339 269 LINE",
"303 306 LINE",
"501 0 LINE",
"586 0 LINE",
"394 293 LINE",
"364 273 LINE",
"479 273 OFFCURVE",
"556 357 OFFCURVE",
"556 473 CURVE SMOOTH",
"556 601 OFFCURVE",
"489 667 OFFCURVE",
"359 667 CURVE SMOOTH",
"85 667 LINE",
"85 0 LINE"
);
},
{
closed = 1;
nodes = (
"157 599 LINE",
"351 599 LINE SMOOTH",
"453 599 OFFCURVE",
"484 548 OFFCURVE",
"484 468 CURVE SMOOTH",
"484 383 OFFCURVE",
"437 337 OFFCURVE",
"326 337 CURVE SMOOTH",
"157 337 LINE"
);
}
);
width = 631;
},
{
anchors = (
{
name = bottom;
position = "{372, 0}";
},
{
name = top;
position = "{342, 667}";
}
);
layerId = "ECACF70C-BE42-4FA5-B3A0-AFDA71FB1D31";
paths = (
{
closed = 1;
nodes = (
"265 0 LINE",
"265 213 LINE",
"383 213 LINE",
"296 284 LINE",
"450 0 LINE",
"708 0 LINE",
"499 318 LINE",
"527 249 LINE",
"627 274 OFFCURVE",
"671 371 OFFCURVE",
"671 448 CURVE",
"671 596 OFFCURVE",
"571 667 OFFCURVE",
"412 667 CURVE",
"65 667 LINE",
"65 0 LINE"
);
},
{
closed = 1;
nodes = (
"265 517 LINE",
"387 517 LINE",
"422 517 OFFCURVE",
"453 493 OFFCURVE",
"453 439 CURVE",
"453 375 OFFCURVE",
"422 354 OFFCURVE",
"387 354 CURVE",
"265 354 LINE"
);
}
);
width = 743;
}
);
leftKerningGroup = B;
leftMetricsKey = H;
rightKerningGroup = R;
unicode = 0052;
},
{
glyphname = S;
lastChange = "2016-09-02 14:49:05 +0000";
layers = (
{
anchors = (
{
name = bottom;
position = "{279, 0}";
},
{
name = top;
position = "{279, 667}";
}
);
layerId = UUID0;
paths = (
{
closed = 1;
nodes = (
"443 -10 OFFCURVE",
"495 89 OFFCURVE",
"495 179 CURVE SMOOTH",
"495 306 OFFCURVE",
"391 344 OFFCURVE",
"298 376 CURVE SMOOTH",
"210 406 OFFCURVE",
"150 429 OFFCURVE",
"150 511 CURVE SMOOTH",
"150 563 OFFCURVE",
"187 611 OFFCURVE",
"285 611 CURVE SMOOTH",
"366 611 OFFCURVE",
"404 585 OFFCURVE",
"456 556 CURVE",
"456 630 LINE",
"394 660 OFFCURVE",
"359 677 OFFCURVE",
"281 677 CURVE SMOOTH",
"128 677 OFFCURVE",
"77 579 OFFCURVE",
"77 506 CURVE SMOOTH",
"77 375 OFFCURVE",
"173 343 OFFCURVE",
"264 312 CURVE",
"344 281 OFFCURVE",
"422 255 OFFCURVE",
"422 171 CURVE SMOOTH",
"422 104 OFFCURVE",
"378 56 OFFCURVE",
"277 56 CURVE SMOOTH",
"181 56 OFFCURVE",
"108 89 OFFCURVE",
"65 125 CURVE",
"65 47 LINE",
"130 12 OFFCURVE",
"173 -10 OFFCURVE",
"274 -10 CURVE SMOOTH"
);
}
);
width = 555;
},
{
anchors = (
{
name = bottom;
position = "{260, 0}";
},
{
name = top;
position = "{315, 697}";
}
);
layerId = "ECACF70C-BE42-4FA5-B3A0-AFDA71FB1D31";
paths = (
{
closed = 1;
nodes = (
"450 -15 OFFCURVE",
"551 77 OFFCURVE",
"551 212 CURVE",
"551 330 OFFCURVE",
"478 373 OFFCURVE",
"364 405 CURVE",
"293 425 OFFCURVE",
"240 435 OFFCURVE",
"240 479 CURVE",
"240 526 OFFCURVE",
"290 538 OFFCURVE",
"337 534 CURVE",
"396 529 OFFCURVE",
"470 491 OFFCURVE",
"515 451 CURVE",
"515 641 LINE",
"454 671 OFFCURVE",
"398 684 OFFCURVE",
"315 684 CURVE",
"127 684 OFFCURVE",
"35 580 OFFCURVE",
"35 454 CURVE",
"35 340 OFFCURVE",
"104 295 OFFCURVE",
"177 270 CURVE",
"272 238 OFFCURVE",
"345 227 OFFCURVE",
"345 187 CURVE",
"345 145 OFFCURVE",
"314 135 OFFCURVE",
"272 135 CURVE",
"213 135 OFFCURVE",
"126 157 OFFCURVE",
"56 212 CURVE",
"56 26 LINE",
"122 -6 OFFCURVE",
"203 -15 OFFCURVE",
"304 -15 CURVE"
);
}
);
width = 586;
}
);
leftKerningGroup = S;
rightKerningGroup = S;
unicode = 0053;
},
{
glyphname = Germandbls;
lastChange = "2016-08-22 18:12:49 +0000";
layers = (
{
layerId = UUID0;
paths = (
{
closed = 1;
nodes = (
"157 0 LINE",
"157 461 LINE",
"157 555 OFFCURVE",
"216 619 OFFCURVE",
"330 619 CURVE",
"444 619 OFFCURVE",
"507 565 OFFCURVE",
"527 511 CURVE",
"543 538 LINE",
"358 450 LINE",
"358 396 LINE",
"494 369 OFFCURVE",
"573 317 OFFCURVE",
"573 201 CURVE",
"573 116 OFFCURVE",
"529 56 OFFCURVE",
"428 56 CURVE",
"355 56 OFFCURVE",
"299 89 OFFCURVE",
"266 125 CURVE",
"266 47 LINE",
"316 12 OFFCURVE",
"371 -10 OFFCURVE",
"425 -10 CURVE",
"594 -10 OFFCURVE",
"646 104 OFFCURVE",
"646 209 CURVE",
"646 349 OFFCURVE",
"541 418 OFFCURVE",
"400 454 CURVE",
"400 411 LINE",
"592 499 LINE",
"592 520 LINE",
"542 614 OFFCURVE",
"493 677 OFFCURVE",
"326 677 CURVE SMOOTH",
"163 677 OFFCURVE",
"85 577 OFFCURVE",
"85 454 CURVE",
"85 0 LINE"
);
}
);
width = 706;
},
{
layerId = "ECACF70C-BE42-4FA5-B3A0-AFDA71FB1D31";
paths = (
{
closed = 1;
nodes = (
"263 0 LINE",
"264 409 LINE",
"264 505 OFFCURVE",
"322 542 OFFCURVE",
"381 542 CURVE",
"460 542 OFFCURVE",
"502 489 OFFCURVE",
"542 444 CURVE",
"505 519 LINE",
"342 366 LINE",
"342 357 LINE",
"400 326 OFFCURVE",
"485 272 OFFCURVE",
"485 192 CURVE",
"485 139 OFFCURVE",
"449 125 OFFCURVE",
"418 125 CURVE",
"385 125 OFFCURVE",
"350 147 OFFCURVE",
"316 187 CURVE",
"316 11 LINE",
"350 -12 OFFCURVE",
"410 -25 OFFCURVE",
"451 -25 CURVE",
"579 -25 OFFCURVE",
"691 74 OFFCURVE",
"691 193 CURVE",
"691 336 OFFCURVE",
"616 396 OFFCURVE",
"502 434 CURVE",
"484 307 LINE",
"682 494 LINE",
"682 512 LINE",
"627 599 OFFCURVE",
"518 682 OFFCURVE",
"365 682 CURVE SMOOTH",
"183 682 OFFCURVE",
"65 603 OFFCURVE",
"65 434 CURVE",
"65 0 LINE"
);
}
);
width = 731;
}
);
leftMetricsKey = H;
rightMetricsKey = S;
unicode = 1E9E;
},
{
glyphname = Schwa;
lastChange = "2016-08-17 19:08:54 +0000";
layers = (
{
layerId = UUID0;
paths = (
{
closed = 1;
nodes = (
"245 672 OFFCURVE",
"155 645 OFFCURVE",
"91 610 CURVE",
"91 536 LINE",
"142 569 OFFCURVE",
"237 606 OFFCURVE",
"342 606 CURVE",
"493 606 OFFCURVE",
"584 517 OFFCURVE",
"584 340 CURVE",
"584 116 OFFCURVE",
"513 55 OFFCURVE",
"358 55 CURVE",
"208 55 OFFCURVE",
"139 128 OFFCURVE",
"135 284 CURVE",
"107 274 LINE",
"616 274 LINE",
"621 340 LINE",
"60 340 LINE",
"58 139 OFFCURVE",
"142 -11 OFFCURVE",
"358 -11 CURVE",
"542 -11 OFFCURVE",
"657 99 OFFCURVE",
"657 327 CURVE",
"657 559 OFFCURVE",
"537 672 OFFCURVE",
"346 672 CURVE"
);
}
);
width = 717;
},
{
layerId = "ECACF70C-BE42-4FA5-B3A0-AFDA71FB1D31";
paths = (
{
closed = 1;
nodes = (
"239 685 OFFCURVE",
"158 670 OFFCURVE",
"87 642 CURVE",
"87 481 LINE",
"133 500 OFFCURVE",
"224 526 OFFCURVE",
"305 526 CURVE",
"443 526 OFFCURVE",
"507 458 OFFCURVE",
"507 291 CURVE",
"507 161 OFFCURVE",
"424 119 OFFCURVE",
"365 119 CURVE",
"271 119 OFFCURVE",
"228 156 OFFCURVE",
"226 311 CURVE",
"191 249 LINE",
"608 249 LINE",
"584 366 LINE",
"35 366 LINE",
"34 112 OFFCURVE",
"131 -25 OFFCURVE",
"356 -25 CURVE",
"583 -25 OFFCURVE",
"713 106 OFFCURVE",
"713 316 CURVE",
"713 543 OFFCURVE",
"567 685 OFFCURVE",
"354 685 CURVE"
);
}
);
width = 748;
}
);
leftMetricsKey = O;
rightMetricsKey = O;
unicode = 018F;
},
{
glyphname = T;
lastChange = "2016-09-02 14:54:30 +0000";
layers = (
{
anchors = (
{
name = bottom;
position = "{292, 0}";
},
{
name = center;
position = "{292, 334}";
},
{
name = top;
position = "{292, 667}";
}
);
layerId = UUID0;
paths = (
{
closed = 1;
nodes = (
"328 0 LINE",
"328 599 LINE",
"563 599 LINE",
"563 667 LINE",
"20 667 LINE",
"20 599 LINE",
"256 599 LINE",
"256 0 LINE"
);
}
);
width = 583;
},
{
anchors = (
{
name = bottom;
position = "{294, 0}";
},
{
name = center;
position = "{294, 334}";
},
{
name = top;
position = "{294, 667}";
}
);
layerId = "ECACF70C-BE42-4FA5-B3A0-AFDA71FB1D31";
paths = (
{
closed = 1;
nodes = (
"392 0 LINE",
"392 517 LINE",
"563 517 LINE",
"563 667 LINE",
"25 667 LINE",
"25 517 LINE",
"192 517 LINE",
"192 0 LINE"
);
}
);
width = 588;
}
);
leftKerningGroup = T;
rightKerningGroup = T;
unicode = 0054;
},
{
glyphname = Tcaron;
lastChange = "2016-08-05 09:29:49 +0000";
layers = (
{
layerId = UUID0;
paths = (
{
closed = 1;
nodes = (
"320 0 LINE",
"320 597 LINE",
"555 597 LINE",
"555 667 LINE",
"12 667 LINE",
"12 597 LINE",
"248 597 LINE",
"248 0 LINE"
);
},
{
closed = 1;
nodes = (
"304 724 LINE",
"385 845 LINE",
"329 845 LINE",
"284 774 LINE",
"238 845 LINE",
"182 845 LINE",
"263 724 LINE"
);
}
);
width = 568;
},
{
layerId = "ECACF70C-BE42-4FA5-B3A0-AFDA71FB1D31";
paths = (
{
closed = 1;
nodes = (
"376 0 LINE",
"376 511 LINE",
"570 511 LINE",
"570 667 LINE",
"12 667 LINE",
"12 511 LINE",
"204 511 LINE",
"204 0 LINE"
);
},
{
closed = 1;
nodes = (
"315 724 LINE",
"435 846 LINE",
"333 846 LINE",
"291 802 LINE",
"249 846 LINE",
"147 846 LINE",
"267 724 LINE"
);
}
);
width = 582;
}
);
leftKerningGroup = T;
rightKerningGroup = T;
unicode = 0164;
},
{
glyphname = U;
lastChange = "2016-08-31 19:54:46 +0000";
layers = (
{
anchors = (
{
name = bottom;
position = "{346, 0}";
},
{
name = ogonek;
position = "{453, 10}";
},
{
name = top;
position = "{346, 667}";
},
{
name = topright;
position = "{599, 559}";
}
);
layerId = UUID0;
paths = (
{
closed = 1;
nodes = (
"511 -10 OFFCURVE",
"607 90 OFFCURVE",
"607 272 CURVE SMOOTH",
"607 667 LINE",
"537 667 LINE",
"537 268 LINE SMOOTH",
"537 125 OFFCURVE",
"470 58 OFFCURVE",
"346 58 CURVE SMOOTH",
"222 58 OFFCURVE",
"157 125 OFFCURVE",
"157 268 CURVE SMOOTH",
"157 667 LINE",
"85 667 LINE",
"85 272 LINE SMOOTH",
"85 90 OFFCURVE",
"181 -10 OFFCURVE",
"346 -10 CURVE SMOOTH"
);
}
);
width = 692;
},
{
anchors = (
{
name = bottom;
position = "{370, 0}";
},
{
name = ogonek;
position = "{550, 10}";
},
{
name = top;
position = "{370, 677}";
},
{
name = topright;
position = "{601, 539}";
}
);
layerId = "ECACF70C-BE42-4FA5-B3A0-AFDA71FB1D31";
paths = (
{
closed = 1;
nodes = (
"554 -25 OFFCURVE",
"675 52 OFFCURVE",
"675 239 CURVE",
"675 667 LINE",
"485 667 LINE",
"485 251 LINE",
"485 166 OFFCURVE",
"445 125 OFFCURVE",
"380 125 CURVE",
"304 125 OFFCURVE",
"275 166 OFFCURVE",
"275 251 CURVE",
"275 667 LINE",
"65 667 LINE",
"65 239 LINE",
"65 52 OFFCURVE",
"170 -25 OFFCURVE",
"391 -25 CURVE"
);
}
);
width = 740;
}
);
leftKerningGroup = U;
leftMetricsKey = H;
rightKerningGroup = U;
rightMetricsKey = H;
unicode = 0055;
},
{
glyphname = V;
lastChange = "2016-09-02 14:40:22 +0000";
layers = (
{
layerId = UUID0;
paths = (
{
closed = 1;
nodes = (
"347 0 LINE",
"603 667 LINE",
"529 665 LINE",
"302 61 LINE",
"328 61 LINE",
"97 667 LINE",
"20 667 LINE",
"276 0 LINE"
);
}
);
width = 623;
},
{
layerId = "ECACF70C-BE42-4FA5-B3A0-AFDA71FB1D31";
paths = (
{
closed = 1;
nodes = (
"472 0 LINE",
"736 667 LINE",
"522 667 LINE",
"351 116 LINE",
"415 116 LINE",
"244 667 LINE",
"10 667 LINE",
"256 0 LINE"
);
}
);
width = 746;
}
);
leftKerningGroup = V;
leftMetricsKey = A;
rightKerningGroup = V;
rightMetricsKey = A;
unicode = 0056;
},
{
glyphname = W;
lastChange = "2016-09-02 16:58:11 +0000";
layers = (
{
anchors = (
{
name = bottom;
position = "{489, 0}";
},
{
name = top;
position = "{489, 667}";
}
);
layerId = UUID0;
paths = (
{
closed = 1;
nodes = (
"313 0 LINE",
"500 591 LINE",
"476 591 LINE",
"663 0 LINE",
"736 0 LINE",
"951 667 LINE",
"875 667 LINE",
"684 53 LINE",
"712 53 LINE",
"524 667 LINE",
"452 667 LINE",
"270 62 LINE",
"292 62 LINE",
"101 667 LINE",
"25 667 LINE",
"239 0 LINE"
);
}
);
width = 976;
},
{
anchors = (
{
name = bottom;
position = "{512, 0}";
},
{
name = top;
position = "{512, 667}";
}
);
layerId = "ECACF70C-BE42-4FA5-B3A0-AFDA71FB1D31";
paths = (
{
closed = 1;
nodes = (
"397 0 LINE",
"529 433 LINE",
"497 433 LINE",
"627 0 LINE",
"824 0 LINE",
"999 667 LINE",
"779 667 LINE",
"693 180 LINE",
"723 180 LINE",
"586 667 LINE",
"438 667 LINE",
"302 186 LINE",
"330 186 LINE",
"245 667 LINE",
"25 667 LINE",
"200 0 LINE"
);
}
);
width = 1024;
}
);
leftKerningGroup = V;
rightKerningGroup = V;
unicode = 0057;
},
{
glyphname = X;
lastChange = "2016-09-02 14:48:25 +0000";
layers = (
{
layerId = UUID0;
paths = (
{
closed = 1;
nodes = (
"104 667 LINE",
"18 667 LINE",
"487 0 LINE",
"573 0 LINE"
);
},
{
closed = 1;
nodes = (
"331 328 LINE",
"569 667 LINE",
"481 667 LINE",
"285 388 LINE"
);
},
{
closed = 1;
nodes = (
"255 347 LINE",
"12 0 LINE",
"100 0 LINE",
"314 305 LINE"
);
}
);
width = 589;
},
{
layerId = "ECACF70C-BE42-4FA5-B3A0-AFDA71FB1D31";
paths = (
{
closed = 1;
nodes = (
"260 667 LINE",
"10 667 LINE",
"458 0 LINE",
"708 0 LINE"
);
},
{
closed = 1;
nodes = (
"460 288 LINE",
"700 667 LINE",
"483 667 LINE",
"359 434 LINE"
);
},
{
closed = 1;
nodes = (
"289 409 LINE",
"23 0 LINE",
"236 0 LINE",
"385 268 LINE"
);
}
);
width = 718;
}
);
unicode = 0058;
},
{
glyphname = Y;
lastChange = "2016-09-02 14:47:28 +0000";
layers = (
{
anchors = (
{
name = bottom;
position = "{299, 0}";
},
{
name = top;
position = "{305, 667}";
},
{
name = topleft;
position = "{20, 667}";
}
);
layerId = UUID0;
paths = (
{
closed = 1;
nodes = (
"333 0 LINE",
"333 335 LINE",
"321 289 LINE",
"581 667 LINE",
"494 667 LINE",
"287 361 LINE",
"310 355 LINE",
"99 667 LINE",
"12 667 LINE",
"261 306 LINE",
"261 0 LINE"
);
}
);
width = 598;
},
{
anchors = (
{
name = bottom;
position = "{366, 0}";
},
{
name = top;
position = "{399, 667}";
},
{
name = topleft;
position = "{20, 667}";
}
);
background = {
paths = (
{
closed = 1;
nodes = (
"481 0 LINE",
"481 667 LINE",
"280 667 LINE",
"280 0 LINE"
);
}
);
};
layerId = "ECACF70C-BE42-4FA5-B3A0-AFDA71FB1D31";
paths = (
{
closed = 1;
nodes = (
"480 0 LINE",
"480 333 LINE",
"452 231 LINE",
"707 667 LINE",
"514 667 LINE",
"356 343 LINE",
"453 345 LINE",
"272 667 LINE",
"25 667 LINE",
"280 281 LINE",
"280 0 LINE"
);
}
);
width = 732;
}
);
leftKerningGroup = Y;
rightKerningGroup = Y;
unicode = 0059;
},
{
glyphname = Z;
lastChange = "2016-08-31 19:37:57 +0000";
layers = (
{
anchors = (
{
name = bottom;
position = "{305, 0}";
},
{
name = top;
position = "{305, 667}";
}
);
layerId = UUID0;
paths = (
{
closed = 1;
nodes = (
"539 0 LINE",
"539 68 LINE",
"125 68 LINE",
"134 41 LINE",
"539 606 LINE",
"539 667 LINE",
"74 667 LINE",
"74 599 LINE",
"492 599 LINE",
"478 632 LINE",
"64 63 LINE",
"64 0 LINE"
);
}
);
width = 609;
},
{
anchors = (
{
name = bottom;
position = "{312, 0}";
},
{
name = top;
position = "{332, 667}";
}
);
layerId = "ECACF70C-BE42-4FA5-B3A0-AFDA71FB1D31";
paths = (
{
closed = 1;
nodes = (
"594 0 LINE",
"594 151 LINE",
"217 151 LINE",
"288 133 LINE",
"594 528 LINE",
"594 667 LINE",
"53 667 LINE",
"53 514 LINE",
"430 514 LINE",
"377 546 LINE",
"50 142 LINE",
"50 0 LINE"
);
}
);
width = 644;
}
);
rightKerningGroup = Z;
unicode = 005A;
},
{
glyphname = a;
lastChange = "2016-09-02 15:40:25 +0000";
layers = (
{
anchors = (
{
name = bottom;
position = "{271, 0}";
},
{
name = ogonek;
position = "{468, 40}";
},
{
name = top;
position = "{291, 499}";
}
);
layerId = UUID0;
paths = (
{
closed = 1;
nodes = (
"368 -15 OFFCURVE",
"474 0 OFFCURVE",
"474 106 CURVE",
"474 348 LINE",
"474 455 OFFCURVE",
"402 508 OFFCURVE",
"293 508 CURVE",
"227 508 OFFCURVE",
"150 493 OFFCURVE",
"109 467 CURVE",
"109 395 LINE",
"151 428 OFFCURVE",
"216 443 OFFCURVE",
"270 443 CURVE SMOOTH",
"354 443 OFFCURVE",
"401 408 OFFCURVE",
"401 331 CURVE",
"401 102 LINE",
"401 57 OFFCURVE",
"355 49 OFFCURVE",
"269 49 CURVE",
"203 49 OFFCURVE",
"132 73 OFFCURVE",
"132 148 CURVE",
"132 209 OFFCURVE",
"179 242 OFFCURVE",
"263 242 CURVE",
"332 242 OFFCURVE",
"394 222 OFFCURVE",
"425 200 CURVE",
"411 266 LINE",
"373 290 OFFCURVE",
"325 307 OFFCURVE",
"244 307 CURVE",
"136 307 OFFCURVE",
"60 261 OFFCURVE",
"60 137 CURVE",
"60 17 OFFCURVE",
"165 -15 OFFCURVE",
"252 -15 CURVE"
);
}
);
width = 554;
},
{
anchors = (
{
name = bottom;
position = "{281, 0}";
},
{
name = ogonek;
position = "{474, 26}";
},
{
name = top;
position = "{281, 529}";
}
);
layerId = "ECACF70C-BE42-4FA5-B3A0-AFDA71FB1D31";
paths = (
{
closed = 1;
nodes = (
"434 -15 OFFCURVE",
"517 26 OFFCURVE",
"518 105 CURVE",
"519 342 LINE",
"520 514 OFFCURVE",
"349 526 OFFCURVE",
"285 526 CURVE",
"184 526 OFFCURVE",
"104 501 OFFCURVE",
"74 481 CURVE",
"74 323 LINE",
"107 351 OFFCURVE",
"174 379 OFFCURVE",
"235 379 CURVE",
"301 379 OFFCURVE",
"340 357 OFFCURVE",
"340 302 CURVE",
"340 135 LINE",
"340 114 OFFCURVE",
"325 108 OFFCURVE",
"265 108 CURVE",
"235 108 OFFCURVE",
"210 133 OFFCURVE",
"210 158 CURVE",
"210 191 OFFCURVE",
"232 204 OFFCURVE",
"289 204 CURVE",
"319 204 OFFCURVE",
"349 197 OFFCURVE",
"374 184 CURVE",
"371 259 LINE",
"344 288 OFFCURVE",
"271 316 OFFCURVE",
"209 316 CURVE",
"80 316 OFFCURVE",
"30 248 OFFCURVE",
"30 167 CURVE",
"30 27 OFFCURVE",
"126 -15 OFFCURVE",
"265 -15 CURVE"
);
}
);
width = 579;
}
);
leftKerningGroup = a;
rightKerningGroup = a;
rightMetricsKey = n;
unicode = 0061;
},
{
glyphname = abrevedotbelow;
lastChange = "2016-08-08 18:11:06 +0000";
layers = (
{
components = (
{
name = a;
}
);
layerId = UUID0;
paths = (
{
closed = 1;
nodes = (
"320 -129 LINE",
"320 -50 LINE",
"241 -50 LINE",
"241 -129 LINE"
);
},
{
closed = 1;
nodes = (
"338 539 OFFCURVE",
"377 578 OFFCURVE",
"377 643 CURVE",
"329 643 LINE",
"329 603 OFFCURVE",
"312 587 OFFCURVE",
"272 587 CURVE SMOOTH",
"232 587 OFFCURVE",
"215 603 OFFCURVE",
"215 643 CURVE",
"167 643 LINE",
"167 578 OFFCURVE",
"206 539 OFFCURVE",
"272 539 CURVE SMOOTH"
);
}
);
width = 534;
},
{
components = (
{
name = a;
}
);
layerId = "ECACF70C-BE42-4FA5-B3A0-AFDA71FB1D31";
paths = (
{
closed = 1;
nodes = (
"341 -159 LINE",
"341 -50 LINE",
"221 -50 LINE",
"221 -159 LINE"
);
},
{
closed = 1;
nodes = (
"370 538 OFFCURVE",
"412 578 OFFCURVE",
"412 645 CURVE",
"322 645 LINE",
"319 623 OFFCURVE",
"310 609 OFFCURVE",
"281 609 CURVE SMOOTH",
"252 609 OFFCURVE",
"243 623 OFFCURVE",
"240 645 CURVE",
"150 645 LINE",
"150 578 OFFCURVE",
"192 538 OFFCURVE",
"281 538 CURVE SMOOTH"
);
}
);
width = 551;
}
);
leftKerningGroup = a;
rightKerningGroup = a;
unicode = 1EB7;
},
{
glyphname = adotbelow;
lastChange = "2016-08-08 18:12:41 +0000";
layers = (
{
components = (
{
name = a;
}
);
layerId = UUID0;
paths = (
{
closed = 1;
nodes = (
"320 -129 LINE",
"320 -50 LINE",
"241 -50 LINE",
"241 -129 LINE"
);
}
);
width = 534;
},
{
components = (
{
name = a;
}
);
layerId = "ECACF70C-BE42-4FA5-B3A0-AFDA71FB1D31";
paths = (
{
closed = 1;
nodes = (
"343 -159 LINE",
"343 -50 LINE",
"223 -50 LINE",
"223 -159 LINE"
);
}
);
width = 551;
}
);
leftKerningGroup = a;
rightKerningGroup = a;
unicode = 1EA1;
},
{
glyphname = ae;
lastChange = "2016-08-22 15:22:08 +0000";
layers = (
{
anchors = (
{
name = bottom;
position = "{489, -15}";
},
{
name = top;
position = "{455, 499}";
}
);
layerId = UUID0;
paths = (
{
closed = 1;
nodes = (
"432 110 LINE",
"399 71 OFFCURVE",
"332 49 OFFCURVE",
"269 49 CURVE",
"201 49 OFFCURVE",
"132 73 OFFCURVE",
"132 143 CURVE",
"132 209 OFFCURVE",
"174 242 OFFCURVE",
"263 242 CURVE",
"332 242 OFFCURVE",
"394 222 OFFCURVE",
"425 200 CURVE",
"411 272 LINE",
"373 296 OFFCURVE",
"325 307 OFFCURVE",
"271 307 CURVE",
"156 307 OFFCURVE",
"60 267 OFFCURVE",
"60 137 CURVE",
"60 29 OFFCURVE",
"145 -15 OFFCURVE",
"269 -15 CURVE",
"364 -15 OFFCURVE",
"425 27 OFFCURVE",
"465 62 CURVE"
);
},
{
closed = 1;
nodes = (
"401 67 OFFCURVE",
"489 -15 OFFCURVE",
"632 -15 CURVE",
"701 -15 OFFCURVE",
"759 -3 OFFCURVE",
"807 20 CURVE",
"807 94 LINE",
"766 69 OFFCURVE",
"709 51 OFFCURVE",
"636 51 CURVE",
"533 51 OFFCURVE",
"474 116 OFFCURVE",
"474 237 CURVE",
"474 348 LINE",
"474 455 OFFCURVE",
"402 508 OFFCURVE",
"293 508 CURVE",
"227 508 OFFCURVE",
"150 493 OFFCURVE",
"109 467 CURVE",
"109 395 LINE",
"151 428 OFFCURVE",
"216 443 OFFCURVE",
"270 443 CURVE SMOOTH",
"354 443 OFFCURVE",
"401 408 OFFCURVE",
"401 331 CURVE",
"401 243 LINE"
);
},
{
closed = 1;
nodes = (
"474 237 LINE",
"474 397 OFFCURVE",
"521 442 OFFCURVE",
"620 442 CURVE",
"714 442 OFFCURVE",
"759 393 OFFCURVE",
"763 293 CURVE",
"791 303 LINE",
"442 303 LINE",
"437 237 LINE",
"838 237 LINE",
"840 390 OFFCURVE",
"780 508 OFFCURVE",
"620 508 CURVE",
"484 508 OFFCURVE",
"401 422 OFFCURVE",
"401 250 CURVE"
);
}
);
width = 893;
},
{
anchors = (
{
name = bottom;
position = "{439, 0}";
},
{
name = top;
position = "{439, 519}";
}
);
background = {
paths = (
{
closed = 1;
nodes = (
"364 -9 OFFCURVE",
"409 26 OFFCURVE",
"433 68 CURVE",
"452 31 OFFCURVE",
"507 -9 OFFCURVE",
"573 -9 CURVE SMOOTH",
"650 -9 OFFCURVE",
"710 9 OFFCURVE",
"763 43 CURVE",
"763 164 LINE",
"728 143 OFFCURVE",
"678 125 OFFCURVE",
"606 125 CURVE SMOOTH",
"554 125 OFFCURVE",
"499 160 OFFCURVE",
"499 208 CURVE",
"783 208 LINE",
"785 224 OFFCURVE",
"786 242 OFFCURVE",
"786 262 CURVE SMOOTH",
"786 387 OFFCURVE",
"717 505 OFFCURVE",
"559 505 CURVE SMOOTH",
"494 505 OFFCURVE",
"441 467 OFFCURVE",
"421 438 CURVE",
"400 463 OFFCURVE",
"342 504 OFFCURVE",
"275 504 CURVE SMOOTH",
"219 504 OFFCURVE",
"163 490 OFFCURVE",
"111 469 CURVE",
"111 339 LINE",
"163 360 OFFCURVE",
"213 370 OFFCURVE",
"263 370 CURVE SMOOTH",
"293 370 OFFCURVE",
"330 355 OFFCURVE",
"330 294 CURVE",
"302 296 OFFCURVE",
"309 295 OFFCURVE",
"285 295 CURVE SMOOTH",
"81 295 OFFCURVE",
"62 184 OFFCURVE",
"62 145 CURVE SMOOTH",
"62 42 OFFCURVE",
"130 -9 OFFCURVE",
"276 -9 CURVE SMOOTH"
);
},
{
closed = 1;
nodes = (
"246 122 OFFCURVE",
"234 144 OFFCURVE",
"234 175 CURVE SMOOTH",
"234 202 OFFCURVE",
"251 225 OFFCURVE",
"300 225 CURVE SMOOTH",
"311 225 OFFCURVE",
"321 224 OFFCURVE",
"333 223 CURVE",
"333 181 LINE SMOOTH",
"333 159 OFFCURVE",
"319 122 OFFCURVE",
"283 122 CURVE SMOOTH"
);
},
{
closed = 1;
nodes = (
"505 352 OFFCURVE",
"525 396 OFFCURVE",
"559 396 CURVE SMOOTH",
"594 396 OFFCURVE",
"613 343 OFFCURVE",
"615 311 CURVE",
"503 311 LINE"
);
}
);
};
layerId = "ECACF70C-BE42-4FA5-B3A0-AFDA71FB1D31";
paths = (
{
closed = 1;
nodes = (
"379 124 LINE",
"359 102 OFFCURVE",
"306 99 OFFCURVE",
"273 99 CURVE",
"232 99 OFFCURVE",
"210 124 OFFCURVE",
"210 149 CURVE",
"210 182 OFFCURVE",
"232 204 OFFCURVE",
"289 204 CURVE",
"319 204 OFFCURVE",
"349 197 OFFCURVE",
"374 184 CURVE",
"371 259 LINE",
"344 288 OFFCURVE",
"271 316 OFFCURVE",
"209 316 CURVE",
"80 316 OFFCURVE",
"30 239 OFFCURVE",
"30 158 CURVE",
"30 18 OFFCURVE",
"126 -24 OFFCURVE",
"235 -24 CURVE",
"317 -24 OFFCURVE",
"384 9 OFFCURVE",
"431 40 CURVE"
);
},
{
closed = 1;
nodes = (
"340 77 OFFCURVE",
"447 -25 OFFCURVE",
"606 -25 CURVE",
"689 -25 OFFCURVE",
"746 -10 OFFCURVE",
"793 18 CURVE",
"793 169 LINE",
"763 150 OFFCURVE",
"704 124 OFFCURVE",
"655 124 CURVE",
"555 124 OFFCURVE",
"518 150 OFFCURVE",
"518 207 CURVE",
"519 342 LINE",
"520 514 OFFCURVE",
"349 526 OFFCURVE",
"285 526 CURVE",
"184 526 OFFCURVE",
"104 501 OFFCURVE",
"74 481 CURVE",
"74 320 LINE",
"107 348 OFFCURVE",
"174 376 OFFCURVE",
"235 376 CURVE",
"301 376 OFFCURVE",
"340 354 OFFCURVE",
"340 299 CURVE",
"340 182 LINE"
);
},
{
closed = 1;
nodes = (
"519 269 LINE",
"519 357 OFFCURVE",
"559 391 OFFCURVE",
"598 391 CURVE",
"652 391 OFFCURVE",
"671 356 OFFCURVE",
"673 249 CURVE",
"692 311 LINE",
"445 311 LINE",
"469 204 LINE",
"848 204 LINE",
"849 416 OFFCURVE",
"776 525 OFFCURVE",
"607 525 CURVE",
"434 525 OFFCURVE",
"340 418 OFFCURVE",
"340 244 CURVE"
);
}
);
width = 878;
}
);
leftKerningGroup = a;
leftMetricsKey = a;
rightKerningGroup = e;
rightMetricsKey = e;
unicode = 00E6;
},
{
glyphname = b;
lastChange = "2016-09-02 15:04:50 +0000";
layers = (
{
layerId = UUID0;
paths = (
{
closed = 1;
nodes = (
"377 -16 OFFCURVE",
"513 27 OFFCURVE",
"514 256 CURVE",
"514 410 OFFCURVE",
"440 507 OFFCURVE",
"286 507 CURVE",
"242 507 OFFCURVE",
"166 487 OFFCURVE",
"127 467 CURVE",
"152 442 LINE",
"152 710 LINE",
"80 710 LINE",
"80 85 LINE SMOOTH",
"80 6 OFFCURVE",
"173 -15 OFFCURVE",
"277 -15 CURVE"
);
},
{
closed = 1;
nodes = (
"222 51 OFFCURVE",
"152 58 OFFCURVE",
"152 102 CURVE",
"152 406 LINE",
"193 430 OFFCURVE",
"244 441 OFFCURVE",
"286 441 CURVE",
"395 441 OFFCURVE",
"438 365 OFFCURVE",
"438 256 CURVE",
"438 148 OFFCURVE",
"411 51 OFFCURVE",
"270 51 CURVE"
);
}
);
width = 569;
},
{
layerId = "ECACF70C-BE42-4FA5-B3A0-AFDA71FB1D31";
paths = (
{
closed = 1;
nodes = (
"483 -15 OFFCURVE",
"585 63 OFFCURVE",
"585 255 CURVE",
"585 436 OFFCURVE",
"502 526 OFFCURVE",
"356 526 CURVE",
"319 526 OFFCURVE",
"242 514 OFFCURVE",
"208 463 CURVE",
"238 407 LINE",
"238 686 LINE",
"60 686 LINE",
"60 131 LINE",
"60 9 OFFCURVE",
"189 -15 OFFCURVE",
"307 -15 CURVE"
);
},
{
closed = 1;
nodes = (
"261 134 OFFCURVE",
"238 146 OFFCURVE",
"238 179 CURVE",
"238 369 LINE",
"256 379 OFFCURVE",
"284 384 OFFCURVE",
"304 384 CURVE",
"356 384 OFFCURVE",
"405 358 OFFCURVE",
"405 242 CURVE",
"405 172 OFFCURVE",
"371 134 OFFCURVE",
"307 134 CURVE"
);
}
);
width = 615;
}
);
leftKerningGroup = b;
leftMetricsKey = n;
rightKerningGroup = b;
rightMetricsKey = o;
unicode = 0062;
},
{
glyphname = c;
lastChange = "2016-09-02 15:40:41 +0000";
layers = (
{
anchors = (
{
name = bottom;
position = "{246, 0}";
},
{
name = top;
position = "{266, 499}";
}
);
layerId = UUID0;
paths = (
{
closed = 1;
nodes = (
"340 -8 OFFCURVE",
"390 1 OFFCURVE",
"437 19 CURVE",
"437 89 LINE",
"393 70 OFFCURVE",
"346 61 OFFCURVE",
"297 61 CURVE SMOOTH",
"178 61 OFFCURVE",
"127 117 OFFCURVE",
"127 250 CURVE SMOOTH",
"127 382 OFFCURVE",
"178 439 OFFCURVE",
"297 439 CURVE SMOOTH",
"346 439 OFFCURVE",
"393 429 OFFCURVE",
"437 411 CURVE",
"437 480 LINE",
"390 498 OFFCURVE",
"340 508 OFFCURVE",
"289 508 CURVE SMOOTH",
"182 508 OFFCURVE",
"55 463 OFFCURVE",
"55 250 CURVE SMOOTH",
"55 36 OFFCURVE",
"182 -8 OFFCURVE",
"289 -8 CURVE SMOOTH"
);
}
);
width = 492;
},
{
anchors = (
{
name = bottom;
position = "{258, 0}";
},
{
name = top;
position = "{298, 519}";
}
);
layerId = "ECACF70C-BE42-4FA5-B3A0-AFDA71FB1D31";
paths = (
{
closed = 1;
nodes = (
"382 -15 OFFCURVE",
"429 0 OFFCURVE",
"476 28 CURVE",
"476 179 LINE",
"446 160 OFFCURVE",
"397 134 OFFCURVE",
"348 134 CURVE",
"248 134 OFFCURVE",
"211 182 OFFCURVE",
"211 269 CURVE",
"211 347 OFFCURVE",
"269 379 OFFCURVE",
"338 379 CURVE",
"385 379 OFFCURVE",
"426 360 OFFCURVE",
"474 338 CURVE",
"474 491 LINE",
"431 512 OFFCURVE",
"364 525 OFFCURVE",
"307 525 CURVE",
"134 525 OFFCURVE",
"30 418 OFFCURVE",
"30 244 CURVE",
"30 87 OFFCURVE",
"150 -15 OFFCURVE",
"309 -15 CURVE"
);
}
);
width = 506;
}
);
leftKerningGroup = c;
leftMetricsKey = o;
rightKerningGroup = c;
rightMetricsKey = o;
unicode = 0063;
},
{
glyphname = d;
lastChange = "2016-09-02 15:07:15 +0000";
layers = (
{
anchors = (
{
name = bottom;
position = "{296, 0}";
},
{
name = center;
position = "{432, 604}";
},
{
name = top;
position = "{296, 499}";
},
{
name = topright;
position = "{557, 499}";
}
);
layerId = UUID0;
paths = (
{
closed = 1;
nodes = (
"369 -14 OFFCURVE",
"489 11 OFFCURVE",
"489 86 CURVE",
"489 710 LINE",
"417 710 LINE",
"417 442 LINE",
"442 467 LINE",
"403 487 OFFCURVE",
"327 507 OFFCURVE",
"283 507 CURVE",
"129 507 OFFCURVE",
"55 410 OFFCURVE",
"55 256 CURVE",
"56 27 OFFCURVE",
"192 -16 OFFCURVE",
"287 -15 CURVE"
);
},
{
closed = 1;
nodes = (
"158 51 OFFCURVE",
"131 148 OFFCURVE",
"131 256 CURVE",
"131 365 OFFCURVE",
"174 441 OFFCURVE",
"283 441 CURVE",
"325 441 OFFCURVE",
"376 430 OFFCURVE",
"417 406 CURVE",
"417 93 LINE",
"417 69 OFFCURVE",
"357 51 OFFCURVE",
"288 51 CURVE"
);
}
);
width = 569;
},
{
anchors = (
{
name = bottom;
position = "{324, 0}";
},
{
name = center;
position = "{460, 599}";
},
{
name = top;
position = "{324, 529}";
},
{
name = topright;
position = "{602, 499}";
}
);
layerId = "ECACF70C-BE42-4FA5-B3A0-AFDA71FB1D31";
paths = (
{
closed = 1;
nodes = (
"451 -15 OFFCURVE",
"566 44 OFFCURVE",
"566 151 CURVE",
"566 716 LINE",
"386 716 LINE",
"386 420 LINE",
"418 476 LINE",
"372 533 OFFCURVE",
"303 529 OFFCURVE",
"278 529 CURVE",
"113 529 OFFCURVE",
"30 426 OFFCURVE",
"30 258 CURVE",
"30 53 OFFCURVE",
"132 -15 OFFCURVE",
"317 -15 CURVE"
);
},
{
closed = 1;
nodes = (
"246 135 OFFCURVE",
"212 171 OFFCURVE",
"212 251 CURVE",
"212 363 OFFCURVE",
"256 385 OFFCURVE",
"331 385 CURVE",
"349 385 OFFCURVE",
"368 379 OFFCURVE",
"386 370 CURVE",
"386 171 LINE",
"386 146 OFFCURVE",
"364 135 OFFCURVE",
"325 135 CURVE"
);
}
);
width = 626;
}
);
leftKerningGroup = c;
leftMetricsKey = o;
rightKerningGroup = d;
rightMetricsKey = n;
unicode = 0064;
},
{
glyphname = eth;
lastChange = "2016-08-17 15:45:11 +0000";
layers = (
{
layerId = UUID0;
paths = (
{
closed = 1;
nodes = (
"436 -15 OFFCURVE",
"512 97 OFFCURVE",
"512 271 CURVE SMOOTH",
"512 481 OFFCURVE",
"355 624 OFFCURVE",
"288 689 CURVE",
"174 689 LINE",
"174 686 LINE",
"304 590 OFFCURVE",
"440 446 OFFCURVE",
"440 271 CURVE",
"438 86 OFFCURVE",
"370 51 OFFCURVE",
"284 51 CURVE",
"168 51 OFFCURVE",
"127 130 OFFCURVE",
"127 248 CURVE",
"127 357 OFFCURVE",
"164 442 OFFCURVE",
"284 442 CURVE",
"353 442 OFFCURVE",
"415 412 OFFCURVE",
"446 370 CURVE",
"432 436 LINE",
"394 480 OFFCURVE",
"349 508 OFFCURVE",
"283 508 CURVE",
"137 508 OFFCURVE",
"55 421 OFFCURVE",
"55 248 CURVE",
"55 82 OFFCURVE",
"129 -15 OFFCURVE",
"285 -15 CURVE"
);
},
{
closed = 1;
nodes = (
"454 595 LINE",
"446 652 LINE",
"164 606 LINE",
"173 549 LINE"
);
}
);
width = 567;
},
{
layerId = "ECACF70C-BE42-4FA5-B3A0-AFDA71FB1D31";
paths = (
{
closed = 1;
nodes = (
"469 -25 OFFCURVE",
"550 77 OFFCURVE",
"550 309 CURVE SMOOTH",
"550 479 OFFCURVE",
"497 624 OFFCURVE",
"375 700 CURVE",
"168 700 LINE",
"168 693 LINE",
"270 633 OFFCURVE",
"379 558 OFFCURVE",
"379 331 CURVE",
"379 177 OFFCURVE",
"362 117 OFFCURVE",
"298 117 CURVE",
"241 117 OFFCURVE",
"210 147 OFFCURVE",
"210 252 CURVE",
"210 357 OFFCURVE",
"241 411 OFFCURVE",
"298 411 CURVE",
"328 411 OFFCURVE",
"358 394 OFFCURVE",
"383 361 CURVE",
"380 446 LINE",
"353 495 OFFCURVE",
"310 525 OFFCURVE",
"227 525 CURVE",
"106 525 OFFCURVE",
"30 428 OFFCURVE",
"30 252 CURVE",
"30 59 OFFCURVE",
"121 -25 OFFCURVE",
"298 -25 CURVE"
);
},
{
closed = 1;
nodes = (
"559 612 LINE",
"529 699 LINE",
"178 637 LINE",
"203 541 LINE"
);
}
);
width = 589;
}
);
leftMetricsKey = o;
rightMetricsKey = o;
unicode = 00F0;
},
{
glyphname = e;
lastChange = "2016-09-02 15:39:15 +0000";
layers = (
{
anchors = (
{
name = bottom;
position = "{283, 0}";
},
{
name = ogonek;
position = "{481, 32}";
},
{
name = top;
position = "{283, 499}";
}
);
layerId = UUID0;
paths = (
{
closed = 1;
nodes = (
"355 -15 OFFCURVE",
"413 -3 OFFCURVE",
"461 20 CURVE",
"461 94 LINE",
"420 69 OFFCURVE",
"363 51 OFFCURVE",
"290 51 CURVE",
"187 51 OFFCURVE",
"128 116 OFFCURVE",
"128 237 CURVE",
"128 397 OFFCURVE",
"175 442 OFFCURVE",
"274 442 CURVE",
"368 442 OFFCURVE",
"413 393 OFFCURVE",
"417 293 CURVE",
"445 303 LINE",
"96 303 LINE",
"91 237 LINE",
"492 237 LINE",
"494 390 OFFCURVE",
"434 508 OFFCURVE",
"274 508 CURVE",
"138 508 OFFCURVE",
"55 422 OFFCURVE",
"55 250 CURVE",
"55 74 OFFCURVE",
"143 -15 OFFCURVE",
"286 -15 CURVE"
);
}
);
width = 547;
},
{
anchors = (
{
name = bottom;
position = "{301, 0}";
},
{
name = ogonek;
position = "{481, 18}";
},
{
name = top;
position = "{291, 519}";
}
);
layerId = "ECACF70C-BE42-4FA5-B3A0-AFDA71FB1D31";
paths = (
{
closed = 1;
nodes = (
"382 -15 OFFCURVE",
"439 0 OFFCURVE",
"486 18 CURVE",
"486 169 LINE",
"456 160 OFFCURVE",
"397 134 OFFCURVE",
"348 134 CURVE",
"248 134 OFFCURVE",
"211 182 OFFCURVE",
"211 269 CURVE",
"211 361 OFFCURVE",
"249 395 OFFCURVE",
"288 395 CURVE",
"342 395 OFFCURVE",
"361 360 OFFCURVE",
"363 249 CURVE",
"382 311 LINE",
"135 311 LINE",
"159 204 LINE",
"538 204 LINE",
"539 420 OFFCURVE",
"466 529 OFFCURVE",
"297 529 CURVE",
"124 529 OFFCURVE",
"30 422 OFFCURVE",
"30 244 CURVE",
"30 87 OFFCURVE",
"140 -15 OFFCURVE",
"299 -15 CURVE"
);
}
);
width = 568;
}
);
leftKerningGroup = c;
leftMetricsKey = o;
rightKerningGroup = e;
rightMetricsKey = o;
unicode = 0065;
},
{
glyphname = f;
lastChange = "2016-08-22 15:15:49 +0000";
layers = (
{
layerId = UUID0;
paths = (
{
closed = 1;
nodes = (
"198 0 LINE",
"198 433 LINE",
"335 433 LINE",
"335 499 LINE",
"198 499 LINE",
"198 527 LINE SMOOTH",
"198 643 OFFCURVE",
"253 643 OFFCURVE",
"299 643 CURVE SMOOTH",
"313 643 OFFCURVE",
"325 641 OFFCURVE",
"335 639 CURVE",
"335 703 LINE",
"321 707 OFFCURVE",
"305 709 OFFCURVE",
"287 709 CURVE SMOOTH",
"247 709 OFFCURVE",
"126 709 OFFCURVE",
"126 526 CURVE SMOOTH",
"126 499 LINE",
"40 499 LINE",
"40 433 LINE",
"126 433 LINE",
"126 0 LINE"
);
}
);
width = 375;
},
{
layerId = "ECACF70C-BE42-4FA5-B3A0-AFDA71FB1D31";
paths = (
{
closed = 1;
nodes = (
"276 0 LINE",
"276 374 LINE",
"377 374 LINE",
"377 509 LINE",
"278 509 LINE",
"278 540 LINE",
"278 565 OFFCURVE",
"291 585 OFFCURVE",
"320 585 CURVE",
"350 585 OFFCURVE",
"362 572 OFFCURVE",
"377 554 CURVE",
"377 715 LINE",
"359 721 OFFCURVE",
"325 726 OFFCURVE",
"303 726 CURVE",
"170 726 OFFCURVE",
"97 672 OFFCURVE",
"96 514 CURVE",
"96 509 LINE",
"25 509 LINE",
"25 374 LINE",
"94 374 LINE",
"94 0 LINE"
);
}
);
width = 402;
}
);
leftKerningGroup = f;
rightKerningGroup = f;
unicode = 0066;
},
{
glyphname = g;
lastChange = "2016-09-02 17:51:54 +0000";
layers = (
{
anchors = (
{
name = bottom;
position = "{290, 0}";
},
{
name = top;
position = "{311, 499}";
}
);
layerId = UUID0;
paths = (
{
closed = 1;
nodes = (
"327 -15 OFFCURVE",
"403 5 OFFCURVE",
"442 25 CURVE",
"417 50 LINE",
"417 -23 LINE SMOOTH",
"417 -73 OFFCURVE",
"399 -130 OFFCURVE",
"264 -130 CURVE SMOOTH",
"208 -130 OFFCURVE",
"162 -116 OFFCURVE",
"130 -107 CURVE",
"130 -175 LINE",
"166 -184 OFFCURVE",
"214 -198 OFFCURVE",
"272 -198 CURVE SMOOTH",
"451 -198 OFFCURVE",
"489 -100 OFFCURVE",
"489 -21 CURVE",
"489 383 LINE",
"489 472 OFFCURVE",
"395 507 OFFCURVE",
"302 507 CURVE",
"192 508 OFFCURVE",
"56 465 OFFCURVE",
"55 236 CURVE",
"55 82 OFFCURVE",
"129 -15 OFFCURVE",
"283 -15 CURVE"
);
},
{
closed = 1;
nodes = (
"174 51 OFFCURVE",
"131 127 OFFCURVE",
"131 236 CURVE",
"131 344 OFFCURVE",
"158 441 OFFCURVE",
"304 441 CURVE",
"364 441 OFFCURVE",
"417 429 OFFCURVE",
"417 373 CURVE",
"417 86 LINE",
"376 62 OFFCURVE",
"325 51 OFFCURVE",
"283 51 CURVE"
);
}
);
width = 569;
},
{
anchors = (
{
name = bottom;
position = "{303, 0}";
},
{
name = top;
position = "{333, 529}";
}
);
layerId = "ECACF70C-BE42-4FA5-B3A0-AFDA71FB1D31";
paths = (
{
closed = 1;
nodes = (
"339 -15 OFFCURVE",
"376 20 OFFCURVE",
"407 76 CURVE",
"375 95 LINE",
"375 10 LINE",
"375 -50 OFFCURVE",
"347 -85 OFFCURVE",
"272 -85 CURVE",
"193 -85 OFFCURVE",
"101 -55 OFFCURVE",
"71 -38 CURVE",
"71 -197 LINE",
"104 -219 OFFCURVE",
"175 -233 OFFCURVE",
"277 -233 CURVE",
"436 -233 OFFCURVE",
"553 -167 OFFCURVE",
"553 0 CURVE",
"553 384 LINE",
"553 471 OFFCURVE",
"475 526 OFFCURVE",
"335 526 CURVE",
"136 526 OFFCURVE",
"30 460 OFFCURVE",
"30 238 CURVE",
"30 65 OFFCURVE",
"120 -5 OFFCURVE",
"250 -15 CURVE"
);
},
{
closed = 1;
nodes = (
"255 116 OFFCURVE",
"210 166 OFFCURVE",
"210 250 CURVE",
"210 334 OFFCURVE",
"241 385 OFFCURVE",
"309 385 CURVE SMOOTH",
"341 385 OFFCURVE",
"375 378 OFFCURVE",
"375 341 CURVE",
"375 133 LINE",
"356 122 OFFCURVE",
"336 116 OFFCURVE",
"305 116 CURVE SMOOTH"
);
}
);
width = 603;
}
);
leftKerningGroup = g;
leftMetricsKey = o;
rightKerningGroup = g;
unicode = 0067;
},
{
glyphname = h;
lastChange = "2016-08-31 20:20:27 +0000";
layers = (
{
anchors = (
{
name = bottom;
position = "{284, 0}";
},
{
name = center;
position = "{112, 604}";
},
{
name = top;
position = "{113, 720}";
}
);
layerId = UUID0;
paths = (
{
closed = 1;
nodes = (
"152 0 LINE",
"152 402 LINE",
"201 429 OFFCURVE",
"248 442 OFFCURVE",
"295 442 CURVE",
"380 442 OFFCURVE",
"423 389 OFFCURVE",
"423 296 CURVE",
"423 0 LINE",
"495 0 LINE",
"495 296 LINE",
"495 441 OFFCURVE",
"426 508 OFFCURVE",
"303 508 CURVE",
"253 508 OFFCURVE",
"195 490 OFFCURVE",
"144 462 CURVE",
"152 443 LINE",
"152 720 LINE",
"80 720 LINE",
"80 0 LINE"
);
}
);
width = 575;
},
{
anchors = (
{
name = bottom;
position = "{307, -30}";
},
{
name = center;
position = "{162, 591}";
},
{
name = top;
position = "{147, 696}";
}
);
layerId = "ECACF70C-BE42-4FA5-B3A0-AFDA71FB1D31";
paths = (
{
closed = 1;
nodes = (
"240 0 LINE",
"243 361 LINE",
"247 368 OFFCURVE",
"276 377 OFFCURVE",
"302 377 CURVE",
"355 377 OFFCURVE",
"385 357 OFFCURVE",
"385 303 CURVE",
"385 0 LINE",
"567 0 LINE",
"567 347 LINE",
"567 487 OFFCURVE",
"487 525 OFFCURVE",
"383 525 CURVE",
"296 525 OFFCURVE",
"211 486 OFFCURVE",
"157 431 CURVE",
"243 390 LINE",
"243 700 LINE",
"60 700 LINE",
"60 0 LINE"
);
}
);
width = 627;
}
);
leftKerningGroup = h;
leftMetricsKey = n;
rightKerningGroup = h;
rightMetricsKey = n;
unicode = 0068;
},
{
glyphname = i;
lastChange = "2016-08-18 01:27:41 +0000";
layers = (
{
anchors = (
{
name = bottom;
position = "{118, 0}";
},
{
name = ogonek;
position = "{178, 10}";
}
);
layerId = UUID0;
paths = (
{
closed = 1;
nodes = (
"156 0 LINE",
"156 499 LINE",
"84 499 LINE",
"84 0 LINE"
);
},
{
closed = 1;
nodes = (
"160 588 LINE",
"160 667 LINE",
"80 667 LINE",
"80 588 LINE"
);
}
);
width = 240;
},
{
anchors = (
{
name = bottom;
position = "{150, 0}";
},
{
name = ogonek;
position = "{263, 11}";
}
);
layerId = "ECACF70C-BE42-4FA5-B3A0-AFDA71FB1D31";
paths = (
{
closed = 1;
nodes = (
"246 0 LINE",
"244 499 LINE",
"62 499 LINE",
"62 0 LINE"
);
},
{
closed = 1;
nodes = (
"246 569 LINE",
"246 700 LINE",
"60 700 LINE",
"60 569 LINE"
);
}
);
width = 306;
}
);
leftKerningGroup = h;
leftMetricsKey = n;
rightKerningGroup = i;
rightMetricsKey = n;
unicode = 0069;
},
{
glyphname = dotlessi;
lastChange = "2016-08-17 15:46:51 +0000";
layers = (
{
anchors = (
{
name = bottom;
position = "{116, 0}";
},
{
name = ogonek;
position = "{209, 10}";
},
{
name = top;
position = "{116, 499}";
}
);
layerId = UUID0;
paths = (
{
closed = 1;
nodes = (
"152 0 LINE",
"152 499 LINE",
"80 499 LINE",
"80 0 LINE"
);
}
);
width = 232;
},
{
anchors = (
{
name = bottom;
position = "{152, 0}";
},
{
name = ogonek;
position = "{274, 10}";
},
{
name = top;
position = "{152, 499}";
}
);
layerId = "ECACF70C-BE42-4FA5-B3A0-AFDA71FB1D31";
paths = (
{
closed = 1;
nodes = (
"244 0 LINE",
"242 499 LINE",
"60 499 LINE",
"60 0 LINE"
);
}
);
width = 304;
}
);
leftKerningGroup = h;
leftMetricsKey = n;
rightKerningGroup = i;
rightMetricsKey = n;
unicode = 0131;
},
{
glyphname = iacute;
lastChange = "2016-08-05 09:29:49 +0000";
layers = (
{
layerId = UUID0;
paths = (
{
closed = 1;
nodes = (
"171 0 LINE",
"171 499 LINE",
"99 499 LINE",
"99 0 LINE"
);
},
{
closed = 1;
nodes = (
"158 564 LINE",
"241 679 LINE",
"167 679 LINE",
"111 564 LINE"
);
}
);
width = 270;
},
{
layerId = "ECACF70C-BE42-4FA5-B3A0-AFDA71FB1D31";
paths = (
{
closed = 1;
nodes = (
"268 0 LINE",
"268 499 LINE",
"96 499 LINE",
"96 0 LINE"
);
},
{
closed = 1;
nodes = (
"226 556 LINE",
"319 673 LINE",
"202 673 LINE",
"140 556 LINE"
);
}
);
width = 359;
}
);
leftKerningGroup = h;
rightKerningGroup = i;
unicode = 00ED;
},
{
glyphname = icircumflex;
lastChange = "2016-08-05 09:29:49 +0000";
layers = (
{
layerId = UUID0;
paths = (
{
closed = 1;
nodes = (
"171 0 LINE",
"171 499 LINE",
"99 499 LINE",
"99 0 LINE"
);
},
{
closed = 1;
nodes = (
"89 564 LINE",
"135 634 LINE",
"180 564 LINE",
"236 564 LINE",
"155 684 LINE",
"114 684 LINE",
"33 564 LINE"
);
}
);
width = 270;
},
{
layerId = "ECACF70C-BE42-4FA5-B3A0-AFDA71FB1D31";
paths = (
{
closed = 1;
nodes = (
"268 0 LINE",
"268 499 LINE",
"96 499 LINE",
"96 0 LINE"
);
},
{
closed = 1;
nodes = (
"140 556 LINE",
"182 600 LINE",
"224 556 LINE",
"326 556 LINE",
"206 678 LINE",
"158 678 LINE",
"38 556 LINE"
);
}
);
width = 359;
}
);
leftKerningGroup = h;
rightKerningGroup = i;
unicode = 00EE;
},
{
glyphname = idieresis;
lastChange = "2016-08-05 09:29:49 +0000";
layers = (
{
layerId = UUID0;
paths = (
{
closed = 1;
nodes = (
"171 0 LINE",
"171 499 LINE",
"99 499 LINE",
"99 0 LINE"
);
},
{
closed = 1;
nodes = (
"100 564 LINE",
"100 643 LINE",
"21 643 LINE",
"21 564 LINE"
);
},
{
closed = 1;
nodes = (
"248 564 LINE",
"248 643 LINE",
"169 643 LINE",
"169 564 LINE"
);
}
);
width = 270;
},
{
layerId = "ECACF70C-BE42-4FA5-B3A0-AFDA71FB1D31";
paths = (
{
closed = 1;
nodes = (
"268 0 LINE",
"268 499 LINE",
"96 499 LINE",
"96 0 LINE"
);
},
{
closed = 1;
nodes = (
"157 556 LINE",
"157 665 LINE",
"37 665 LINE",
"37 556 LINE"
);
},
{
closed = 1;
nodes = (
"327 556 LINE",
"327 665 LINE",
"207 665 LINE",
"207 556 LINE"
);
}
);
width = 359;
}
);
leftKerningGroup = h;
rightKerningGroup = i;
unicode = 00EF;
},
{
glyphname = idotbelow;
lastChange = "2016-08-05 09:29:49 +0000";
layers = (
{
layerId = UUID0;
paths = (
{
closed = 1;
nodes = (
"171 0 LINE",
"171 499 LINE",
"99 499 LINE",
"99 0 LINE"
);
},
{
closed = 1;
nodes = (
"174 -129 LINE",
"174 -50 LINE",
"95 -50 LINE",
"95 -129 LINE"
);
},
{
closed = 1;
nodes = (
"175 588 LINE",
"175 667 LINE",
"95 667 LINE",
"95 588 LINE"
);
}
);
width = 270;
},
{
layerId = "ECACF70C-BE42-4FA5-B3A0-AFDA71FB1D31";
paths = (
{
closed = 1;
nodes = (
"268 0 LINE",
"268 499 LINE",
"96 499 LINE",
"96 0 LINE"
);
},
{
closed = 1;
nodes = (
"242 -159 LINE",
"242 -50 LINE",
"122 -50 LINE",
"122 -159 LINE"
);
},
{
closed = 1;
nodes = (
"270 556 LINE",
"270 687 LINE",
"94 687 LINE",
"94 556 LINE"
);
}
);
width = 359;
}
);
rightKerningGroup = i;
unicode = 1ECB;
},
{
glyphname = igrave;
lastChange = "2016-08-05 09:29:49 +0000";
layers = (
{
layerId = UUID0;
paths = (
{
closed = 1;
nodes = (
"171 0 LINE",
"171 499 LINE",
"99 499 LINE",
"99 0 LINE"
);
},
{
closed = 1;
nodes = (
"159 564 LINE",
"102 679 LINE",
"28 679 LINE",
"111 564 LINE"
);
}
);
width = 270;
},
{
layerId = "ECACF70C-BE42-4FA5-B3A0-AFDA71FB1D31";
paths = (
{
closed = 1;
nodes = (
"268 0 LINE",
"268 499 LINE",
"96 499 LINE",
"96 0 LINE"
);
},
{
closed = 1;
nodes = (
"224 563 LINE",
"162 680 LINE",
"45 680 LINE",
"138 563 LINE"
);
}
);
width = 359;
}
);
leftKerningGroup = h;
rightKerningGroup = i;
unicode = 00EC;
},
{
glyphname = ihookabove;
lastChange = "2016-08-05 09:29:49 +0000";
layers = (
{
layerId = UUID0;
paths = (
{
closed = 1;
nodes = (
"171 0 LINE",
"171 499 LINE",
"99 499 LINE",
"99 0 LINE"
);
},
{
closed = 1;
nodes = (
"150 564 LINE",
"150 588 LINE",
"187 594 OFFCURVE",
"203 615 OFFCURVE",
"203 641 CURVE SMOOTH",
"203 695 OFFCURVE",
"153 709 OFFCURVE",
"111 709 CURVE SMOOTH",
"100 709 OFFCURVE",
"90 708 OFFCURVE",
"80 707 CURVE",
"80 663 LINE",
"88 665 OFFCURVE",
"97 666 OFFCURVE",
"107 666 CURVE SMOOTH",
"137 666 OFFCURVE",
"155 656 OFFCURVE",
"155 639 CURVE SMOOTH",
"155 630 OFFCURVE",
"145 617 OFFCURVE",
"117 616 CURVE",
"117 564 LINE"
);
}
);
width = 270;
},
{
layerId = "ECACF70C-BE42-4FA5-B3A0-AFDA71FB1D31";
paths = (
{
closed = 1;
nodes = (
"268 0 LINE",
"268 499 LINE",
"96 499 LINE",
"96 0 LINE"
);
},
{
closed = 1;
nodes = (
"211 556 LINE",
"211 579 LINE",
"211 579 OFFCURVE",
"260 586 OFFCURVE",
"260 634 CURVE SMOOTH",
"260 682 OFFCURVE",
"218 706 OFFCURVE",
"168 706 CURVE SMOOTH",
"153 706 OFFCURVE",
"127 703 OFFCURVE",
"118 701 CURVE",
"118 648 LINE",
"131 651 OFFCURVE",
"141 652 OFFCURVE",
"149 652 CURVE SMOOTH",
"163 652 OFFCURVE",
"179 648 OFFCURVE",
"179 631 CURVE SMOOTH",
"179 618 OFFCURVE",
"164 615 OFFCURVE",
"153 615 CURVE",
"153 556 LINE"
);
}
);
width = 359;
}
);
rightKerningGroup = i;
unicode = 1EC9;
},
{
glyphname = imacron;
lastChange = "2016-08-05 09:29:49 +0000";
layers = (
{
layerId = UUID0;
paths = (
{
closed = 1;
nodes = (
"171 0 LINE",
"171 499 LINE",
"99 499 LINE",
"99 0 LINE"
);
},
{
closed = 1;
nodes = (
"251 576 LINE",
"251 629 LINE",
"18 629 LINE",
"18 576 LINE"
);
}
);
width = 270;
},
{
layerId = "ECACF70C-BE42-4FA5-B3A0-AFDA71FB1D31";
paths = (
{
closed = 1;
nodes = (
"268 0 LINE",
"268 499 LINE",
"96 499 LINE",
"96 0 LINE"
);
},
{
closed = 1;
nodes = (
"299 556 LINE",
"299 644 LINE",
"65 644 LINE",
"65 556 LINE"
);
}
);
width = 359;
}
);
leftKerningGroup = h;
rightKerningGroup = i;
unicode = 012B;
},
{
glyphname = iogonek;
lastChange = "2016-08-18 16:18:02 +0000";
layers = (
{
anchors = (
{
name = _ogonek;
position = "{178, 10}";
}
);
components = (
{
name = i;
}
);
layerId = UUID0;
paths = (
{
closed = 1;
nodes = (
"118 -173 OFFCURVE",
"137 -164 OFFCURVE",
"153 -155 CURVE",
"153 -92 LINE",
"145 -100 OFFCURVE",
"124 -119 OFFCURVE",
"98 -119 CURVE SMOOTH",
"76 -119 OFFCURVE",
"64 -109 OFFCURVE",
"64 -85 CURVE SMOOTH",
"64 -56 OFFCURVE",
"103 -25 OFFCURVE",
"156 0 CURVE",
"87 10 LINE",
"39 -10 OFFCURVE",
"5 -57 OFFCURVE",
"5 -90 CURVE SMOOTH",
"5 -143 OFFCURVE",
"39 -173 OFFCURVE",
"93 -173 CURVE SMOOTH"
);
}
);
width = 240;
},
{
anchors = (
{
name = _ogonek;
position = "{263, 11}";
}
);
components = (
{
name = i;
}
);
layerId = "ECACF70C-BE42-4FA5-B3A0-AFDA71FB1D31";
paths = (
{
closed = 1;
nodes = (
"205 -193 OFFCURVE",
"232 -178 OFFCURVE",
"253 -167 CURVE",
"253 -72 LINE",
"230 -93 OFFCURVE",
"207 -109 OFFCURVE",
"183 -109 CURVE SMOOTH",
"163 -109 OFFCURVE",
"148 -103 OFFCURVE",
"148 -73 CURVE SMOOTH",
"148 -46 OFFCURVE",
"192 -20 OFFCURVE",
"247 1 CURVE",
"143 32 LINE",
"62 1 OFFCURVE",
"5 -35 OFFCURVE",
"5 -92 CURVE SMOOTH",
"5 -160 OFFCURVE",
"48 -193 OFFCURVE",
"148 -193 CURVE SMOOTH"
);
}
);
width = 306;
}
);
leftKerningGroup = h;
rightKerningGroup = i;
unicode = 012F;
},
{
glyphname = j;
lastChange = "2016-08-17 15:13:16 +0000";
layers = (
{
layerId = UUID0;
paths = (
{
closed = 1;
nodes = (
"127 -193 OFFCURVE",
"184 -139 OFFCURVE",
"184 -29 CURVE SMOOTH",
"184 499 LINE",
"112 499 LINE",
"112 -25 LINE SMOOTH",
"112 -90 OFFCURVE",
"97 -124 OFFCURVE",
"10 -126 CURVE",
"10 -193 LINE"
);
},
{
closed = 1;
nodes = (
"188 588 LINE",
"188 667 LINE",
"108 667 LINE",
"108 588 LINE"
);
}
);
width = 268;
},
{
layerId = "ECACF70C-BE42-4FA5-B3A0-AFDA71FB1D31";
paths = (
{
closed = 1;
nodes = (
"143 -193 OFFCURVE",
"259 -153 OFFCURVE",
"259 7 CURVE",
"257 509 LINE",
"75 509 LINE",
"75 5 LINE",
"75 -39 OFFCURVE",
"45 -58 OFFCURVE",
"5 -49 CURVE",
"5 -193 LINE"
);
},
{
closed = 1;
nodes = (
"259 579 LINE",
"259 710 LINE",
"73 710 LINE",
"73 579 LINE"
);
}
);
width = 319;
}
);
leftKerningGroup = h;
rightKerningGroup = i;
rightMetricsKey = n;
unicode = 006A;
},
{
glyphname = dotlessj;
lastChange = "2016-08-05 09:29:49 +0000";
layers = (
{
layerId = UUID0;
paths = (
{
closed = 1;
nodes = (
"120 -193 OFFCURVE",
"177 -139 OFFCURVE",
"177 -29 CURVE SMOOTH",
"177 499 LINE",
"105 499 LINE",
"105 -25 LINE SMOOTH",
"105 -90 OFFCURVE",
"90 -124 OFFCURVE",
"3 -126 CURVE",
"3 -193 LINE"
);
}
);
width = 251;
},
{
layerId = "ECACF70C-BE42-4FA5-B3A0-AFDA71FB1D31";
paths = (
{
closed = 1;
nodes = (
"141 -193 OFFCURVE",
"257 -153 OFFCURVE",
"257 7 CURVE SMOOTH",
"257 499 LINE",
"85 499 LINE",
"85 -8 LINE SMOOTH",
"85 -61 OFFCURVE",
"40 -69 OFFCURVE",
"3 -69 CURVE",
"3 -193 LINE"
);
}
);
width = 330;
}
);
leftKerningGroup = h;
rightKerningGroup = i;
unicode = 0237;
},
{
glyphname = jcircumflex;
lastChange = "2016-08-05 09:29:49 +0000";
layers = (
{
layerId = UUID0;
paths = (
{
closed = 1;
nodes = (
"120 -193 OFFCURVE",
"177 -139 OFFCURVE",
"177 -29 CURVE SMOOTH",
"177 499 LINE",
"105 499 LINE",
"105 -25 LINE SMOOTH",
"105 -90 OFFCURVE",
"90 -124 OFFCURVE",
"3 -126 CURVE",
"3 -193 LINE"
);
},
{
closed = 1;
nodes = (
"96 564 LINE",
"141 634 LINE",
"186 564 LINE",
"242 564 LINE",
"162 684 LINE",
"120 684 LINE",
"40 564 LINE"
);
}
);
width = 251;
},
{
layerId = "ECACF70C-BE42-4FA5-B3A0-AFDA71FB1D31";
paths = (
{
closed = 1;
nodes = (
"141 -193 OFFCURVE",
"257 -153 OFFCURVE",
"257 7 CURVE SMOOTH",
"257 499 LINE",
"85 499 LINE",
"85 -8 LINE SMOOTH",
"85 -61 OFFCURVE",
"40 -69 OFFCURVE",
"3 -69 CURVE",
"3 -193 LINE"
);
},
{
closed = 1;
nodes = (
"129 556 LINE",
"171 600 LINE",
"213 556 LINE",
"315 556 LINE",
"195 678 LINE",
"147 678 LINE",
"27 556 LINE"
);
}
);
width = 324;
}
);
leftKerningGroup = h;
rightKerningGroup = i;
unicode = 0135;
},
{
glyphname = k;
lastChange = "2016-08-17 15:13:20 +0000";
layers = (
{
layerId = UUID0;
paths = (
{
closed = 1;
nodes = (
"152 240 LINE",
"445 499 LINE",
"355 499 LINE",
"136 299 LINE"
);
},
{
closed = 1;
nodes = (
"152 689 LINE",
"80 689 LINE",
"80 0 LINE",
"152 0 LINE"
);
},
{
closed = 1;
nodes = (
"123 265 LINE",
"385 0 LINE",
"481 0 LINE",
"172 311 LINE"
);
}
);
width = 511;
},
{
layerId = "ECACF70C-BE42-4FA5-B3A0-AFDA71FB1D31";
paths = (
{
closed = 1;
nodes = (
"317 196 LINE",
"594 509 LINE",
"374 509 LINE",
"202 271 LINE"
);
},
{
closed = 1;
nodes = (
"243 700 LINE",
"60 700 LINE",
"60 0 LINE",
"240 0 LINE"
);
},
{
closed = 1;
nodes = (
"217 233 LINE",
"368 0 LINE",
"596 0 LINE",
"348 358 LINE"
);
}
);
width = 621;
}
);
leftKerningGroup = h;
leftMetricsKey = n;
rightKerningGroup = k;
unicode = 006B;
},
{
glyphname = kcommaaccent;
lastChange = "2016-08-05 09:29:49 +0000";
layers = (
{
layerId = UUID0;
paths = (
{
closed = 1;
nodes = (
"164 0 LINE",
"164 152 LINE",
"226 219 LINE",
"418 0 LINE",
"513 0 LINE",
"273 270 LINE",
"486 499 LINE",
"389 499 LINE",
"164 254 LINE",
"164 689 LINE",
"92 689 LINE",
"92 0 LINE"
);
},
{
closed = 1;
nodes = (
"257 -183 OFFCURVE",
"313 -145 OFFCURVE",
"313 -49 CURVE",
"253 -49 LINE",
"253 -78 OFFCURVE",
"250 -124 OFFCURVE",
"212 -139 CURVE",
"212 -193 LINE"
);
}
);
width = 549;
},
{
layerId = "ECACF70C-BE42-4FA5-B3A0-AFDA71FB1D31";
paths = (
{
closed = 1;
nodes = (
"259 0 LINE",
"259 143 LINE",
"276 161 LINE",
"398 0 LINE",
"606 0 LINE",
"381 279 LINE",
"584 499 LINE",
"364 499 LINE",
"259 378 LINE",
"259 686 LINE",
"87 686 LINE",
"87 0 LINE"
);
},
{
closed = 1;
nodes = (
"323 -194 OFFCURVE",
"381 -130 OFFCURVE",
"379 -50 CURVE",
"284 -50 LINE",
"285 -97 OFFCURVE",
"276 -124 OFFCURVE",
"246 -129 CURVE",
"246 -194 LINE"
);
}
);
width = 644;
}
);
leftKerningGroup = h;
rightKerningGroup = k;
unicode = 0137;
},
{
glyphname = kgreenlandic;
lastChange = "2016-08-05 09:29:49 +0000";
layers = (
{
layerId = UUID0;
paths = (
{
closed = 1;
nodes = (
"164 0 LINE",
"164 152 LINE",
"226 219 LINE",
"418 0 LINE",
"513 0 LINE",
"273 270 LINE",
"486 499 LINE",
"389 499 LINE",
"164 254 LINE",
"164 499 LINE",
"92 499 LINE",
"92 0 LINE"
);
}
);
width = 549;
},
{
layerId = "ECACF70C-BE42-4FA5-B3A0-AFDA71FB1D31";
paths = (
{
closed = 1;
nodes = (
"259 0 LINE",
"259 143 LINE",
"276 161 LINE",
"398 0 LINE",
"606 0 LINE",
"381 279 LINE",
"584 499 LINE",
"364 499 LINE",
"259 378 LINE",
"259 499 LINE",
"87 499 LINE",
"87 0 LINE"
);
}
);
width = 644;
}
);
leftKerningGroup = h;
unicode = 0138;
},
{
glyphname = l;
lastChange = "2017-07-04 12:27:53 +0000";
layers = (
{
anchors = (
{
name = bottom;
position = "{116, 0}";
},
{
name = center;
position = "{256, 320}";
},
{
name = top;
position = "{116, 689}";
},
{
name = topright;
position = "{207, 499}";
}
);
layerId = UUID0;
paths = (
{
closed = 1;
nodes = (
"152 689 LINE",
"80 689 LINE",
"80 0 LINE",
"152 0 LINE"
);
}
);
width = 232;
},
{
anchors = (
{
name = bottom;
position = "{150, 0}";
},
{
name = center;
position = "{340, 389}";
},
{
name = top;
position = "{150, 667}";
},
{
name = topright;
position = "{270, 499}";
}
);
layerId = "ECACF70C-BE42-4FA5-B3A0-AFDA71FB1D31";
paths = (
{
closed = 1;
nodes = (
"240 700 LINE",
"60 700 LINE",
"60 0 LINE",
"240 0 LINE"
);
}
);
width = 300;
}
);
leftKerningGroup = h;
leftMetricsKey = n;
rightKerningGroup = i;
rightMetricsKey = n;
unicode = 006C;
},
{
glyphname = lcaron;
lastChange = "2016-08-05 09:29:49 +0000";
layers = (
{
layerId = UUID0;
paths = (
{
closed = 1;
nodes = (
"173 0 LINE",
"173 689 LINE",
"101 689 LINE",
"101 0 LINE"
);
},
{
closed = 1;
nodes = (
"251 556 OFFCURVE",
"307 594 OFFCURVE",
"307 689 CURVE",
"247 689 LINE",
"247 661 OFFCURVE",
"244 614 OFFCURVE",
"207 600 CURVE",
"207 546 LINE"
);
}
);
width = 270;
},
{
layerId = "ECACF70C-BE42-4FA5-B3A0-AFDA71FB1D31";
paths = (
{
closed = 1;
nodes = (
"273 0 LINE",
"273 689 LINE",
"101 689 LINE",
"101 0 LINE"
);
},
{
closed = 1;
nodes = (
"403 545 OFFCURVE",
"461 609 OFFCURVE",
"459 689 CURVE",
"364 689 LINE",
"365 642 OFFCURVE",
"356 615 OFFCURVE",
"326 610 CURVE",
"326 545 LINE"
);
}
);
width = 417;
}
);
leftKerningGroup = h;
rightKerningGroup = i;
unicode = 013E;
},
{
glyphname = ldot;
lastChange = "2017-07-04 12:32:10 +0000";
layers = (
{
anchors = (
{
name = bottom;
position = "{116, 0}";
},
{
name = center;
position = "{274, 329}";
},
{
name = top;
position = "{116, 689}";
},
{
name = topright;
position = "{207, 499}";
}
);
layerId = UUID0;
paths = (
{
closed = 1;
nodes = (
"152 689 LINE",
"80 689 LINE",
"80 0 LINE",
"152 0 LINE"
);
},
{
closed = 1;
nodes = (
"315 286 LINE",
"315 366 LINE",
"236 366 LINE",
"236 286 LINE"
);
}
);
width = 325;
},
{
anchors = (
{
name = bottom;
position = "{150, 0}";
},
{
name = center;
position = "{379, 349}";
},
{
name = top;
position = "{150, 667}";
},
{
name = topright;
position = "{270, 499}";
}
);
layerId = "ECACF70C-BE42-4FA5-B3A0-AFDA71FB1D31";
paths = (
{
closed = 1;
nodes = (
"240 700 LINE",
"60 700 LINE",
"60 0 LINE",
"240 0 LINE"
);
},
{
closed = 1;
nodes = (
"453 278 LINE",
"453 416 LINE",
"309 416 LINE",
"309 278 LINE"
);
}
);
width = 478;
}
);
leftKerningGroup = h;
unicode = 0140;
},
{
glyphname = lslash;
lastChange = "2016-08-05 09:29:49 +0000";
layers = (
{
layerId = UUID0;
paths = (
{
closed = 1;
nodes = (
"173 0 LINE",
"173 388 LINE",
"251 440 LINE",
"251 504 LINE",
"173 452 LINE",
"173 689 LINE",
"101 689 LINE",
"101 403 LINE",
"35 359 LINE",
"35 295 LINE",
"101 339 LINE",
"101 0 LINE"
);
}
);
width = 270;
},
{
layerId = "ECACF70C-BE42-4FA5-B3A0-AFDA71FB1D31";
paths = (
{
closed = 1;
nodes = (
"288 0 LINE",
"288 310 LINE",
"418 382 LINE",
"418 504 LINE",
"288 432 LINE",
"288 689 LINE",
"116 689 LINE",
"116 338 LINE",
"18 284 LINE",
"18 162 LINE",
"116 216 LINE",
"116 0 LINE"
);
}
);
width = 431;
}
);
unicode = 0142;
},
{
glyphname = m;
lastChange = "2016-08-22 18:23:07 +0000";
layers = (
{
anchors = (
{
name = bottom;
position = "{442, 0}";
},
{
name = top;
position = "{442, 499}";
}
);
layerId = UUID0;
paths = (
{
closed = 1;
nodes = (
"489 441 OFFCURVE",
"436 508 OFFCURVE",
"291 508 CURVE",
"216 508 OFFCURVE",
"145 492 OFFCURVE",
"80 459 CURVE",
"80 0 LINE",
"152 0 LINE",
"152 423 LINE",
"197 436 OFFCURVE",
"241 443 OFFCURVE",
"283 443 CURVE",
"403 443 OFFCURVE",
"417 372 OFFCURVE",
"417 325 CURVE",
"417 0 LINE",
"489 0 LINE",
"489 325 LINE"
);
},
{
closed = 1;
nodes = (
"466 403 LINE",
"511 432 OFFCURVE",
"555 443 OFFCURVE",
"597 443 CURVE",
"717 443 OFFCURVE",
"731 372 OFFCURVE",
"731 325 CURVE",
"731 0 LINE",
"803 0 LINE",
"803 325 LINE",
"803 441 OFFCURVE",
"750 508 OFFCURVE",
"605 508 CURVE",
"530 508 OFFCURVE",
"459 488 OFFCURVE",
"394 439 CURVE"
);
}
);
width = 883;
},
{
anchors = (
{
name = bottom;
position = "{465, 0}";
},
{
name = top;
position = "{465, 499}";
}
);
background = {
paths = (
{
closed = 1;
nodes = (
"238 0 LINE",
"238 367 LINE",
"249 370 OFFCURVE",
"283 376 OFFCURVE",
"298 376 CURVE SMOOTH",
"354 376 OFFCURVE",
"363 333 OFFCURVE",
"363 303 CURVE SMOOTH",
"363 0 LINE",
"535 0 LINE",
"535 294 LINE SMOOTH",
"535 318 OFFCURVE",
"527 353 OFFCURVE",
"522 368 CURVE",
"537 373 OFFCURVE",
"575 378 OFFCURVE",
"591 378 CURVE SMOOTH",
"649 378 OFFCURVE",
"660 333 OFFCURVE",
"660 301 CURVE SMOOTH",
"660 0 LINE",
"832 0 LINE",
"832 294 LINE SMOOTH",
"832 435 OFFCURVE",
"745 506 OFFCURVE",
"608 506 CURVE SMOOTH",
"550 506 OFFCURVE",
"473 490 OFFCURVE",
"435 477 CURVE",
"402 496 OFFCURVE",
"361 506 OFFCURVE",
"313 506 CURVE SMOOTH",
"181 506 OFFCURVE",
"70 455 OFFCURVE",
"66 454 CURVE",
"66 0 LINE"
);
}
);
};
layerId = "ECACF70C-BE42-4FA5-B3A0-AFDA71FB1D31";
paths = (
{
closed = 1;
nodes = (
"556 487 OFFCURVE",
"476 525 OFFCURVE",
"344 525 CURVE",
"253 525 OFFCURVE",
"104 489 OFFCURVE",
"60 465 CURVE",
"60 0 LINE",
"242 0 LINE",
"242 361 LINE",
"246 368 OFFCURVE",
"265 377 OFFCURVE",
"291 377 CURVE",
"344 377 OFFCURVE",
"374 357 OFFCURVE",
"374 303 CURVE",
"374 0 LINE",
"556 0 LINE",
"556 347 LINE"
);
},
{
closed = 1;
nodes = (
"556 361 LINE",
"560 368 OFFCURVE",
"579 377 OFFCURVE",
"605 377 CURVE",
"658 377 OFFCURVE",
"688 357 OFFCURVE",
"688 303 CURVE",
"688 0 LINE",
"870 0 LINE",
"870 347 LINE",
"870 487 OFFCURVE",
"790 525 OFFCURVE",
"658 525 CURVE",
"567 525 OFFCURVE",
"437 480 OFFCURVE",
"378 425 CURVE"
);
}
);
width = 930;
}
);
leftKerningGroup = m;
leftMetricsKey = n;
rightKerningGroup = h;
rightMetricsKey = n;
unicode = 006D;
},
{
glyphname = n;
lastChange = "2016-09-02 15:41:38 +0000";
layers = (
{
anchors = (
{
name = bottom;
position = "{286, 0}";
},
{
name = top;
position = "{286, 499}";
}
);
layerId = UUID0;
paths = (
{
closed = 1;
nodes = (
"80 0 LINE",
"152 0 LINE",
"152 423 LINE",
"197 436 OFFCURVE",
"241 443 OFFCURVE",
"283 443 CURVE",
"403 443 OFFCURVE",
"417 372 OFFCURVE",
"417 325 CURVE",
"417 0 LINE",
"489 0 LINE",
"489 325 LINE",
"489 441 OFFCURVE",
"436 508 OFFCURVE",
"291 508 CURVE",
"216 508 OFFCURVE",
"145 492 OFFCURVE",
"80 459 CURVE"
);
}
);
width = 569;
},
{
anchors = (
{
name = bottom;
position = "{311, 0}";
},
{
name = top;
position = "{311, 519}";
}
);
layerId = "ECACF70C-BE42-4FA5-B3A0-AFDA71FB1D31";
paths = (
{
closed = 1;
nodes = (
"60 0 LINE",
"242 0 LINE",
"242 361 LINE",
"246 368 OFFCURVE",
"275 377 OFFCURVE",
"301 377 CURVE",
"354 377 OFFCURVE",
"384 357 OFFCURVE",
"384 303 CURVE",
"384 0 LINE",
"566 0 LINE",
"566 347 LINE",
"566 487 OFFCURVE",
"476 525 OFFCURVE",
"344 525 CURVE",
"253 525 OFFCURVE",
"104 489 OFFCURVE",
"60 465 CURVE"
);
}
);
width = 626;
}
);
leftKerningGroup = m;
rightKerningGroup = h;
unicode = 006E;
},
{
glyphname = napostrophe;
lastChange = "2016-08-05 09:29:49 +0000";
layers = (
{
layerId = UUID0;
paths = (
{
closed = 1;
nodes = (
"154 0 LINE",
"154 416 LINE",
"189 426 OFFCURVE",
"234 436 OFFCURVE",
"286 436 CURVE SMOOTH",
"406 436 OFFCURVE",
"419 372 OFFCURVE",
"419 325 CURVE SMOOTH",
"419 0 LINE",
"491 0 LINE",
"491 325 LINE SMOOTH",
"491 441 OFFCURVE",
"419 508 OFFCURVE",
"293 508 CURVE SMOOTH",
"190 508 OFFCURVE",
"106 471 OFFCURVE",
"82 459 CURVE",
"82 0 LINE"
);
},
{
closed = 1;
nodes = (
"76 530 OFFCURVE",
"133 568 OFFCURVE",
"133 664 CURVE",
"73 664 LINE",
"73 635 OFFCURVE",
"70 589 OFFCURVE",
"32 574 CURVE",
"32 520 LINE"
);
}
);
width = 581;
},
{
layerId = "ECACF70C-BE42-4FA5-B3A0-AFDA71FB1D31";
paths = (
{
closed = 1;
nodes = (
"254 0 LINE",
"254 370 LINE",
"269 374 OFFCURVE",
"284 376 OFFCURVE",
"304 376 CURVE SMOOTH",
"383 376 OFFCURVE",
"388 344 OFFCURVE",
"388 321 CURVE SMOOTH",
"388 0 LINE",
"560 0 LINE",
"560 294 LINE SMOOTH",
"560 427 OFFCURVE",
"471 506 OFFCURVE",
"330 506 CURVE SMOOTH",
"194 506 OFFCURVE",
"86 448 OFFCURVE",
"82 446 CURVE",
"82 0 LINE"
);
},
{
closed = 1;
nodes = (
"112 520 OFFCURVE",
"170 584 OFFCURVE",
"168 664 CURVE",
"73 664 LINE",
"74 617 OFFCURVE",
"65 590 OFFCURVE",
"35 585 CURVE",
"35 520 LINE"
);
}
);
width = 647;
}
);
leftKerningGroup = m;
rightKerningGroup = h;
unicode = 0149;
},
{
glyphname = eng;
lastChange = "2016-08-18 17:10:30 +0000";
layers = (
{
layerId = UUID0;
paths = (
{
closed = 1;
nodes = (
"154 0 LINE",
"154 416 LINE",
"189 426 OFFCURVE",
"234 436 OFFCURVE",
"286 436 CURVE SMOOTH",
"406 436 OFFCURVE",
"419 372 OFFCURVE",
"419 325 CURVE SMOOTH",
"419 -4 LINE SMOOTH",
"419 -69 OFFCURVE",
"404 -104 OFFCURVE",
"317 -105 CURVE",
"317 -172 LINE",
"434 -172 OFFCURVE",
"491 -119 OFFCURVE",
"491 -9 CURVE SMOOTH",
"491 325 LINE SMOOTH",
"491 441 OFFCURVE",
"419 508 OFFCURVE",
"293 508 CURVE SMOOTH",
"190 508 OFFCURVE",
"106 471 OFFCURVE",
"82 459 CURVE",
"82 0 LINE"
);
}
);
width = 581;
},
{
layerId = "ECACF70C-BE42-4FA5-B3A0-AFDA71FB1D31";
paths = (
{
closed = 1;
nodes = (
"234 0 LINE",
"234 331 LINE",
"237 336 OFFCURVE",
"260 353 OFFCURVE",
"286 353 CURVE",
"339 353 OFFCURVE",
"360 323 OFFCURVE",
"360 269 CURVE",
"360 2 LINE",
"360 -51 OFFCURVE",
"315 -59 OFFCURVE",
"278 -59 CURVE",
"278 -193 LINE",
"416 -193 OFFCURVE",
"538 -160 OFFCURVE",
"538 0 CURVE",
"538 331 LINE",
"538 467 OFFCURVE",
"432 506 OFFCURVE",
"300 506 CURVE",
"209 506 OFFCURVE",
"100 450 OFFCURVE",
"56 412 CURVE",
"56 0 LINE"
);
}
);
width = 639;
}
);
leftKerningGroup = m;
rightKerningGroup = h;
unicode = 014B;
},
{
glyphname = nhookleft;
lastChange = "2016-08-18 17:13:38 +0000";
layers = (
{
anchors = (
{
name = bottom;
position = "{286, 0}";
},
{
name = top;
position = "{286, 499}";
}
);
layerId = UUID0;
paths = (
{
closed = 1;
nodes = (
"80 -61 OFFCURVE",
"65 -95 OFFCURVE",
"-22 -97 CURVE",
"-22 -164 LINE",
"95 -164 OFFCURVE",
"152 -110 OFFCURVE",
"152 0 CURVE",
"152 423 LINE",
"197 436 OFFCURVE",
"241 443 OFFCURVE",
"283 443 CURVE",
"403 443 OFFCURVE",
"417 372 OFFCURVE",
"417 325 CURVE",
"417 0 LINE",
"489 0 LINE",
"489 325 LINE",
"489 441 OFFCURVE",
"436 508 OFFCURVE",
"291 508 CURVE",
"216 508 OFFCURVE",
"145 492 OFFCURVE",
"80 459 CURVE",
"80 4 LINE"
);
}
);
width = 569;
},
{
anchors = (
{
name = bottom;
position = "{311, 0}";
},
{
name = top;
position = "{311, 499}";
}
);
layerId = "ECACF70C-BE42-4FA5-B3A0-AFDA71FB1D31";
paths = (
{
closed = 1;
nodes = (
"60 -39 OFFCURVE",
"30 -58 OFFCURVE",
"-10 -49 CURVE",
"-10 -193 LINE",
"128 -193 OFFCURVE",
"242 -153 OFFCURVE",
"242 7 CURVE",
"242 361 LINE",
"246 368 OFFCURVE",
"275 377 OFFCURVE",
"301 377 CURVE",
"354 377 OFFCURVE",
"384 357 OFFCURVE",
"384 303 CURVE",
"384 0 LINE",
"566 0 LINE",
"566 347 LINE",
"566 487 OFFCURVE",
"476 525 OFFCURVE",
"344 525 CURVE",
"253 525 OFFCURVE",
"104 489 OFFCURVE",
"60 465 CURVE",
"60 5 LINE"
);
}
);
width = 626;
}
);
unicode = 0272;
},
{
glyphname = o;
lastChange = "2016-09-07 23:13:31 +0000";
layers = (
{
anchors = (
{
name = bottom;
position = "{287, 0}";
},
{
name = center;
position = "{287, 250}";
},
{
name = ogonek;
position = "{402, 10}";
},
{
name = top;
position = "{287, 499}";
},
{
name = topright;
position = "{415, 522}";
}
);
layerId = UUID0;
paths = (
{
closed = 1;
nodes = (
"432 -15 OFFCURVE",
"514 84 OFFCURVE",
"514 248 CURVE",
"514 403 OFFCURVE",
"444 508 OFFCURVE",
"283 508 CURVE",
"137 508 OFFCURVE",
"55 421 OFFCURVE",
"55 248 CURVE",
"55 82 OFFCURVE",
"129 -15 OFFCURVE",
"285 -15 CURVE"
);
},
{
closed = 1;
nodes = (
"168 51 OFFCURVE",
"127 130 OFFCURVE",
"127 248 CURVE",
"127 357 OFFCURVE",
"164 442 OFFCURVE",
"284 442 CURVE",
"401 442 OFFCURVE",
"442 366 OFFCURVE",
"442 248 CURVE",
"442 138 OFFCURVE",
"405 51 OFFCURVE",
"284 51 CURVE"
);
}
);
width = 569;
},
{
anchors = (
{
name = bottom;
position = "{300, 0}";
},
{
name = center;
position = "{300, 250}";
},
{
name = ogonek;
position = "{447, 10}";
},
{
name = top;
position = "{300, 529}";
},
{
name = topright;
position = "{521, 490}";
}
);
layerId = "ECACF70C-BE42-4FA5-B3A0-AFDA71FB1D31";
paths = (
{
closed = 1;
nodes = (
"472 -15 OFFCURVE",
"569 75 OFFCURVE",
"569 258 CURVE",
"569 456 OFFCURVE",
"472 529 OFFCURVE",
"298 529 CURVE",
"121 529 OFFCURVE",
"30 456 OFFCURVE",
"30 258 CURVE",
"30 75 OFFCURVE",
"121 -15 OFFCURVE",
"298 -15 CURVE"
);
},
{
closed = 1;
nodes = (
"241 127 OFFCURVE",
"210 163 OFFCURVE",
"210 258 CURVE",
"210 367 OFFCURVE",
"241 389 OFFCURVE",
"298 389 CURVE",
"351 389 OFFCURVE",
"389 367 OFFCURVE",
"389 258 CURVE",
"389 165 OFFCURVE",
"351 127 OFFCURVE",
"298 127 CURVE"
);
}
);
width = 599;
}
);
leftKerningGroup = c;
rightKerningGroup = b;
unicode = 006F;
},
{
glyphname = oslash;
lastChange = "2016-08-18 17:04:57 +0000";
layers = (
{
anchors = (
{
name = top;
position = "{287, 499}";
}
);
components = (
{
name = o;
}
);
layerId = UUID0;
paths = (
{
closed = 1;
nodes = (
"536 499 LINE",
"458 499 LINE",
"37 0 LINE",
"115 0 LINE"
);
}
);
width = 574;
},
{
anchors = (
{
name = top;
position = "{307, 499}";
}
);
components = (
{
name = o;
}
);
layerId = "ECACF70C-BE42-4FA5-B3A0-AFDA71FB1D31";
paths = (
{
closed = 1;
nodes = (
"600 499 LINE",
"439 499 LINE",
"11 0 LINE",
"171 0 LINE"
);
}
);
width = 613;
}
);
leftKerningGroup = oslash;
rightKerningGroup = oslash;
unicode = 00F8;
},
{
glyphname = p;
lastChange = "2016-09-02 15:41:11 +0000";
layers = (
{
layerId = UUID0;
paths = (
{
closed = 1;
nodes = (
"430 -14 OFFCURVE",
"514 83 OFFCURVE",
"514 237 CURVE",
"514 441 OFFCURVE",
"401 508 OFFCURVE",
"282 508 CURVE",
"200 507 OFFCURVE",
"80 491 OFFCURVE",
"80 409 CURVE",
"80 -217 LINE",
"152 -217 LINE",
"152 51 LINE",
"127 26 LINE",
"166 6 OFFCURVE",
"232 -14 OFFCURVE",
"276 -14 CURVE"
);
},
{
closed = 1;
nodes = (
"234 52 OFFCURVE",
"193 63 OFFCURVE",
"152 87 CURVE",
"152 396 LINE",
"152 425 OFFCURVE",
"212 442 OFFCURVE",
"281 442 CURVE",
"411 442 OFFCURVE",
"438 345 OFFCURVE",
"438 237 CURVE",
"438 128 OFFCURVE",
"385 52 OFFCURVE",
"276 52 CURVE"
);
}
);
width = 569;
},
{
layerId = "ECACF70C-BE42-4FA5-B3A0-AFDA71FB1D31";
paths = (
{
closed = 1;
nodes = (
"501 -15 OFFCURVE",
"584 95 OFFCURVE",
"584 253 CURVE",
"584 462 OFFCURVE",
"482 529 OFFCURVE",
"317 529 CURVE",
"166 529 OFFCURVE",
"60 482 OFFCURVE",
"60 395 CURVE",
"60 -165 LINE",
"238 -165 LINE",
"238 94 LINE",
"206 38 LINE",
"252 -19 OFFCURVE",
"341 -15 OFFCURVE",
"366 -15 CURVE"
);
},
{
closed = 1;
nodes = (
"285 127 OFFCURVE",
"256 132 OFFCURVE",
"238 142 CURVE",
"238 350 LINE",
"238 367 OFFCURVE",
"248 379 OFFCURVE",
"309 379 CURVE",
"378 379 OFFCURVE",
"404 344 OFFCURVE",
"404 260 CURVE",
"404 150 OFFCURVE",
"368 127 OFFCURVE",
"303 127 CURVE"
);
}
);
width = 614;
}
);
leftMetricsKey = n;
rightKerningGroup = b;
rightMetricsKey = o;
unicode = 0070;
},
{
glyphname = thorn;
lastChange = "2016-08-18 17:06:27 +0000";
layers = (
{
layerId = UUID0;
paths = (
{
closed = 1;
nodes = (
"152 689 LINE",
"80 689 LINE",
"80 -200 LINE",
"152 -200 LINE"
);
},
{
closed = 1;
nodes = (
"127 26 LINE",
"166 6 OFFCURVE",
"232 -14 OFFCURVE",
"276 -14 CURVE",
"430 -14 OFFCURVE",
"514 83 OFFCURVE",
"514 237 CURVE",
"514 441 OFFCURVE",
"401 508 OFFCURVE",
"282 508 CURVE",
"200 507 OFFCURVE",
"80 491 OFFCURVE",
"80 409 CURVE",
"152 396 LINE",
"152 425 OFFCURVE",
"212 442 OFFCURVE",
"281 442 CURVE",
"411 442 OFFCURVE",
"438 345 OFFCURVE",
"438 237 CURVE",
"438 128 OFFCURVE",
"385 52 OFFCURVE",
"276 52 CURVE",
"234 52 OFFCURVE",
"193 63 OFFCURVE",
"152 87 CURVE"
);
}
);
width = 569;
},
{
background = {
paths = (
{
closed = 1;
nodes = (
"240 -183 LINE",
"240 2 LINE",
"254 0 OFFCURVE",
"292 -1 OFFCURVE",
"305 -1 CURVE SMOOTH",
"449 -1 OFFCURVE",
"532 88 OFFCURVE",
"532 251 CURVE SMOOTH",
"532 414 OFFCURVE",
"449 503 OFFCURVE",
"305 503 CURVE SMOOTH",
"292 503 OFFCURVE",
"254 502 OFFCURVE",
"240 500 CURVE",
"240 685 LINE",
"69 685 LINE",
"69 -183 LINE"
);
},
{
closed = 1;
nodes = (
"255 106 OFFCURVE",
"252 107 OFFCURVE",
"240 108 CURVE",
"240 394 LINE",
"252 395 OFFCURVE",
"255 396 OFFCURVE",
"273 396 CURVE",
"349 391 OFFCURVE",
"360 313 OFFCURVE",
"360 251 CURVE SMOOTH",
"360 189 OFFCURVE",
"349 111 OFFCURVE",
"273 106 CURVE"
);
}
);
};
layerId = "ECACF70C-BE42-4FA5-B3A0-AFDA71FB1D31";
paths = (
{
closed = 1;
nodes = (
"240 700 LINE",
"60 700 LINE",
"60 -178 LINE",
"240 -178 LINE"
);
},
{
closed = 1;
nodes = (
"208 28 LINE",
"254 -29 OFFCURVE",
"333 -25 OFFCURVE",
"358 -25 CURVE",
"493 -25 OFFCURVE",
"576 85 OFFCURVE",
"576 233 CURVE",
"576 438 OFFCURVE",
"474 505 OFFCURVE",
"319 505 CURVE",
"250 505 OFFCURVE",
"135 485 OFFCURVE",
"83 470 CURVE",
"240 341 LINE",
"263 351 OFFCURVE",
"294 355 OFFCURVE",
"311 355 CURVE",
"370 355 OFFCURVE",
"396 320 OFFCURVE",
"396 240 CURVE",
"396 140 OFFCURVE",
"360 117 OFFCURVE",
"305 117 CURVE",
"287 117 OFFCURVE",
"258 122 OFFCURVE",
"240 132 CURVE"
);
}
);
width = 606;
}
);
leftKerningGroup = b;
leftMetricsKey = n;
rightKerningGroup = b;
rightMetricsKey = o;
unicode = 00FE;
},
{
glyphname = q;
lastChange = "2016-08-23 11:23:36 +0000";
layers = (
{
layerId = UUID0;
paths = (
{
closed = 1;
nodes = (
"192 509 OFFCURVE",
"56 466 OFFCURVE",
"55 237 CURVE",
"55 83 OFFCURVE",
"139 -14 OFFCURVE",
"293 -14 CURVE",
"337 -14 OFFCURVE",
"403 6 OFFCURVE",
"442 26 CURVE",
"417 51 LINE",
"417 -217 LINE",
"489 -217 LINE",
"489 389 LINE",
"489 483 OFFCURVE",
"400 508 OFFCURVE",
"309 508 CURVE"
);
},
{
closed = 1;
nodes = (
"352 442 OFFCURVE",
"417 426 OFFCURVE",
"417 389 CURVE",
"417 87 LINE",
"376 63 OFFCURVE",
"335 52 OFFCURVE",
"293 52 CURVE",
"184 52 OFFCURVE",
"131 128 OFFCURVE",
"131 237 CURVE",
"131 345 OFFCURVE",
"158 442 OFFCURVE",
"302 442 CURVE"
);
}
);
width = 569;
},
{
layerId = "ECACF70C-BE42-4FA5-B3A0-AFDA71FB1D31";
paths = (
{
closed = 1;
nodes = (
"132 525 OFFCURVE",
"30 447 OFFCURVE",
"30 246 CURVE",
"30 75 OFFCURVE",
"113 -15 OFFCURVE",
"259 -15 CURVE",
"282 -15 OFFCURVE",
"362 -20 OFFCURVE",
"407 48 CURVE",
"377 104 LINE",
"377 -185 LINE",
"555 -185 LINE",
"555 374 LINE",
"555 489 OFFCURVE",
"448 525 OFFCURVE",
"308 525 CURVE"
);
},
{
closed = 1;
nodes = (
"349 376 OFFCURVE",
"377 362 OFFCURVE",
"377 333 CURVE",
"377 142 LINE",
"359 132 OFFCURVE",
"331 127 OFFCURVE",
"311 127 CURVE",
"259 127 OFFCURVE",
"210 153 OFFCURVE",
"210 259 CURVE",
"210 338 OFFCURVE",
"244 376 OFFCURVE",
"308 376 CURVE"
);
}
);
width = 615;
}
);
leftKerningGroup = c;
leftMetricsKey = o;
rightKerningGroup = h;
rightMetricsKey = n;
unicode = 0071;
},
{
glyphname = r;
lastChange = "2016-09-02 15:41:22 +0000";
layers = (
{
anchors = (
{
name = bottom;
position = "{98, 0}";
},
{
name = top;
position = "{181, 499}";
}
);
layerId = UUID0;
paths = (
{
closed = 1;
nodes = (
"152 0 LINE",
"152 424 LINE",
"213 435 OFFCURVE",
"273 446 OFFCURVE",
"342 438 CURVE",
"342 502 LINE",
"331 505 OFFCURVE",
"320 508 OFFCURVE",
"310 508 CURVE SMOOTH",
"205 508 OFFCURVE",
"104 469 OFFCURVE",
"80 459 CURVE",
"80 0 LINE"
);
}
);
width = 377;
},
{
anchors = (
{
name = bottom;
position = "{138, 0}";
},
{
name = top;
position = "{208, 519}";
}
);
background = {
paths = (
{
closed = 1;
nodes = (
"242 0 LINE",
"242 381 LINE",
"278 381 OFFCURVE",
"358 368 OFFCURVE",
"385 362 CURVE",
"385 525 LINE",
"222 521 OFFCURVE",
"77 457 OFFCURVE",
"60 450 CURVE",
"60 0 LINE"
);
}
);
};
layerId = "ECACF70C-BE42-4FA5-B3A0-AFDA71FB1D31";
paths = (
{
closed = 1;
nodes = (
"242 0 LINE",
"242 377 LINE",
"278 383 OFFCURVE",
"398 376 OFFCURVE",
"435 365 CURVE",
"435 494 LINE",
"412 513 OFFCURVE",
"369 526 OFFCURVE",
"284 526 CURVE SMOOTH",
"196 526 OFFCURVE",
"90 479 OFFCURVE",
"60 450 CURVE",
"60 0 LINE"
);
}
);
width = 450;
}
);
leftKerningGroup = r;
leftMetricsKey = n;
rightKerningGroup = f;
unicode = 0072;
},
{
glyphname = s;
lastChange = "2016-09-02 15:39:33 +0000";
layers = (
{
anchors = (
{
name = bottom;
position = "{203, 0}";
},
{
name = top;
position = "{233, 499}";
}
);
layerId = UUID0;
paths = (
{
closed = 1;
nodes = (
"307 -15 OFFCURVE",
"401 32 OFFCURVE",
"401 139 CURVE",
"401 242 OFFCURVE",
"314 265 OFFCURVE",
"247 286 CURVE",
"185 303 OFFCURVE",
"129 319 OFFCURVE",
"129 375 CURVE",
"129 420 OFFCURVE",
"180 442 OFFCURVE",
"235 442 CURVE",
"289 442 OFFCURVE",
"323 423 OFFCURVE",
"374 397 CURVE",
"374 469 LINE",
"329 489 OFFCURVE",
"291 508 OFFCURVE",
"231 508 CURVE",
"148 508 OFFCURVE",
"57 466 OFFCURVE",
"57 365 CURVE",
"57 262 OFFCURVE",
"146 241 OFFCURVE",
"224 219 CURVE",
"275 196 OFFCURVE",
"329 186 OFFCURVE",
"329 130 CURVE",
"329 83 OFFCURVE",
"283 51 OFFCURVE",
"216 51 CURVE",
"152 51 OFFCURVE",
"116 68 OFFCURVE",
"55 103 CURVE",
"55 27 LINE",
"107 0 OFFCURVE",
"149 -15 OFFCURVE",
"221 -15 CURVE"
);
}
);
width = 456;
},
{
anchors = (
{
name = bottom;
position = "{231, 0}";
},
{
name = top;
position = "{242, 519}";
}
);
layerId = "ECACF70C-BE42-4FA5-B3A0-AFDA71FB1D31";
paths = (
{
closed = 1;
nodes = (
"344 -15 OFFCURVE",
"454 26 OFFCURVE",
"458 154 CURVE",
"458 281 OFFCURVE",
"370 297 OFFCURVE",
"304 312 CURVE",
"266 322 OFFCURVE",
"235 329 OFFCURVE",
"235 359 CURVE",
"235 377 OFFCURVE",
"243 393 OFFCURVE",
"293 393 CURVE",
"352 393 OFFCURVE",
"397 363 OFFCURVE",
"440 339 CURVE",
"439 474 LINE",
"401 500 OFFCURVE",
"358 516 OFFCURVE",
"265 520 CURVE",
"171 522 OFFCURVE",
"45 478 OFFCURVE",
"45 338 CURVE",
"45 238 OFFCURVE",
"104 192 OFFCURVE",
"164 182 CURVE SMOOTH",
"218 173 OFFCURVE",
"269 161 OFFCURVE",
"269 137 CURVE",
"269 123 OFFCURVE",
"264 110 OFFCURVE",
"225 110 CURVE",
"151 110 OFFCURVE",
"82 147 OFFCURVE",
"50 174 CURVE",
"50 20 LINE",
"91 5 OFFCURVE",
"142 -15 OFFCURVE",
"214 -15 CURVE SMOOTH"
);
}
);
width = 493;
}
);
leftKerningGroup = s;
rightKerningGroup = s;
unicode = 0073;
},
{
glyphname = germandbls;
lastChange = "2016-08-23 11:21:02 +0000";
layers = (
{
layerId = UUID0;
paths = (
{
closed = 1;
nodes = (
"152 0 LINE",
"152 430 LINE SMOOTH",
"152 542 OFFCURVE",
"190 612 OFFCURVE",
"288 612 CURVE SMOOTH",
"359 612 OFFCURVE",
"423 584 OFFCURVE",
"423 510 CURVE SMOOTH",
"423 440 OFFCURVE",
"386 391 OFFCURVE",
"295 391 CURVE",
"295 328 LINE",
"371 328 OFFCURVE",
"456 271 OFFCURVE",
"456 177 CURVE SMOOTH",
"456 96 OFFCURVE",
"413 53 OFFCURVE",
"336 53 CURVE SMOOTH",
"311 53 OFFCURVE",
"281 59 OFFCURVE",
"249 71 CURVE",
"249 0 LINE",
"280 -8 OFFCURVE",
"307 -13 OFFCURVE",
"333 -13 CURVE SMOOTH",
"467 -13 OFFCURVE",
"530 74 OFFCURVE",
"530 173 CURVE SMOOTH",
"530 284 OFFCURVE",
"455 354 OFFCURVE",
"404 370 CURVE",
"451 386 OFFCURVE",
"497 437 OFFCURVE",
"497 519 CURVE SMOOTH",
"497 621 OFFCURVE",
"406 676 OFFCURVE",
"286 676 CURVE SMOOTH",
"137 676 OFFCURVE",
"80 563 OFFCURVE",
"80 423 CURVE SMOOTH",
"80 0 LINE"
);
}
);
width = 585;
},
{
background = {
paths = (
{
closed = 1;
nodes = (
"242 700 LINE",
"62 700 LINE",
"62 0 LINE",
"242 0 LINE"
);
}
);
};
layerId = "ECACF70C-BE42-4FA5-B3A0-AFDA71FB1D31";
paths = (
{
closed = 1;
nodes = (
"243 0 LINE",
"243 444 LINE SMOOTH",
"243 519 OFFCURVE",
"282 557 OFFCURVE",
"336 557 CURVE SMOOTH",
"386 557 OFFCURVE",
"412 529 OFFCURVE",
"412 494 CURVE SMOOTH",
"412 449 OFFCURVE",
"381 431 OFFCURVE",
"334 431 CURVE",
"334 287 LINE",
"390 285 OFFCURVE",
"443 270 OFFCURVE",
"443 201 CURVE SMOOTH",
"443 146 OFFCURVE",
"418 117 OFFCURVE",
"378 117 CURVE SMOOTH",
"352 117 OFFCURVE",
"320 124 OFFCURVE",
"284 146 CURVE",
"284 1 LINE",
"332 -12 OFFCURVE",
"374 -17 OFFCURVE",
"412 -16 CURVE SMOOTH",
"554 -14 OFFCURVE",
"626 76 OFFCURVE",
"626 194 CURVE SMOOTH",
"626 327 OFFCURVE",
"539 371 OFFCURVE",
"471 391 CURVE",
"510 403 OFFCURVE",
"601 447 OFFCURVE",
"601 542 CURVE SMOOTH",
"601 631 OFFCURVE",
"495 706 OFFCURVE",
"324 706 CURVE SMOOTH",
"156 706 OFFCURVE",
"60 593 OFFCURVE",
"60 442 CURVE SMOOTH",
"60 0 LINE"
);
}
);
width = 656;
}
);
leftKerningGroup = h;
leftMetricsKey = n;
rightMetricsKey = o;
unicode = 00DF;
},
{
glyphname = t;
lastChange = "2016-09-02 14:57:12 +0000";
layers = (
{
anchors = (
{
name = bottom;
position = "{174, 0}";
},
{
name = center;
position = "{154, 250}";
},
{
name = top;
position = "{144, 639}";
},
{
name = topright;
position = "{343, 499}";
}
);
layerId = UUID0;
paths = (
{
closed = 1;
nodes = (
"262 -8 OFFCURVE",
"294 -3 OFFCURVE",
"313 4 CURVE",
"313 72 LINE",
"298 65 OFFCURVE",
"274 60 OFFCURVE",
"250 60 CURVE SMOOTH",
"197 60 OFFCURVE",
"184 88 OFFCURVE",
"184 144 CURVE SMOOTH",
"184 433 LINE",
"313 433 LINE",
"313 499 LINE",
"184 499 LINE",
"184 640 LINE",
"112 640 LINE",
"112 499 LINE",
"25 499 LINE",
"25 433 LINE",
"112 433 LINE",
"112 121 LINE SMOOTH",
"112 36 OFFCURVE",
"166 -8 OFFCURVE",
"237 -8 CURVE SMOOTH"
);
}
);
width = 363;
},
{
anchors = (
{
name = bottom;
position = "{217, 0}";
},
{
name = center;
position = "{217, 250}";
},
{
name = top;
position = "{180, 639}";
},
{
name = topright;
position = "{414, 499}";
}
);
layerId = "ECACF70C-BE42-4FA5-B3A0-AFDA71FB1D31";
paths = (
{
closed = 1;
nodes = (
"321 -25 OFFCURVE",
"355 -20 OFFCURVE",
"389 -1 CURVE",
"389 152 LINE",
"371 137 OFFCURVE",
"345 127 OFFCURVE",
"326 127 CURVE SMOOTH",
"299 127 OFFCURVE",
"285 139 OFFCURVE",
"285 164 CURVE SMOOTH",
"285 374 LINE",
"389 374 LINE",
"389 509 LINE",
"285 509 LINE",
"285 647 LINE",
"93 647 LINE",
"93 509 LINE",
"25 509 LINE",
"25 374 LINE",
"93 374 LINE",
"93 147 LINE SMOOTH",
"93 38 OFFCURVE",
"151 -25 OFFCURVE",
"289 -25 CURVE SMOOTH"
);
}
);
width = 434;
}
);
leftKerningGroup = t;
rightKerningGroup = t;
unicode = 0074;
},
{
glyphname = tbar;
lastChange = "2016-08-05 09:29:49 +0000";
layers = (
{
layerId = UUID0;
paths = (
{
closed = 1;
nodes = (
"271 -8 OFFCURVE",
"293 -3 OFFCURVE",
"312 4 CURVE",
"312 72 LINE",
"298 65 OFFCURVE",
"279 60 OFFCURVE",
"255 60 CURVE SMOOTH",
"202 60 OFFCURVE",
"183 79 OFFCURVE",
"183 129 CURVE SMOOTH",
"183 244 LINE",
"297 244 LINE",
"297 304 LINE",
"183 304 LINE",
"183 433 LINE",
"312 433 LINE",
"312 499 LINE",
"183 499 LINE",
"183 640 LINE",
"111 640 LINE",
"111 499 LINE",
"24 499 LINE",
"24 433 LINE",
"111 433 LINE",
"111 304 LINE",
"37 304 LINE",
"37 244 LINE",
"111 244 LINE",
"111 133 LINE SMOOTH",
"111 5 OFFCURVE",
"205 -8 OFFCURVE",
"246 -8 CURVE SMOOTH"
);
}
);
width = 345;
},
{
layerId = "ECACF70C-BE42-4FA5-B3A0-AFDA71FB1D31";
paths = (
{
closed = 1;
nodes = (
"300 -7 OFFCURVE",
"334 -2 OFFCURVE",
"368 17 CURVE",
"368 140 LINE",
"336 121 OFFCURVE",
"314 115 OFFCURVE",
"295 115 CURVE SMOOTH",
"278 115 OFFCURVE",
"264 128 OFFCURVE",
"264 142 CURVE SMOOTH",
"264 214 LINE",
"355 214 LINE",
"355 312 LINE",
"264 312 LINE",
"264 384 LINE",
"368 384 LINE",
"368 499 LINE",
"264 499 LINE",
"264 647 LINE",
"92 647 LINE",
"92 499 LINE",
"24 499 LINE",
"24 384 LINE",
"92 384 LINE",
"92 312 LINE",
"38 312 LINE",
"38 214 LINE",
"92 214 LINE",
"92 168 LINE SMOOTH",
"92 59 OFFCURVE",
"150 -7 OFFCURVE",
"268 -7 CURVE SMOOTH"
);
}
);
width = 410;
}
);
unicode = 0167;
},
{
glyphname = u;
lastChange = "2016-09-07 23:12:13 +0000";
layers = (
{
anchors = (
{
name = bottom;
position = "{289, 0}";
},
{
name = ogonek;
position = "{410, 10}";
},
{
name = top;
position = "{289, 499}";
},
{
name = topright;
position = "{513, 522}";
}
);
layerId = UUID0;
paths = (
{
closed = 1;
nodes = (
"422 -15 OFFCURVE",
"498 56 OFFCURVE",
"498 183 CURVE",
"498 499 LINE",
"426 499 LINE",
"426 199 LINE",
"426 98 OFFCURVE",
"382 52 OFFCURVE",
"289 52 CURVE",
"195 52 OFFCURVE",
"152 98 OFFCURVE",
"152 199 CURVE",
"152 499 LINE",
"80 499 LINE",
"80 183 LINE",
"80 56 OFFCURVE",
"156 -15 OFFCURVE",
"289 -15 CURVE"
);
}
);
width = 578;
},
{
anchors = (
{
name = bottom;
position = "{306, 0}";
},
{
name = ogonek;
position = "{462, 10}";
},
{
name = top;
position = "{316, 519}";
},
{
name = topright;
position = "{601, 492}";
}
);
layerId = "ECACF70C-BE42-4FA5-B3A0-AFDA71FB1D31";
paths = (
{
closed = 1;
nodes = (
"457 -15 OFFCURVE",
"551 46 OFFCURVE",
"551 197 CURVE",
"551 509 LINE",
"382 509 LINE",
"382 208 LINE",
"382 160 OFFCURVE",
"362 135 OFFCURVE",
"312 135 CURVE",
"262 135 OFFCURVE",
"242 160 OFFCURVE",
"242 208 CURVE",
"242 509 LINE",
"60 509 LINE",
"60 197 LINE",
"60 46 OFFCURVE",
"165 -15 OFFCURVE",
"311 -15 CURVE"
);
}
);
width = 611;
}
);
leftKerningGroup = u;
leftMetricsKey = n;
rightKerningGroup = u;
rightMetricsKey = n;
unicode = 0075;
},
{
glyphname = udotbelow;
lastChange = "2016-08-05 09:29:49 +0000";
layers = (
{
layerId = UUID0;
paths = (
{
closed = 1;
nodes = (
"424 -9 OFFCURVE",
"500 71 OFFCURVE",
"500 209 CURVE SMOOTH",
"500 499 LINE",
"428 499 LINE",
"428 206 LINE SMOOTH",
"428 105 OFFCURVE",
"385 58 OFFCURVE",
"291 58 CURVE SMOOTH",
"198 58 OFFCURVE",
"154 105 OFFCURVE",
"154 206 CURVE SMOOTH",
"154 499 LINE",
"82 499 LINE",
"82 209 LINE SMOOTH",
"82 71 OFFCURVE",
"158 -9 OFFCURVE",
"291 -9 CURVE SMOOTH"
);
},
{
closed = 1;
nodes = (
"331 -128 LINE",
"331 -49 LINE",
"252 -49 LINE",
"252 -128 LINE"
);
}
);
width = 587;
},
{
layerId = "ECACF70C-BE42-4FA5-B3A0-AFDA71FB1D31";
paths = (
{
closed = 1;
nodes = (
"459 -7 OFFCURVE",
"548 60 OFFCURVE",
"548 225 CURVE SMOOTH",
"548 499 LINE",
"376 499 LINE",
"376 195 LINE SMOOTH",
"376 147 OFFCURVE",
"359 122 OFFCURVE",
"316 122 CURVE SMOOTH",
"273 122 OFFCURVE",
"256 147 OFFCURVE",
"256 195 CURVE SMOOTH",
"256 499 LINE",
"84 499 LINE",
"84 225 LINE SMOOTH",
"84 60 OFFCURVE",
"173 -7 OFFCURVE",
"316 -7 CURVE SMOOTH"
);
},
{
closed = 1;
nodes = (
"376 -159 LINE",
"376 -50 LINE",
"256 -50 LINE",
"256 -159 LINE"
);
}
);
width = 620;
}
);
leftKerningGroup = u;
rightKerningGroup = u;
unicode = 1EE5;
},
{
glyphname = uhookabove;
lastChange = "2016-08-05 09:29:49 +0000";
layers = (
{
layerId = UUID0;
paths = (
{
closed = 1;
nodes = (
"424 -9 OFFCURVE",
"500 71 OFFCURVE",
"500 209 CURVE SMOOTH",
"500 499 LINE",
"428 499 LINE",
"428 206 LINE SMOOTH",
"428 105 OFFCURVE",
"385 58 OFFCURVE",
"291 58 CURVE SMOOTH",
"198 58 OFFCURVE",
"154 105 OFFCURVE",
"154 206 CURVE SMOOTH",
"154 499 LINE",
"82 499 LINE",
"82 209 LINE SMOOTH",
"82 71 OFFCURVE",
"158 -9 OFFCURVE",
"291 -9 CURVE SMOOTH"
);
},
{
closed = 1;
nodes = (
"310 564 LINE",
"310 588 LINE",
"346 594 OFFCURVE",
"362 616 OFFCURVE",
"362 642 CURVE SMOOTH",
"362 695 OFFCURVE",
"313 710 OFFCURVE",
"271 710 CURVE SMOOTH",
"260 710 OFFCURVE",
"249 709 OFFCURVE",
"240 707 CURVE",
"240 664 LINE",
"247 665 OFFCURVE",
"256 666 OFFCURVE",
"267 666 CURVE SMOOTH",
"296 666 OFFCURVE",
"314 657 OFFCURVE",
"314 640 CURVE SMOOTH",
"314 630 OFFCURVE",
"305 617 OFFCURVE",
"277 616 CURVE",
"277 564 LINE"
);
}
);
width = 587;
},
{
layerId = "ECACF70C-BE42-4FA5-B3A0-AFDA71FB1D31";
paths = (
{
closed = 1;
nodes = (
"459 -7 OFFCURVE",
"548 60 OFFCURVE",
"548 225 CURVE SMOOTH",
"548 499 LINE",
"376 499 LINE",
"376 195 LINE SMOOTH",
"376 147 OFFCURVE",
"359 122 OFFCURVE",
"316 122 CURVE SMOOTH",
"273 122 OFFCURVE",
"256 147 OFFCURVE",
"256 195 CURVE SMOOTH",
"256 499 LINE",
"84 499 LINE",
"84 225 LINE SMOOTH",
"84 60 OFFCURVE",
"173 -7 OFFCURVE",
"316 -7 CURVE SMOOTH"
);
},
{
closed = 1;
nodes = (
"346 556 LINE",
"346 579 LINE",
"346 579 OFFCURVE",
"395 586 OFFCURVE",
"395 634 CURVE SMOOTH",
"395 682 OFFCURVE",
"353 706 OFFCURVE",
"303 706 CURVE SMOOTH",
"288 706 OFFCURVE",
"262 703 OFFCURVE",
"253 701 CURVE",
"253 648 LINE",
"266 651 OFFCURVE",
"276 652 OFFCURVE",
"284 652 CURVE SMOOTH",
"298 652 OFFCURVE",
"314 648 OFFCURVE",
"314 631 CURVE SMOOTH",
"314 618 OFFCURVE",
"299 615 OFFCURVE",
"288 615 CURVE",
"288 556 LINE"
);
}
);
width = 620;
}
);
leftKerningGroup = u;
rightKerningGroup = u;
unicode = 1EE7;
},
{
glyphname = uni021B;
lastChange = "2016-08-05 09:29:49 +0000";
layers = (
{
layerId = UUID0;
paths = (
{
closed = 1;
nodes = (
"271 -8 OFFCURVE",
"293 -3 OFFCURVE",
"312 4 CURVE",
"312 72 LINE",
"298 65 OFFCURVE",
"279 60 OFFCURVE",
"255 60 CURVE SMOOTH",
"202 60 OFFCURVE",
"183 79 OFFCURVE",
"183 129 CURVE SMOOTH",
"183 433 LINE",
"312 433 LINE",
"312 499 LINE",
"183 499 LINE",
"183 640 LINE",
"111 640 LINE",
"111 499 LINE",
"24 499 LINE",
"24 433 LINE",
"111 433 LINE",
"111 133 LINE SMOOTH",
"111 5 OFFCURVE",
"205 -8 OFFCURVE",
"246 -8 CURVE SMOOTH"
);
},
{
closed = 1;
nodes = (
"199 -183 OFFCURVE",
"255 -145 OFFCURVE",
"255 -49 CURVE",
"196 -49 LINE",
"196 -78 OFFCURVE",
"192 -124 OFFCURVE",
"155 -139 CURVE",
"155 -193 LINE"
);
}
);
width = 345;
},
{
layerId = "ECACF70C-BE42-4FA5-B3A0-AFDA71FB1D31";
paths = (
{
closed = 1;
nodes = (
"300 -7 OFFCURVE",
"334 -2 OFFCURVE",
"368 17 CURVE",
"368 140 LINE",
"336 121 OFFCURVE",
"314 115 OFFCURVE",
"295 115 CURVE SMOOTH",
"278 115 OFFCURVE",
"264 128 OFFCURVE",
"264 142 CURVE SMOOTH",
"264 384 LINE",
"368 384 LINE",
"368 499 LINE",
"264 499 LINE",
"264 647 LINE",
"92 647 LINE",
"92 499 LINE",
"24 499 LINE",
"24 384 LINE",
"92 384 LINE",
"92 168 LINE SMOOTH",
"92 59 OFFCURVE",
"150 -7 OFFCURVE",
"268 -7 CURVE SMOOTH"
);
},
{
closed = 1;
nodes = (
"225 -194 OFFCURVE",
"283 -130 OFFCURVE",
"281 -50 CURVE",
"186 -50 LINE",
"187 -97 OFFCURVE",
"178 -124 OFFCURVE",
"148 -129 CURVE",
"148 -194 LINE"
);
}
);
width = 410;
}
);
leftKerningGroup = t;
rightKerningGroup = t;
unicode = 021B;
},
{
glyphname = v;
lastChange = "2016-09-02 15:18:02 +0000";
layers = (
{
layerId = UUID0;
paths = (
{
closed = 1;
nodes = (
"319 0 LINE",
"531 499 LINE",
"459 499 LINE",
"280 58 LINE",
"296 62 LINE",
"112 499 LINE",
"35 499 LINE",
"246 0 LINE"
);
}
);
width = 566;
},
{
layerId = "ECACF70C-BE42-4FA5-B3A0-AFDA71FB1D31";
paths = (
{
closed = 1;
nodes = (
"413 0 LINE",
"624 509 LINE",
"430 509 LINE",
"313 139 LINE",
"358 139 LINE",
"217 509 LINE",
"20 509 LINE",
"231 0 LINE"
);
}
);
width = 644;
}
);
leftKerningGroup = v;
unicode = 0076;
},
{
glyphname = w;
lastChange = "2016-09-02 15:33:42 +0000";
layers = (
{
anchors = (
{
name = bottom;
position = "{399, 0}";
},
{
name = top;
position = "{399, 499}";
}
);
layerId = UUID0;
paths = (
{
closed = 1;
nodes = (
"274 0 LINE",
"402 430 LINE",
"389 442 LINE",
"522 0 LINE",
"595 0 LINE",
"761 499 LINE",
"690 499 LINE",
"551 58 LINE",
"565 58 LINE",
"432 499 LINE",
"363 499 LINE",
"231 46 LINE",
"250 54 LINE",
"111 499 LINE",
"35 499 LINE",
"201 0 LINE"
);
}
);
width = 796;
},
{
anchors = (
{
name = bottom;
position = "{421, 0}";
},
{
name = top;
position = "{421, 499}";
}
);
layerId = "ECACF70C-BE42-4FA5-B3A0-AFDA71FB1D31";
paths = (
{
closed = 1;
nodes = (
"352 0 LINE",
"434 278 LINE",
"403 278 LINE",
"489 0 LINE",
"650 0 LINE",
"820 509 LINE",
"625 509 LINE",
"529 128 LINE",
"577 128 LINE",
"484 509 LINE",
"356 509 LINE",
"259 116 LINE",
"318 116 LINE",
"217 509 LINE",
"20 509 LINE",
"191 0 LINE"
);
}
);
width = 840;
}
);
leftMetricsKey = v;
rightMetricsKey = v;
unicode = 0077;
},
{
glyphname = x;
lastChange = "2016-09-02 15:16:36 +0000";
layers = (
{
layerId = UUID0;
paths = (
{
closed = 1;
nodes = (
"237 272 LINE",
"35 0 LINE",
"116 0 LINE",
"280 218 LINE"
);
},
{
closed = 1;
nodes = (
"131 499 LINE",
"40 499 LINE",
"405 0 LINE",
"497 0 LINE"
);
},
{
closed = 1;
nodes = (
"287 218 LINE",
"495 499 LINE",
"412 499 LINE",
"247 279 LINE"
);
}
);
width = 532;
},
{
layerId = "ECACF70C-BE42-4FA5-B3A0-AFDA71FB1D31";
paths = (
{
closed = 1;
nodes = (
"253 307 LINE",
"15 0 LINE",
"205 0 LINE",
"332 195 LINE"
);
},
{
closed = 1;
nodes = (
"232 509 LINE",
"20 509 LINE",
"380 0 LINE",
"593 0 LINE"
);
},
{
closed = 1;
nodes = (
"362 195 LINE",
"605 509 LINE",
"415 509 LINE",
"283 307 LINE"
);
}
);
width = 620;
}
);
unicode = 0078;
},
{
glyphname = y;
lastChange = "2016-09-02 15:39:52 +0000";
layers = (
{
anchors = (
{
name = bottom;
position = "{398, 0}";
},
{
name = top;
position = "{275, 499}";
}
);
layerId = UUID0;
paths = (
{
closed = 1;
nodes = (
"181 -193 OFFCURVE",
"245 -167 OFFCURVE",
"291 -49 CURVE SMOOTH",
"505 499 LINE",
"433 499 LINE",
"268 73 LINE",
"283 73 LINE",
"117 499 LINE",
"35 499 LINE",
"247 -15 LINE",
"247 14 LINE",
"222 -65 OFFCURVE",
"198 -127 OFFCURVE",
"130 -127 CURVE SMOOTH",
"111 -127 OFFCURVE",
"96 -122 OFFCURVE",
"87 -118 CURVE",
"87 -184 LINE",
"97 -188 OFFCURVE",
"114 -193 OFFCURVE",
"134 -193 CURVE SMOOTH"
);
}
);
width = 540;
},
{
anchors = (
{
name = bottom;
position = "{495, 0}";
},
{
name = top;
position = "{308, 499}";
}
);
background = {
paths = (
{
closed = 1;
nodes = (
"402 0 LINE",
"593 509 LINE",
"399 509 LINE",
"302 139 LINE",
"347 139 LINE",
"226 509 LINE",
"29 509 LINE",
"220 0 LINE"
);
}
);
};
layerId = "ECACF70C-BE42-4FA5-B3A0-AFDA71FB1D31";
paths = (
{
closed = 1;
nodes = (
"276 -197 OFFCURVE",
"346 -140 OFFCURVE",
"404 10 CURVE SMOOTH",
"596 509 LINE",
"399 509 LINE",
"307 184 LINE",
"322 184 LINE",
"228 509 LINE",
"20 509 LINE",
"239 -33 LINE",
"234 75 LINE",
"226 -26 OFFCURVE",
"193 -43 OFFCURVE",
"151 -43 CURVE SMOOTH",
"131 -43 OFFCURVE",
"113 -41 OFFCURVE",
"85 -31 CURVE",
"85 -176 LINE",
"114 -190 OFFCURVE",
"155 -197 OFFCURVE",
"194 -197 CURVE SMOOTH"
);
}
);
width = 616;
}
);
leftKerningGroup = v;
leftMetricsKey = v;
rightMetricsKey = v;
unicode = 0079;
},
{
glyphname = z;
lastChange = "2016-09-02 15:33:27 +0000";
layers = (
{
anchors = (
{
name = bottom;
position = "{228, 0}";
},
{
name = top;
position = "{228, 499}";
}
);
layerId = UUID0;
paths = (
{
closed = 1;
nodes = (
"410 0 LINE",
"410 64 LINE",
"114 64 LINE",
"114 45 LINE",
"410 436 LINE",
"410 499 LINE",
"52 499 LINE",
"52 437 LINE",
"356 437 LINE",
"341 459 LINE",
"45 65 LINE",
"45 0 LINE"
);
}
);
width = 455;
},
{
anchors = (
{
name = bottom;
position = "{254, 0}";
},
{
name = top;
position = "{264, 499}";
}
);
layerId = "ECACF70C-BE42-4FA5-B3A0-AFDA71FB1D31";
paths = (
{
closed = 1;
nodes = (
"463 0 LINE",
"463 143 LINE",
"223 143 LINE",
"230 96 LINE",
"463 370 LINE",
"463 509 LINE",
"50 509 LINE",
"50 376 LINE",
"320 376 LINE",
"306 411 LINE",
"45 141 LINE",
"45 0 LINE"
);
}
);
width = 508;
}
);
rightKerningGroup = z;
unicode = 007A;
},
{
glyphname = fi;
lastChange = "2016-08-22 15:23:46 +0000";
layers = (
{
background = {
paths = (
{
closed = 1;
nodes = (
"197 0 LINE",
"197 433 LINE",
"337 433 LINE",
"337 500 LINE",
"197 500 LINE",
"197 527 LINE SMOOTH",
"197 643 OFFCURVE",
"255 643 OFFCURVE",
"301 643 CURVE SMOOTH",
"315 643 OFFCURVE",
"327 641 OFFCURVE",
"337 639 CURVE",
"337 704 LINE",
"323 707 OFFCURVE",
"307 709 OFFCURVE",
"288 709 CURVE SMOOTH",
"249 709 OFFCURVE",
"127 709 OFFCURVE",
"127 526 CURVE SMOOTH",
"127 500 LINE",
"41 500 LINE",
"41 433 LINE",
"127 433 LINE",
"127 0 LINE"
);
},
{
closed = 1;
nodes = (
"508 0 LINE",
"508 499 LINE",
"436 499 LINE",
"436 0 LINE"
);
},
{
closed = 1;
nodes = (
"512 588 LINE",
"512 667 LINE",
"432 667 LINE",
"432 588 LINE"
);
}
);
};
components = (
{
name = f;
},
{
alignment = -1;
name = i;
transform = "{1, 0, 0, 1, 354, 0}";
}
);
layerId = UUID0;
width = 594;
},
{
background = {
paths = (
{
closed = 1;
nodes = (
"282 0 LINE",
"282 378 LINE",
"383 378 LINE",
"383 499 LINE",
"284 499 LINE",
"284 538 OFFCURVE",
"304 596 OFFCURVE",
"356 596 CURVE SMOOTH",
"364 596 OFFCURVE",
"369 596 OFFCURVE",
"383 592 CURVE",
"383 695 LINE",
"365 701 OFFCURVE",
"331 706 OFFCURVE",
"309 706 CURVE SMOOTH",
"181 706 OFFCURVE",
"112 641 OFFCURVE",
"112 499 CURVE",
"41 499 LINE",
"41 378 LINE",
"110 378 LINE",
"110 0 LINE"
);
},
{
closed = 1;
nodes = (
"653 0 LINE",
"653 499 LINE",
"481 499 LINE",
"481 0 LINE"
);
},
{
closed = 1;
nodes = (
"655 556 LINE",
"655 687 LINE",
"479 687 LINE",
"479 556 LINE"
);
}
);
};
components = (
{
name = f;
},
{
alignment = -1;
name = i;
transform = "{1, 0, 0, 1, 402, 0}";
}
);
layerId = "ECACF70C-BE42-4FA5-B3A0-AFDA71FB1D31";
width = 708;
}
);
leftMetricsKey = f;
rightMetricsKey = i;
unicode = FB01;
},
{
glyphname = fl;
lastChange = "2016-08-17 15:50:16 +0000";
layers = (
{
background = {
paths = (
{
closed = 1;
nodes = (
"197 0 LINE",
"197 433 LINE",
"337 433 LINE",
"337 500 LINE",
"197 500 LINE",
"197 527 LINE SMOOTH",
"197 643 OFFCURVE",
"255 643 OFFCURVE",
"301 643 CURVE SMOOTH",
"315 643 OFFCURVE",
"327 641 OFFCURVE",
"337 639 CURVE",
"337 704 LINE",
"323 707 OFFCURVE",
"307 709 OFFCURVE",
"288 709 CURVE SMOOTH",
"249 709 OFFCURVE",
"127 709 OFFCURVE",
"127 526 CURVE SMOOTH",
"127 500 LINE",
"41 500 LINE",
"41 433 LINE",
"127 433 LINE",
"127 0 LINE"
);
},
{
closed = 1;
nodes = (
"508 0 LINE",
"508 689 LINE",
"436 689 LINE",
"436 0 LINE"
);
}
);
};
components = (
{
name = f;
},
{
alignment = -1;
name = l;
transform = "{1, 0, 0, 1, 355, 0}";
}
);
layerId = UUID0;
width = 587;
},
{
background = {
paths = (
{
closed = 1;
nodes = (
"281 0 LINE",
"281 378 LINE",
"382 378 LINE",
"382 499 LINE",
"283 499 LINE",
"283 538 OFFCURVE",
"303 596 OFFCURVE",
"355 596 CURVE SMOOTH",
"363 596 OFFCURVE",
"368 596 OFFCURVE",
"382 592 CURVE",
"382 695 LINE",
"364 701 OFFCURVE",
"330 706 OFFCURVE",
"308 706 CURVE SMOOTH",
"180 706 OFFCURVE",
"111 641 OFFCURVE",
"111 499 CURVE",
"40 499 LINE",
"40 378 LINE",
"109 378 LINE",
"109 0 LINE"
);
},
{
closed = 1;
nodes = (
"652 0 LINE",
"652 689 LINE",
"480 689 LINE",
"480 0 LINE"
);
}
);
};
components = (
{
name = f;
},
{
name = l;
transform = "{1, 0, 0, 1, 402, 0}";
}
);
layerId = "ECACF70C-BE42-4FA5-B3A0-AFDA71FB1D31";
width = 702;
}
);
rightMetricsKey = l;
unicode = FB02;
},
{
glyphname = ordfeminine;
lastChange = "2016-08-18 17:28:13 +0000";
layers = (
{
layerId = UUID0;
paths = (
{
closed = 1;
nodes = (
"228 389 OFFCURVE",
"306 400 OFFCURVE",
"306 476 CURVE SMOOTH",
"306 560 LINE SMOOTH",
"306 636 OFFCURVE",
"269 675 OFFCURVE",
"190 675 CURVE SMOOTH",
"156 675 OFFCURVE",
"124 666 OFFCURVE",
"104 658 CURVE",
"104 619 LINE",
"114 623 OFFCURVE",
"148 636 OFFCURVE",
"188 636 CURVE SMOOTH",
"239 636 OFFCURVE",
"266 612 OFFCURVE",
"266 559 CURVE",
"266 559 OFFCURVE",
"233 569 OFFCURVE",
"192 569 CURVE SMOOTH",
"125 569 OFFCURVE",
"76 549 OFFCURVE",
"76 478 CURVE SMOOTH",
"76 400 OFFCURVE",
"156 389 OFFCURVE",
"192 389 CURVE SMOOTH"
);
},
{
closed = 1;
nodes = (
"158 426 OFFCURVE",
"116 434 OFFCURVE",
"116 479 CURVE SMOOTH",
"116 529 OFFCURVE",
"166 533 OFFCURVE",
"200 533 CURVE SMOOTH",
"231 533 OFFCURVE",
"266 523 OFFCURVE",
"266 523 CURVE",
"266 477 LINE SMOOTH",
"266 434 OFFCURVE",
"227 426 OFFCURVE",
"192 426 CURVE SMOOTH"
);
}
);
width = 394;
},
{
layerId = "ECACF70C-BE42-4FA5-B3A0-AFDA71FB1D31";
paths = (
{
closed = 1;
nodes = (
"297 378 OFFCURVE",
"333 398 OFFCURVE",
"333 473 CURVE SMOOTH",
"333 554 LINE SMOOTH",
"333 632 OFFCURVE",
"285 675 OFFCURVE",
"194 675 CURVE SMOOTH",
"163 675 OFFCURVE",
"122 667 OFFCURVE",
"92 655 CURVE",
"92 583 LINE",
"122 594 OFFCURVE",
"159 600 OFFCURVE",
"187 600 CURVE SMOOTH",
"214 600 OFFCURVE",
"225 579 OFFCURVE",
"225 545 CURVE",
"216 552 OFFCURVE",
"198 558 OFFCURVE",
"163 558 CURVE SMOOTH",
"87 558 OFFCURVE",
"65 521 OFFCURVE",
"65 474 CURVE SMOOTH",
"65 407 OFFCURVE",
"113 378 OFFCURVE",
"195 378 CURVE SMOOTH"
);
},
{
closed = 1;
nodes = (
"178 447 OFFCURVE",
"171 460 OFFCURVE",
"171 477 CURVE SMOOTH",
"171 492 OFFCURVE",
"185 505 OFFCURVE",
"201 505 CURVE SMOOTH",
"213 505 OFFCURVE",
"220 502 OFFCURVE",
"227 499 CURVE",
"227 468 LINE SMOOTH",
"227 456 OFFCURVE",
"219 447 OFFCURVE",
"199 447 CURVE SMOOTH"
);
}
);
width = 407;
}
);
leftKerningGroup = ordfeminine;
rightKerningGroup = ordfeminine;
unicode = 00AA;
},
{
glyphname = ordmasculine;
lastChange = "2016-08-05 09:29:49 +0000";
layers = (
{
layerId = UUID0;
paths = (
{
closed = 1;
nodes = (
"266 389 OFFCURVE",
"336 414 OFFCURVE",
"336 532 CURVE SMOOTH",
"336 651 OFFCURVE",
"266 676 OFFCURVE",
"206 676 CURVE SMOOTH",
"147 676 OFFCURVE",
"76 651 OFFCURVE",
"76 532 CURVE SMOOTH",
"76 414 OFFCURVE",
"147 389 OFFCURVE",
"206 389 CURVE SMOOTH"
);
},
{
closed = 1;
nodes = (
"143 426 OFFCURVE",
"116 458 OFFCURVE",
"116 532 CURVE SMOOTH",
"116 607 OFFCURVE",
"143 639 OFFCURVE",
"206 639 CURVE SMOOTH",
"270 639 OFFCURVE",
"296 607 OFFCURVE",
"296 532 CURVE SMOOTH",
"296 458 OFFCURVE",
"270 426 OFFCURVE",
"206 426 CURVE SMOOTH"
);
}
);
width = 417;
},
{
layerId = "ECACF70C-BE42-4FA5-B3A0-AFDA71FB1D31";
paths = (
{
closed = 1;
nodes = (
"294 389 OFFCURVE",
"343 439 OFFCURVE",
"343 532 CURVE SMOOTH",
"343 626 OFFCURVE",
"294 676 OFFCURVE",
"209 676 CURVE SMOOTH",
"123 676 OFFCURVE",
"74 626 OFFCURVE",
"74 532 CURVE SMOOTH",
"74 439 OFFCURVE",
"123 389 OFFCURVE",
"209 389 CURVE SMOOTH"
);
},
{
closed = 1;
nodes = (
"184 459 OFFCURVE",
"170 482 OFFCURVE",
"170 532 CURVE SMOOTH",
"170 583 OFFCURVE",
"184 606 OFFCURVE",
"209 606 CURVE SMOOTH",
"233 606 OFFCURVE",
"247 583 OFFCURVE",
"247 532 CURVE SMOOTH",
"247 482 OFFCURVE",
"233 459 OFFCURVE",
"209 459 CURVE SMOOTH"
);
}
);
width = 424;
}
);
leftKerningGroup = ordfeminine;
rightKerningGroup = ordfeminine;
unicode = 00BA;
},
{
glyphname = pi;
lastChange = "2016-08-05 09:29:49 +0000";
layers = (
{
layerId = UUID0;
paths = (
{
closed = 1;
nodes = (
"208 0 LINE",
"208 433 LINE",
"414 433 LINE",
"414 0 LINE",
"480 0 LINE",
"480 433 LINE",
"589 433 LINE",
"589 499 LINE",
"33 499 LINE",
"33 433 LINE",
"142 433 LINE",
"142 0 LINE"
);
}
);
width = 622;
},
{
layerId = "ECACF70C-BE42-4FA5-B3A0-AFDA71FB1D31";
paths = (
{
closed = 1;
nodes = (
"258 0 LINE",
"258 374 LINE",
"374 374 LINE",
"374 0 LINE",
"499 0 LINE",
"499 374 LINE",
"597 374 LINE",
"597 499 LINE",
"35 499 LINE",
"35 374 LINE",
"131 374 LINE",
"131 0 LINE"
);
}
);
width = 634;
}
);
unicode = 03C0;
},
{
glyphname = zero;
lastChange = "2016-08-22 16:38:20 +0000";
layers = (
{
layerId = UUID0;
paths = (
{
closed = 1;
nodes = (
"498 -11 OFFCURVE",
"586 104 OFFCURVE",
"586 331 CURVE SMOOTH",
"586 558 OFFCURVE",
"498 673 OFFCURVE",
"323 673 CURVE SMOOTH",
"149 673 OFFCURVE",
"60 558 OFFCURVE",
"60 331 CURVE SMOOTH",
"60 104 OFFCURVE",
"149 -11 OFFCURVE",
"323 -11 CURVE SMOOTH"
);
},
{
closed = 1;
nodes = (
"234 55 OFFCURVE",
"132 86 OFFCURVE",
"132 331 CURVE SMOOTH",
"132 575 OFFCURVE",
"234 607 OFFCURVE",
"323 607 CURVE SMOOTH",
"412 607 OFFCURVE",
"514 575 OFFCURVE",
"514 331 CURVE SMOOTH",
"514 86 OFFCURVE",
"412 55 OFFCURVE",
"323 55 CURVE SMOOTH"
);
}
);
width = 646;
},
{
layerId = "ECACF70C-BE42-4FA5-B3A0-AFDA71FB1D31";
paths = (
{
closed = 1;
nodes = (
"550 -14 OFFCURVE",
"640 101 OFFCURVE",
"640 334 CURVE SMOOTH",
"640 566 OFFCURVE",
"550 682 OFFCURVE",
"337 682 CURVE SMOOTH",
"126 682 OFFCURVE",
"35 566 OFFCURVE",
"35 334 CURVE SMOOTH",
"35 101 OFFCURVE",
"126 -14 OFFCURVE",
"337 -14 CURVE SMOOTH"
);
},
{
closed = 1;
nodes = (
"288 145 OFFCURVE",
"240 171 OFFCURVE",
"240 334 CURVE SMOOTH",
"240 493 OFFCURVE",
"288 522 OFFCURVE",
"337 522 CURVE SMOOTH",
"387 522 OFFCURVE",
"436 493 OFFCURVE",
"436 334 CURVE SMOOTH",
"436 172 OFFCURVE",
"387 145 OFFCURVE",
"337 145 CURVE SMOOTH"
);
}
);
width = 675;
}
);
leftMetricsKey = O;
rightKerningGroup = zero;
rightMetricsKey = O;
unicode = 0030;
},
{
glyphname = one;
lastChange = "2016-08-22 16:38:27 +0000";
layers = (
{
layerId = UUID0;
paths = (
{
closed = 1;
nodes = (
"308 0 LINE",
"308 667 LINE",
"226 667 LINE",
"103 589 LINE",
"103 504 LINE",
"236 592 LINE",
"236 0 LINE"
);
}
);
width = 451;
},
{
layerId = "ECACF70C-BE42-4FA5-B3A0-AFDA71FB1D31";
paths = (
{
closed = 1;
nodes = (
"368 0 LINE",
"368 667 LINE",
"199 667 LINE",
"40 579 LINE",
"40 410 LINE",
"168 476 LINE",
"168 0 LINE"
);
}
);
width = 478;
}
);
leftKerningGroup = h;
rightKerningGroup = i;
unicode = 0031;
},
{
glyphname = two;
lastChange = "2016-08-22 16:51:15 +0000";
layers = (
{
layerId = UUID0;
paths = (
{
closed = 1;
nodes = (
"498 0 LINE",
"498 72 LINE",
"137 72 LINE",
"158 47 LINE",
"279 145 OFFCURVE",
"488 337 OFFCURVE",
"488 488 CURVE SMOOTH",
"488 579 OFFCURVE",
"429 676 OFFCURVE",
"265 676 CURVE SMOOTH",
"188 676 OFFCURVE",
"127 651 OFFCURVE",
"84 625 CURVE",
"84 546 LINE",
"118 570 OFFCURVE",
"179 604 OFFCURVE",
"259 604 CURVE SMOOTH",
"389 604 OFFCURVE",
"416 541 OFFCURVE",
"416 488 CURVE SMOOTH",
"416 342 OFFCURVE",
"191 147 OFFCURVE",
"77 63 CURVE",
"77 0 LINE"
);
}
);
width = 581;
},
{
layerId = "ECACF70C-BE42-4FA5-B3A0-AFDA71FB1D31";
paths = (
{
closed = 1;
nodes = (
"554 0 LINE",
"554 180 LINE",
"238 180 LINE",
"274 155 LINE",
"380 227 OFFCURVE",
"540 308 OFFCURVE",
"540 469 CURVE SMOOTH",
"540 615 OFFCURVE",
"451 682 OFFCURVE",
"309 682 CURVE SMOOTH",
"202 682 OFFCURVE",
"129 650 OFFCURVE",
"72 615 CURVE",
"72 451 LINE",
"136 502 OFFCURVE",
"184 533 OFFCURVE",
"242 533 CURVE SMOOTH",
"282 533 OFFCURVE",
"339 515 OFFCURVE",
"339 437 CURVE SMOOTH",
"339 339 OFFCURVE",
"182 196 OFFCURVE",
"67 136 CURVE",
"67 0 LINE"
);
}
);
width = 620;
}
);
unicode = 0032;
},
{
glyphname = three;
lastChange = "2016-08-30 23:46:52 +0000";
layers = (
{
layerId = UUID0;
paths = (
{
closed = 1;
nodes = (
"440 -8 OFFCURVE",
"505 94 OFFCURVE",
"505 190 CURVE SMOOTH",
"505 313 OFFCURVE",
"385 361 OFFCURVE",
"385 361 CURVE SMOOTH",
"385 361 OFFCURVE",
"471 396 OFFCURVE",
"471 496 CURVE SMOOTH",
"471 583 OFFCURVE",
"413 676 OFFCURVE",
"249 676 CURVE SMOOTH",
"188 676 OFFCURVE",
"137 661 OFFCURVE",
"97 642 CURVE",
"97 569 LINE",
"133 587 OFFCURVE",
"181 604 OFFCURVE",
"241 604 CURVE SMOOTH",
"343 604 OFFCURVE",
"399 566 OFFCURVE",
"399 496 CURVE SMOOTH",
"399 427 OFFCURVE",
"346 389 OFFCURVE",
"249 389 CURVE SMOOTH",
"173 389 LINE",
"173 320 LINE",
"246 320 LINE SMOOTH",
"367 320 OFFCURVE",
"433 275 OFFCURVE",
"433 192 CURVE SMOOTH",
"433 109 OFFCURVE",
"368 64 OFFCURVE",
"250 64 CURVE SMOOTH",
"179 64 OFFCURVE",
"122 85 OFFCURVE",
"81 108 CURVE",
"81 34 LINE",
"126 11 OFFCURVE",
"186 -8 OFFCURVE",
"259 -8 CURVE SMOOTH"
);
}
);
width = 583;
},
{
layerId = "ECACF70C-BE42-4FA5-B3A0-AFDA71FB1D31";
paths = (
{
closed = 1;
nodes = (
"385 -8 OFFCURVE",
"533 28 OFFCURVE",
"533 187 CURVE SMOOTH",
"533 273 OFFCURVE",
"480 340 OFFCURVE",
"402 362 CURVE",
"452 372 OFFCURVE",
"506 428 OFFCURVE",
"506 493 CURVE SMOOTH",
"506 637 OFFCURVE",
"368 676 OFFCURVE",
"263 676 CURVE SMOOTH",
"199 676 OFFCURVE",
"133 657 OFFCURVE",
"80 629 CURVE",
"80 484 LINE",
"162 522 OFFCURVE",
"204 528 OFFCURVE",
"244 528 CURVE SMOOTH",
"286 528 OFFCURVE",
"333 517 OFFCURVE",
"333 468 CURVE SMOOTH",
"333 441 OFFCURVE",
"314 413 OFFCURVE",
"263 413 CURVE SMOOTH",
"152 413 LINE",
"152 269 LINE",
"261 269 LINE SMOOTH",
"343 269 OFFCURVE",
"362 238 OFFCURVE",
"362 197 CURVE SMOOTH",
"362 157 OFFCURVE",
"322 136 OFFCURVE",
"264 136 CURVE SMOOTH",
"194 136 OFFCURVE",
"135 173 OFFCURVE",
"68 213 CURVE",
"68 48 LINE",
"129 17 OFFCURVE",
"199 -8 OFFCURVE",
"271 -8 CURVE SMOOTH"
);
}
);
width = 600;
}
);
unicode = 0033;
},
{
glyphname = four;
lastChange = "2016-08-22 17:24:53 +0000";
layers = (
{
layerId = UUID0;
paths = (
{
closed = 1;
nodes = (
"434 0 LINE",
"434 200 LINE",
"529 200 LINE",
"529 267 LINE",
"434 267 LINE",
"434 667 LINE",
"353 667 LINE",
"38 277 LINE",
"38 200 LINE",
"362 200 LINE",
"362 0 LINE"
);
},
{
closed = 1;
nodes = (
"362 564 LINE",
"362 267 LINE",
"118 267 LINE"
);
}
);
width = 591;
},
{
layerId = "ECACF70C-BE42-4FA5-B3A0-AFDA71FB1D31";
paths = (
{
closed = 1;
nodes = (
"512 0 LINE",
"512 170 LINE",
"592 170 LINE",
"592 316 LINE",
"512 316 LINE",
"512 667 LINE",
"331 667 LINE",
"39 302 LINE",
"39 170 LINE",
"310 170 LINE",
"310 0 LINE"
);
},
{
closed = 1;
nodes = (
"310 453 LINE",
"310 316 LINE",
"202 316 LINE"
);
}
);
width = 618;
}
);
unicode = 0034;
},
{
glyphname = five;
lastChange = "2016-08-22 16:39:42 +0000";
layers = (
{
layerId = UUID0;
paths = (
{
closed = 1;
nodes = (
"391 -8 OFFCURVE",
"506 29 OFFCURVE",
"506 204 CURVE SMOOTH",
"506 379 OFFCURVE",
"391 416 OFFCURVE",
"294 416 CURVE SMOOTH",
"220 416 OFFCURVE",
"143 399 OFFCURVE",
"93 369 CURVE",
"164 381 LINE",
"183 596 LINE",
"464 596 LINE",
"464 667 LINE",
"121 667 LINE",
"87 359 LINE",
"132 313 LINE",
"132 313 OFFCURVE",
"183 344 OFFCURVE",
"289 344 CURVE SMOOTH",
"360 344 OFFCURVE",
"435 329 OFFCURVE",
"435 204 CURVE SMOOTH",
"435 143 OFFCURVE",
"426 62 OFFCURVE",
"289 62 CURVE SMOOTH",
"191 62 OFFCURVE",
"130 91 OFFCURVE",
"103 108 CURVE",
"103 33 LINE",
"144 11 OFFCURVE",
"205 -8 OFFCURVE",
"294 -8 CURVE SMOOTH"
);
}
);
width = 566;
},
{
layerId = "ECACF70C-BE42-4FA5-B3A0-AFDA71FB1D31";
paths = (
{
closed = 1;
nodes = (
"433 -14 OFFCURVE",
"577 44 OFFCURVE",
"577 237 CURVE SMOOTH",
"577 391 OFFCURVE",
"466 464 OFFCURVE",
"336 464 CURVE SMOOTH",
"225 464 OFFCURVE",
"149 439 OFFCURVE",
"93 381 CURVE",
"216 327 LINE",
"244 498 LINE",
"518 498 LINE",
"518 668 LINE",
"124 668 LINE",
"78 363 LINE",
"162 269 LINE",
"184 281 OFFCURVE",
"234 298 OFFCURVE",
"277 298 CURVE SMOOTH",
"333 298 OFFCURVE",
"372 269 OFFCURVE",
"372 219 CURVE SMOOTH",
"372 165 OFFCURVE",
"309 145 OFFCURVE",
"248 145 CURVE SMOOTH",
"182 145 OFFCURVE",
"109 186 OFFCURVE",
"73 228 CURVE",
"73 45 LINE",
"108 16 OFFCURVE",
"189 -14 OFFCURVE",
"275 -14 CURVE SMOOTH"
);
}
);
width = 612;
}
);
rightMetricsKey = O;
unicode = 0035;
},
{
glyphname = six;
lastChange = "2016-08-22 16:43:57 +0000";
layers = (
{
layerId = UUID0;
paths = (
{
closed = 1;
nodes = (
"459 -8 OFFCURVE",
"519 113 OFFCURVE",
"519 217 CURVE",
"519 346 OFFCURVE",
"432 427 OFFCURVE",
"292 427 CURVE",
"215 427 OFFCURVE",
"150 389 OFFCURVE",
"125 372 CURVE",
"124 292 LINE",
"141 309 OFFCURVE",
"203 360 OFFCURVE",
"292 360 CURVE",
"392 360 OFFCURVE",
"447 309 OFFCURVE",
"447 218 CURVE",
"447 181 OFFCURVE",
"436 60 OFFCURVE",
"292 60 CURVE",
"204 60 OFFCURVE",
"137 99 OFFCURVE",
"137 329 CURVE",
"137 574 OFFCURVE",
"320 608 OFFCURVE",
"377 608 CURVE",
"411 608 OFFCURVE",
"441 602 OFFCURVE",
"466 596 CURVE",
"466 663 LINE",
"439 671 OFFCURVE",
"406 676 OFFCURVE",
"369 676 CURVE",
"278 676 OFFCURVE",
"65 640 OFFCURVE",
"65 305 CURVE",
"65 97 OFFCURVE",
"141 -8 OFFCURVE",
"292 -8 CURVE"
);
}
);
width = 583;
},
{
layerId = "ECACF70C-BE42-4FA5-B3A0-AFDA71FB1D31";
paths = (
{
closed = 1;
nodes = (
"503 -14 OFFCURVE",
"608 72 OFFCURVE",
"608 212 CURVE",
"608 367 OFFCURVE",
"537 440 OFFCURVE",
"375 441 CURVE",
"239 440 OFFCURVE",
"192 323 OFFCURVE",
"185 253 CURVE",
"237 190 LINE",
"250 274 OFFCURVE",
"274 301 OFFCURVE",
"335 301 CURVE",
"376 301 OFFCURVE",
"405 274 OFFCURVE",
"405 216 CURVE SMOOTH",
"405 165 OFFCURVE",
"373 146 OFFCURVE",
"329 146 CURVE",
"273 146 OFFCURVE",
"236 175 OFFCURVE",
"236 340 CURVE",
"236 438 OFFCURVE",
"254 525 OFFCURVE",
"390 525 CURVE",
"453 525 OFFCURVE",
"495 511 OFFCURVE",
"542 487 CURVE",
"542 652 LINE",
"511 667 OFFCURVE",
"455 682 OFFCURVE",
"376 682 CURVE",
"251 682 OFFCURVE",
"35 641 OFFCURVE",
"35 309 CURVE",
"35 103 OFFCURVE",
"119 -14 OFFCURVE",
"312 -14 CURVE"
);
}
);
width = 643;
}
);
unicode = 0036;
},
{
glyphname = seven;
lastChange = "2016-08-22 16:27:04 +0000";
layers = (
{
layerId = UUID0;
paths = (
{
closed = 1;
nodes = (
"236 0 LINE",
"525 600 LINE",
"525 667 LINE",
"70 667 LINE",
"70 595 LINE",
"462 595 LINE",
"455 618 LINE",
"156 0 LINE"
);
}
);
width = 574;
},
{
layerId = "ECACF70C-BE42-4FA5-B3A0-AFDA71FB1D31";
paths = (
{
closed = 1;
nodes = (
"342 0 LINE",
"556 561 LINE",
"556 667 LINE",
"66 667 LINE",
"66 486 LINE",
"385 486 LINE",
"352 530 LINE",
"123 0 LINE"
);
}
);
width = 599;
}
);
unicode = 0037;
},
{
glyphname = eight;
lastChange = "2016-08-22 16:45:10 +0000";
layers = (
{
layerId = UUID0;
paths = (
{
closed = 1;
nodes = (
"463 -8 OFFCURVE",
"523 103 OFFCURVE",
"523 198 CURVE SMOOTH",
"523 320 OFFCURVE",
"411 361 OFFCURVE",
"411 361 CURVE SMOOTH",
"411 361 OFFCURVE",
"498 395 OFFCURVE",
"498 503 CURVE SMOOTH",
"498 587 OFFCURVE",
"444 676 OFFCURVE",
"292 676 CURVE SMOOTH",
"141 676 OFFCURVE",
"86 587 OFFCURVE",
"86 503 CURVE SMOOTH",
"86 398 OFFCURVE",
"176 360 OFFCURVE",
"176 360 CURVE SMOOTH",
"176 360 OFFCURVE",
"61 321 OFFCURVE",
"61 198 CURVE SMOOTH",
"61 103 OFFCURVE",
"122 -8 OFFCURVE",
"292 -8 CURVE SMOOTH"
);
},
{
closed = 1;
nodes = (
"145 60 OFFCURVE",
"133 166 OFFCURVE",
"133 198 CURVE SMOOTH",
"133 278 OFFCURVE",
"190 322 OFFCURVE",
"292 322 CURVE SMOOTH",
"395 322 OFFCURVE",
"451 278 OFFCURVE",
"451 198 CURVE SMOOTH",
"451 166 OFFCURVE",
"440 60 OFFCURVE",
"292 60 CURVE SMOOTH"
);
},
{
closed = 1;
nodes = (
"208 388 OFFCURVE",
"158 431 OFFCURVE",
"158 503 CURVE SMOOTH",
"158 588 OFFCURVE",
"231 605 OFFCURVE",
"292 605 CURVE SMOOTH",
"353 605 OFFCURVE",
"426 588 OFFCURVE",
"426 503 CURVE SMOOTH",
"426 431 OFFCURVE",
"376 388 OFFCURVE",
"292 388 CURVE SMOOTH"
);
}
);
width = 582;
},
{
layerId = "ECACF70C-BE42-4FA5-B3A0-AFDA71FB1D31";
paths = (
{
closed = 1;
nodes = (
"518 -14 OFFCURVE",
"617 55 OFFCURVE",
"617 184 CURVE",
"617 262 OFFCURVE",
"570 311 OFFCURVE",
"504 339 CURVE",
"556 364 OFFCURVE",
"601 407 OFFCURVE",
"601 482 CURVE",
"601 621 OFFCURVE",
"510 682 OFFCURVE",
"326 682 CURVE",
"142 682 OFFCURVE",
"51 621 OFFCURVE",
"51 482 CURVE",
"51 407 OFFCURVE",
"96 364 OFFCURVE",
"148 339 CURVE",
"82 311 OFFCURVE",
"35 262 OFFCURVE",
"35 184 CURVE",
"35 55 OFFCURVE",
"134 -14 OFFCURVE",
"326 -14 CURVE"
);
},
{
closed = 1;
nodes = (
"274 137 OFFCURVE",
"248 177 OFFCURVE",
"248 222 CURVE",
"248 250 OFFCURVE",
"274 292 OFFCURVE",
"326 292 CURVE",
"378 292 OFFCURVE",
"404 250 OFFCURVE",
"404 222 CURVE",
"404 177 OFFCURVE",
"378 137 OFFCURVE",
"326 137 CURVE"
);
},
{
closed = 1;
nodes = (
"303 393 OFFCURVE",
"258 413 OFFCURVE",
"258 458 CURVE",
"258 492 OFFCURVE",
"282 531 OFFCURVE",
"326 531 CURVE",
"370 531 OFFCURVE",
"394 492 OFFCURVE",
"394 458 CURVE",
"394 413 OFFCURVE",
"349 393 OFFCURVE",
"326 393 CURVE"
);
}
);
width = 652;
}
);
unicode = 0038;
},
{
glyphname = nine;
lastChange = "2016-08-22 16:43:59 +0000";
layers = (
{
background = {
paths = (
{
closed = 1;
nodes = (
"299 -8 OFFCURVE",
"512 28 OFFCURVE",
"512 362 CURVE SMOOTH",
"512 570 OFFCURVE",
"436 676 OFFCURVE",
"285 676 CURVE SMOOTH",
"118 676 OFFCURVE",
"58 555 OFFCURVE",
"58 451 CURVE SMOOTH",
"58 321 OFFCURVE",
"145 241 OFFCURVE",
"285 241 CURVE SMOOTH",
"362 241 OFFCURVE",
"411 267 OFFCURVE",
"435 285 CURVE",
"413 75 OFFCURVE",
"257 60 OFFCURVE",
"200 60 CURVE SMOOTH",
"166 60 OFFCURVE",
"135 65 OFFCURVE",
"111 72 CURVE",
"111 4 LINE",
"138 -3 OFFCURVE",
"171 -8 OFFCURVE",
"208 -8 CURVE SMOOTH"
);
},
{
closed = 1;
nodes = (
"185 308 OFFCURVE",
"130 359 OFFCURVE",
"130 450 CURVE SMOOTH",
"130 487 OFFCURVE",
"141 608 OFFCURVE",
"285 608 CURVE SMOOTH",
"331 608 OFFCURVE",
"438 608 OFFCURVE",
"440 365 CURVE",
"423 347 OFFCURVE",
"374 308 OFFCURVE",
"285 308 CURVE SMOOTH"
);
}
);
};
layerId = UUID0;
paths = (
{
closed = 1;
nodes = (
"306 -8 OFFCURVE",
"519 28 OFFCURVE",
"519 363 CURVE",
"519 571 OFFCURVE",
"443 676 OFFCURVE",
"292 676 CURVE",
"125 676 OFFCURVE",
"65 555 OFFCURVE",
"65 451 CURVE",
"65 322 OFFCURVE",
"152 241 OFFCURVE",
"292 241 CURVE",
"369 241 OFFCURVE",
"434 279 OFFCURVE",
"459 296 CURVE",
"460 376 LINE",
"443 359 OFFCURVE",
"381 308 OFFCURVE",
"292 308 CURVE",
"192 308 OFFCURVE",
"137 359 OFFCURVE",
"137 450 CURVE",
"137 487 OFFCURVE",
"148 608 OFFCURVE",
"292 608 CURVE",
"380 608 OFFCURVE",
"447 569 OFFCURVE",
"447 339 CURVE",
"447 94 OFFCURVE",
"264 60 OFFCURVE",
"207 60 CURVE",
"173 60 OFFCURVE",
"143 66 OFFCURVE",
"118 72 CURVE",
"118 5 LINE",
"145 -3 OFFCURVE",
"178 -8 OFFCURVE",
"215 -8 CURVE"
);
}
);
width = 587;
},
{
layerId = "ECACF70C-BE42-4FA5-B3A0-AFDA71FB1D31";
paths = (
{
closed = 1;
nodes = (
"392 -14 OFFCURVE",
"608 27 OFFCURVE",
"608 359 CURVE",
"608 565 OFFCURVE",
"524 682 OFFCURVE",
"310 682 CURVE SMOOTH",
"140 682 OFFCURVE",
"35 596 OFFCURVE",
"35 456 CURVE",
"35 301 OFFCURVE",
"106 228 OFFCURVE",
"268 227 CURVE",
"404 228 OFFCURVE",
"451 345 OFFCURVE",
"458 415 CURVE",
"406 478 LINE",
"393 394 OFFCURVE",
"369 367 OFFCURVE",
"309 367 CURVE SMOOTH",
"267 367 OFFCURVE",
"238 394 OFFCURVE",
"238 452 CURVE SMOOTH",
"238 503 OFFCURVE",
"270 522 OFFCURVE",
"310 522 CURVE SMOOTH",
"370 522 OFFCURVE",
"407 493 OFFCURVE",
"407 328 CURVE",
"407 230 OFFCURVE",
"389 143 OFFCURVE",
"253 143 CURVE",
"190 143 OFFCURVE",
"148 157 OFFCURVE",
"101 181 CURVE",
"101 16 LINE",
"132 1 OFFCURVE",
"188 -14 OFFCURVE",
"267 -14 CURVE"
);
}
);
width = 646;
}
);
unicode = 0039;
},
{
glyphname = zero.inferior;
lastChange = "2017-07-04 14:13:19 +0000";
layers = (
{
background = {
paths = (
{
closed = 1;
nodes = (
"281 -155 OFFCURVE",
"329 -94 OFFCURVE",
"329 28 CURVE SMOOTH",
"329 150 OFFCURVE",
"281 212 OFFCURVE",
"188 212 CURVE SMOOTH",
"94 212 OFFCURVE",
"46 150 OFFCURVE",
"46 28 CURVE SMOOTH",
"46 -94 OFFCURVE",
"94 -155 OFFCURVE",
"188 -155 CURVE SMOOTH"
);
},
{
closed = 1;
nodes = (
"140 -120 OFFCURVE",
"85 -103 OFFCURVE",
"85 28 CURVE SMOOTH",
"85 159 OFFCURVE",
"140 176 OFFCURVE",
"188 176 CURVE SMOOTH",
"235 176 OFFCURVE",
"290 159 OFFCURVE",
"290 28 CURVE SMOOTH",
"290 -103 OFFCURVE",
"235 -120 OFFCURVE",
"188 -120 CURVE SMOOTH"
);
}
);
};
components = (
{
name = zero.dnom;
transform = "{1, 0, 0, 1, 0, -151}";
}
);
layerId = UUID0;
width = 379;
},
{
background = {
paths = (
{
closed = 1;
nodes = (
"284 -155 OFFCURVE",
"332 -93 OFFCURVE",
"332 29 CURVE SMOOTH",
"332 150 OFFCURVE",
"284 213 OFFCURVE",
"187 213 CURVE SMOOTH",
"91 213 OFFCURVE",
"42 150 OFFCURVE",
"42 29 CURVE SMOOTH",
"42 -93 OFFCURVE",
"91 -155 OFFCURVE",
"187 -155 CURVE SMOOTH"
);
},
{
closed = 1;
nodes = (
"163 -75 OFFCURVE",
"135 -60 OFFCURVE",
"135 29 CURVE SMOOTH",
"135 118 OFFCURVE",
"163 134 OFFCURVE",
"187 134 CURVE SMOOTH",
"213 134 OFFCURVE",
"241 118 OFFCURVE",
"241 29 CURVE SMOOTH",
"241 -60 OFFCURVE",
"213 -75 OFFCURVE",
"187 -75 CURVE SMOOTH"
);
}
);
};
components = (
{
name = zero.dnom;
transform = "{1, 0, 0, 1, 0, -140}";
}
);
layerId = "ECACF70C-BE42-4FA5-B3A0-AFDA71FB1D31";
width = 380;
}
);
leftKerningGroup = six.inferior;
rightKerningGroup = two.inferior;
unicode = 2080;
},
{
glyphname = one.inferior;
lastChange = "2016-08-31 15:16:36 +0000";
layers = (
{
background = {
paths = (
{
closed = 1;
nodes = (
"163 -149 LINE",
"163 209 LINE",
"119 209 LINE",
"53 167 LINE",
"53 121 LINE",
"125 168 LINE",
"125 -149 LINE"
);
}
);
};
components = (
{
name = one.dnom;
transform = "{1, 0, 0, 1, 0, -150}";
}
);
layerId = UUID0;
width = 234;
},
{
background = {
paths = (
{
closed = 1;
nodes = (
"195 -150 LINE",
"195 209 LINE",
"119 209 LINE",
"44 162 LINE",
"44 71 LINE",
"102 106 LINE",
"102 -150 LINE"
);
}
);
};
components = (
{
name = one.dnom;
transform = "{1, 0, 0, 1, 0, -150}";
}
);
layerId = "ECACF70C-BE42-4FA5-B3A0-AFDA71FB1D31";
width = 250;
}
);
rightKerningGroup = one.inferior;
unicode = 2081;
},
{
glyphname = two.inferior;
lastChange = "2016-08-31 15:16:43 +0000";
layers = (
{
background = {
paths = (
{
closed = 1;
nodes = (
"279 -149 LINE",
"279 -111 LINE",
"117 -111 LINE",
"182 -58 OFFCURVE",
"274 32 OFFCURVE",
"274 113 CURVE SMOOTH",
"274 161 OFFCURVE",
"242 213 OFFCURVE",
"154 213 CURVE SMOOTH",
"113 213 OFFCURVE",
"80 200 OFFCURVE",
"57 186 CURVE",
"57 144 LINE",
"75 157 OFFCURVE",
"108 175 OFFCURVE",
"151 175 CURVE SMOOTH",
"220 175 OFFCURVE",
"235 141 OFFCURVE",
"235 113 CURVE SMOOTH",
"235 34 OFFCURVE",
"114 -71 OFFCURVE",
"53 -116 CURVE",
"53 -149 LINE"
);
}
);
};
components = (
{
name = two.dnom;
transform = "{1, 0, 0, 1, 0, -150}";
}
);
layerId = UUID0;
width = 328;
},
{
background = {
paths = (
{
closed = 1;
nodes = (
"295 -150 LINE",
"295 -67 LINE",
"190 -67 LINE",
"234 -28 OFFCURVE",
"293 38 OFFCURVE",
"293 99 CURVE SMOOTH",
"293 155 OFFCURVE",
"259 214 OFFCURVE",
"163 214 CURVE SMOOTH",
"121 214 OFFCURVE",
"82 197 OFFCURVE",
"51 178 CURVE",
"51 84 LINE",
"86 112 OFFCURVE",
"125 128 OFFCURVE",
"154 128 CURVE SMOOTH",
"186 128 OFFCURVE",
"201 113 OFFCURVE",
"201 92 CURVE SMOOTH",
"201 39 OFFCURVE",
"100 -39 OFFCURVE",
"49 -77 CURVE",
"49 -150 LINE"
);
}
);
};
components = (
{
name = two.dnom;
transform = "{1, 0, 0, 1, 0, -150}";
}
);
layerId = "ECACF70C-BE42-4FA5-B3A0-AFDA71FB1D31";
width = 339;
}
);
rightKerningGroup = two.inferior;
unicode = 2082;
},
{
glyphname = three.inferior;
lastChange = "2016-08-31 15:16:57 +0000";
layers = (
{
background = {
paths = (
{
closed = 1;
nodes = (
"246 -154 OFFCURVE",
"281 -99 OFFCURVE",
"281 -47 CURVE SMOOTH",
"281 19 OFFCURVE",
"217 44 OFFCURVE",
"217 44 CURVE SMOOTH",
"217 44 OFFCURVE",
"263 63 OFFCURVE",
"263 117 CURVE SMOOTH",
"263 164 OFFCURVE",
"232 213 OFFCURVE",
"144 213 CURVE SMOOTH",
"111 213 OFFCURVE",
"84 205 OFFCURVE",
"62 195 CURVE",
"62 156 LINE",
"81 166 OFFCURVE",
"107 175 OFFCURVE",
"139 175 CURVE SMOOTH",
"194 175 OFFCURVE",
"224 154 OFFCURVE",
"224 117 CURVE SMOOTH",
"224 80 OFFCURVE",
"196 59 OFFCURVE",
"144 59 CURVE SMOOTH",
"103 59 LINE",
"103 22 LINE",
"142 22 LINE SMOOTH",
"207 22 OFFCURVE",
"243 -2 OFFCURVE",
"243 -46 CURVE SMOOTH",
"243 -91 OFFCURVE",
"208 -115 OFFCURVE",
"144 -115 CURVE SMOOTH",
"106 -115 OFFCURVE",
"75 -104 OFFCURVE",
"53 -92 CURVE",
"53 -131 LINE",
"78 -144 OFFCURVE",
"110 -154 OFFCURVE",
"149 -154 CURVE SMOOTH"
);
}
);
};
components = (
{
name = three.dnom;
transform = "{1, 0, 0, 1, 0, -150}";
}
);
layerId = UUID0;
width = 323;
},
{
background = {
paths = (
{
closed = 1;
nodes = (
"220 -155 OFFCURVE",
"300 -136 OFFCURVE",
"300 -50 CURVE SMOOTH",
"300 -4 OFFCURVE",
"271 32 OFFCURVE",
"229 44 CURVE",
"256 49 OFFCURVE",
"285 79 OFFCURVE",
"285 114 CURVE SMOOTH",
"285 192 OFFCURVE",
"211 213 OFFCURVE",
"155 213 CURVE SMOOTH",
"120 213 OFFCURVE",
"85 202 OFFCURVE",
"57 187 CURVE",
"57 109 LINE",
"101 130 OFFCURVE",
"123 128 OFFCURVE",
"145 128 CURVE SMOOTH",
"167 128 OFFCURVE",
"192 119 OFFCURVE",
"192 101 CURVE SMOOTH",
"192 86 OFFCURVE",
"182 71 OFFCURVE",
"155 71 CURVE SMOOTH",
"95 71 LINE",
"95 5 LINE",
"154 5 LINE SMOOTH",
"198 5 OFFCURVE",
"208 -17 OFFCURVE",
"208 -35 CURVE SMOOTH",
"208 -56 OFFCURVE",
"187 -72 OFFCURVE",
"155 -72 CURVE SMOOTH",
"125 -72 OFFCURVE",
"86 -58 OFFCURVE",
"50 -36 CURVE",
"50 -125 LINE",
"83 -141 OFFCURVE",
"120 -155 OFFCURVE",
"159 -155 CURVE SMOOTH"
);
}
);
};
components = (
{
name = three.dnom;
transform = "{1, 0, 0, 1, 0, -150}";
}
);
layerId = "ECACF70C-BE42-4FA5-B3A0-AFDA71FB1D31";
width = 335;
}
);
rightKerningGroup = two.inferior;
unicode = 2083;
},
{
glyphname = four.inferior;
lastChange = "2016-08-31 15:17:05 +0000";
layers = (
{
background = {
paths = (
{
closed = 1;
nodes = (
"242 -149 LINE",
"242 -42 LINE",
"293 -42 LINE",
"293 -6 LINE",
"242 -6 LINE",
"242 209 LINE",
"199 209 LINE",
"29 -1 LINE",
"29 -42 LINE",
"203 -42 LINE",
"203 -149 LINE"
);
},
{
closed = 1;
nodes = (
"203 153 LINE",
"203 -6 LINE",
"72 -6 LINE"
);
}
);
};
components = (
{
name = four.dnom;
transform = "{1, 0, 0, 1, 0, -150}";
}
);
layerId = UUID0;
width = 328;
},
{
background = {
paths = (
{
closed = 1;
nodes = (
"263 -150 LINE",
"263 -59 LINE",
"306 -59 LINE",
"306 20 LINE",
"263 20 LINE",
"263 209 LINE",
"182 209 LINE",
"25 12 LINE",
"25 -59 LINE",
"171 -59 LINE",
"171 -150 LINE"
);
},
{
closed = 1;
nodes = (
"171 83 LINE",
"171 20 LINE",
"123 20 LINE"
);
}
);
};
components = (
{
name = four.dnom;
transform = "{1, 0, 0, 1, 0, -150}";
}
);
layerId = "ECACF70C-BE42-4FA5-B3A0-AFDA71FB1D31";
width = 343;
}
);
rightKerningGroup = one.inferior;
unicode = 2084;
},
{
glyphname = five.inferior;
lastChange = "2016-08-31 15:17:13 +0000";
layers = (
{
background = {
paths = (
{
closed = 1;
nodes = (
"218 -154 OFFCURVE",
"280 -134 OFFCURVE",
"280 -40 CURVE SMOOTH",
"280 54 OFFCURVE",
"218 74 OFFCURVE",
"166 74 CURVE SMOOTH",
"137 74 OFFCURVE",
"114 69 OFFCURVE",
"96 64 CURVE",
"106 170 LINE",
"257 170 LINE",
"257 209 LINE",
"73 209 LINE",
"55 43 LINE",
"79 18 LINE",
"79 18 OFFCURVE",
"106 35 OFFCURVE",
"163 35 CURVE SMOOTH",
"201 35 OFFCURVE",
"242 27 OFFCURVE",
"242 -40 CURVE SMOOTH",
"242 -73 OFFCURVE",
"237 -116 OFFCURVE",
"163 -116 CURVE SMOOTH",
"111 -116 OFFCURVE",
"78 -101 OFFCURVE",
"63 -92 CURVE",
"63 -132 LINE",
"85 -144 OFFCURVE",
"118 -154 OFFCURVE",
"166 -154 CURVE SMOOTH"
);
}
);
};
components = (
{
name = five.dnom;
transform = "{1, 0, 0, 1, 0, -150}";
}
);
layerId = UUID0;
width = 319;
},
{
background = {
paths = (
{
closed = 1;
nodes = (
"232 -155 OFFCURVE",
"297 -131 OFFCURVE",
"297 -38 CURVE SMOOTH",
"297 56 OFFCURVE",
"247 96 OFFCURVE",
"170 96 CURVE SMOOTH",
"160 96 OFFCURVE",
"152 96 OFFCURVE",
"144 95 CURVE",
"146 126 LINE",
"278 126 LINE",
"278 209 LINE",
"66 209 LINE",
"46 35 LINE",
"97 -2 LINE",
"97 -2 OFFCURVE",
"123 15 OFFCURVE",
"162 14 CURVE SMOOTH",
"186 14 OFFCURVE",
"205 0 OFFCURVE",
"205 -30 CURVE SMOOTH",
"205 -49 OFFCURVE",
"192 -73 OFFCURVE",
"158 -73 CURVE SMOOTH",
"122 -73 OFFCURVE",
"82 -55 OFFCURVE",
"54 -37 CURVE",
"54 -125 LINE",
"86 -140 OFFCURVE",
"125 -155 OFFCURVE",
"171 -155 CURVE SMOOTH"
);
}
);
};
components = (
{
name = five.dnom;
transform = "{1, 0, 0, 1, 0, -140}";
}
);
layerId = "ECACF70C-BE42-4FA5-B3A0-AFDA71FB1D31";
width = 326;
}
);
unicode = 2085;
},
{
glyphname = six.inferior;
lastChange = "2016-08-31 15:17:21 +0000";
layers = (
{
background = {
paths = (
{
closed = 1;
nodes = (
"268 -154 OFFCURVE",
"300 -89 OFFCURVE",
"300 -33 CURVE SMOOTH",
"300 37 OFFCURVE",
"253 80 OFFCURVE",
"178 80 CURVE SMOOTH",
"137 80 OFFCURVE",
"110 66 OFFCURVE",
"97 56 CURVE",
"110 169 OFFCURVE",
"193 177 OFFCURVE",
"224 177 CURVE SMOOTH",
"242 177 OFFCURVE",
"258 174 OFFCURVE",
"272 170 CURVE",
"272 207 LINE",
"257 211 OFFCURVE",
"239 214 OFFCURVE",
"220 214 CURVE SMOOTH",
"170 214 OFFCURVE",
"56 194 OFFCURVE",
"56 15 CURVE SMOOTH",
"56 -97 OFFCURVE",
"97 -154 OFFCURVE",
"178 -154 CURVE SMOOTH"
);
},
{
closed = 1;
nodes = (
"153 -117 OFFCURVE",
"96 -117 OFFCURVE",
"95 13 CURVE",
"104 23 OFFCURVE",
"130 44 OFFCURVE",
"178 44 CURVE SMOOTH",
"232 44 OFFCURVE",
"261 17 OFFCURVE",
"261 -32 CURVE SMOOTH",
"261 -52 OFFCURVE",
"255 -117 OFFCURVE",
"178 -117 CURVE SMOOTH"
);
}
);
};
components = (
{
name = six.dnom;
transform = "{1, 0, 0, 1, 0, -150}";
}
);
layerId = UUID0;
width = 338;
},
{
background = {
paths = (
{
closed = 1;
nodes = (
"277 -155 OFFCURVE",
"312 -85 OFFCURVE",
"312 -24 CURVE SMOOTH",
"312 72 OFFCURVE",
"246 86 OFFCURVE",
"188 86 CURVE SMOOTH",
"183 86 OFFCURVE",
"150 84 OFFCURVE",
"138 79 CURVE",
"143 120 OFFCURVE",
"188 134 OFFCURVE",
"222 134 CURVE SMOOTH",
"235 134 OFFCURVE",
"255 132 OFFCURVE",
"287 122 CURVE",
"287 200 LINE",
"271 208 OFFCURVE",
"241 213 OFFCURVE",
"214 213 CURVE SMOOTH",
"163 213 OFFCURVE",
"47 194 OFFCURVE",
"47 15 CURVE SMOOTH",
"47 -97 OFFCURVE",
"92 -155 OFFCURVE",
"180 -155 CURVE SMOOTH"
);
},
{
closed = 1;
nodes = (
"159 -75 OFFCURVE",
"138 -46 OFFCURVE",
"139 22 CURVE",
"149 26 OFFCURVE",
"163 28 OFFCURVE",
"179 28 CURVE SMOOTH",
"209 28 OFFCURVE",
"219 -1 OFFCURVE",
"219 -24 CURVE SMOOTH",
"219 -34 OFFCURVE",
"216 -75 OFFCURVE",
"180 -75 CURVE SMOOTH"
);
}
);
};
components = (
{
name = six.dnom;
transform = "{1, 0, 0, 1, 0, -150}";
}
);
layerId = "ECACF70C-BE42-4FA5-B3A0-AFDA71FB1D31";
width = 347;
}
);
leftKerningGroup = six.inferior;
unicode = 2086;
},
{
glyphname = seven.inferior;
lastChange = "2016-08-31 15:17:30 +0000";
layers = (
{
background = {
paths = (
{
closed = 1;
nodes = (
"129 -149 LINE",
"284 173 LINE",
"284 209 LINE",
"40 209 LINE",
"40 170 LINE",
"242 170 LINE",
"86 -149 LINE"
);
}
);
};
components = (
{
name = seven.dnom;
transform = "{1, 0, 0, 1, 0, -150}";
}
);
layerId = UUID0;
width = 315;
},
{
background = {
paths = (
{
closed = 1;
nodes = (
"157 -150 LINE",
"298 141 LINE",
"298 209 LINE",
"34 209 LINE",
"34 117 LINE",
"180 117 LINE",
"50 -150 LINE"
);
}
);
};
components = (
{
name = seven.dnom;
transform = "{1, 0, 0, 1, 0, -150}";
}
);
layerId = "ECACF70C-BE42-4FA5-B3A0-AFDA71FB1D31";
width = 322;
}
);
unicode = 2087;
},
{
glyphname = eight.inferior;
lastChange = "2016-08-31 15:17:38 +0000";
layers = (
{
background = {
paths = (
{
closed = 1;
nodes = (
"258 -154 OFFCURVE",
"291 -94 OFFCURVE",
"291 -43 CURVE SMOOTH",
"291 22 OFFCURVE",
"231 45 OFFCURVE",
"231 45 CURVE SMOOTH",
"231 45 OFFCURVE",
"277 63 OFFCURVE",
"277 121 CURVE SMOOTH",
"277 166 OFFCURVE",
"248 213 OFFCURVE",
"167 213 CURVE SMOOTH",
"85 213 OFFCURVE",
"56 166 OFFCURVE",
"56 121 CURVE SMOOTH",
"56 64 OFFCURVE",
"104 44 OFFCURVE",
"104 44 CURVE SMOOTH",
"104 44 OFFCURVE",
"43 23 OFFCURVE",
"43 -43 CURVE SMOOTH",
"43 -94 OFFCURVE",
"75 -154 OFFCURVE",
"167 -154 CURVE SMOOTH"
);
},
{
closed = 1;
nodes = (
"88 -117 OFFCURVE",
"81 -60 OFFCURVE",
"81 -43 CURVE SMOOTH",
"81 0 OFFCURVE",
"112 23 OFFCURVE",
"167 23 CURVE SMOOTH",
"222 23 OFFCURVE",
"252 0 OFFCURVE",
"252 -43 CURVE SMOOTH",
"252 -60 OFFCURVE",
"246 -117 OFFCURVE",
"167 -117 CURVE SMOOTH"
);
},
{
closed = 1;
nodes = (
"122 59 OFFCURVE",
"95 82 OFFCURVE",
"95 121 CURVE SMOOTH",
"95 166 OFFCURVE",
"134 176 OFFCURVE",
"167 176 CURVE SMOOTH",
"200 176 OFFCURVE",
"239 166 OFFCURVE",
"239 121 CURVE SMOOTH",
"239 82 OFFCURVE",
"212 59 OFFCURVE",
"167 59 CURVE SMOOTH"
);
}
);
};
components = (
{
name = eight.dnom;
transform = "{1, 0, 0, 1, 0, -150}";
}
);
layerId = UUID0;
width = 332;
},
{
background = {
paths = (
{
closed = 1;
nodes = (
"255 -155 OFFCURVE",
"306 -119 OFFCURVE",
"306 -46 CURVE SMOOTH",
"306 -2 OFFCURVE",
"272 32 OFFCURVE",
"234 42 CURVE",
"262 50 OFFCURVE",
"291 76 OFFCURVE",
"291 114 CURVE SMOOTH",
"291 181 OFFCURVE",
"247 213 OFFCURVE",
"171 213 CURVE SMOOTH",
"95 213 OFFCURVE",
"50 181 OFFCURVE",
"50 114 CURVE SMOOTH",
"50 76 OFFCURVE",
"80 50 OFFCURVE",
"108 42 CURVE",
"70 32 OFFCURVE",
"36 -2 OFFCURVE",
"36 -46 CURVE SMOOTH",
"36 -119 OFFCURVE",
"87 -155 OFFCURVE",
"171 -155 CURVE SMOOTH"
);
},
{
closed = 1;
nodes = (
"142 -79 OFFCURVE",
"129 -59 OFFCURVE",
"129 -35 CURVE SMOOTH",
"129 -20 OFFCURVE",
"142 1 OFFCURVE",
"171 1 CURVE SMOOTH",
"200 1 OFFCURVE",
"212 -20 OFFCURVE",
"212 -35 CURVE SMOOTH",
"212 -59 OFFCURVE",
"200 -79 OFFCURVE",
"171 -79 CURVE SMOOTH"
);
},
{
closed = 1;
nodes = (
"158 77 OFFCURVE",
"140 86 OFFCURVE",
"140 106 CURVE SMOOTH",
"140 119 OFFCURVE",
"150 137 OFFCURVE",
"171 137 CURVE SMOOTH",
"192 137 OFFCURVE",
"202 119 OFFCURVE",
"202 106 CURVE SMOOTH",
"202 86 OFFCURVE",
"185 77 OFFCURVE",
"171 77 CURVE SMOOTH"
);
}
);
};
components = (
{
name = eight.dnom;
transform = "{1, 0, 0, 1, 0, -150}";
}
);
layerId = "ECACF70C-BE42-4FA5-B3A0-AFDA71FB1D31";
width = 343;
}
);
leftKerningGroup = nine.inferior;
rightKerningGroup = two.inferior;
unicode = 2088;
},
{
glyphname = nine.inferior;
lastChange = "2016-08-31 15:17:46 +0000";
layers = (
{
background = {
paths = (
{
closed = 1;
nodes = (
"179 -154 OFFCURVE",
"293 -134 OFFCURVE",
"293 45 CURVE SMOOTH",
"293 157 OFFCURVE",
"252 214 OFFCURVE",
"171 214 CURVE SMOOTH",
"81 214 OFFCURVE",
"49 148 OFFCURVE",
"49 93 CURVE SMOOTH",
"49 23 OFFCURVE",
"96 -20 OFFCURVE",
"171 -20 CURVE SMOOTH",
"212 -20 OFFCURVE",
"239 -6 OFFCURVE",
"252 3 CURVE",
"240 -109 OFFCURVE",
"156 -117 OFFCURVE",
"125 -117 CURVE SMOOTH",
"107 -117 OFFCURVE",
"91 -114 OFFCURVE",
"77 -111 CURVE",
"77 -147 LINE",
"92 -151 OFFCURVE",
"110 -154 OFFCURVE",
"130 -154 CURVE SMOOTH"
);
},
{
closed = 1;
nodes = (
"117 16 OFFCURVE",
"88 43 OFFCURVE",
"88 92 CURVE SMOOTH",
"88 112 OFFCURVE",
"94 177 OFFCURVE",
"171 177 CURVE SMOOTH",
"196 177 OFFCURVE",
"253 177 OFFCURVE",
"254 46 CURVE",
"245 37 OFFCURVE",
"219 16 OFFCURVE",
"171 16 CURVE SMOOTH"
);
}
);
};
components = (
{
name = nine.dnom;
transform = "{1, 0, 0, 1, 0, -150}";
}
);
layerId = UUID0;
width = 338;
},
{
background = {
paths = (
{
closed = 1;
nodes = (
"193 -155 OFFCURVE",
"309 -136 OFFCURVE",
"309 42 CURVE SMOOTH",
"309 155 OFFCURVE",
"264 213 OFFCURVE",
"177 213 CURVE SMOOTH",
"80 213 OFFCURVE",
"45 142 OFFCURVE",
"45 82 CURVE SMOOTH",
"45 -15 OFFCURVE",
"111 -28 OFFCURVE",
"169 -28 CURVE SMOOTH",
"174 -28 OFFCURVE",
"207 -26 OFFCURVE",
"219 -21 CURVE",
"214 -62 OFFCURVE",
"169 -76 OFFCURVE",
"135 -76 CURVE SMOOTH",
"121 -76 OFFCURVE",
"102 -74 OFFCURVE",
"69 -64 CURVE",
"69 -142 LINE",
"86 -150 OFFCURVE",
"116 -155 OFFCURVE",
"142 -155 CURVE SMOOTH"
);
},
{
closed = 1;
nodes = (
"148 30 OFFCURVE",
"138 58 OFFCURVE",
"138 81 CURVE SMOOTH",
"138 91 OFFCURVE",
"141 133 OFFCURVE",
"177 133 CURVE SMOOTH",
"198 133 OFFCURVE",
"219 103 OFFCURVE",
"218 36 CURVE",
"207 31 OFFCURVE",
"193 30 OFFCURVE",
"178 30 CURVE SMOOTH"
);
}
);
};
components = (
{
name = nine.dnom;
transform = "{1, 0, 0, 1, 0, -140}";
}
);
layerId = "ECACF70C-BE42-4FA5-B3A0-AFDA71FB1D31";
width = 349;
}
);
leftKerningGroup = nine.inferior;
rightKerningGroup = two.inferior;
unicode = 2089;
},
{
glyphname = zero.superior;
lastChange = "2017-07-04 14:13:19 +0000";
layers = (
{
background = {
paths = (
{
closed = 1;
nodes = (
"281 457 OFFCURVE",
"329 519 OFFCURVE",
"329 641 CURVE SMOOTH",
"329 763 OFFCURVE",
"281 825 OFFCURVE",
"188 825 CURVE SMOOTH",
"94 825 OFFCURVE",
"46 763 OFFCURVE",
"46 641 CURVE SMOOTH",
"46 519 OFFCURVE",
"94 457 OFFCURVE",
"188 457 CURVE SMOOTH"
);
},
{
closed = 1;
nodes = (
"140 493 OFFCURVE",
"85 510 OFFCURVE",
"85 641 CURVE SMOOTH",
"85 772 OFFCURVE",
"140 789 OFFCURVE",
"188 789 CURVE SMOOTH",
"235 789 OFFCURVE",
"290 772 OFFCURVE",
"290 641 CURVE SMOOTH",
"290 510 OFFCURVE",
"235 493 OFFCURVE",
"188 493 CURVE SMOOTH"
);
}
);
};
components = (
{
name = zero.dnom;
transform = "{1, 0, 0, 1, 0, 462}";
}
);
layerId = UUID0;
width = 379;
},
{
background = {
paths = (
{
closed = 1;
nodes = (
"284 458 OFFCURVE",
"332 520 OFFCURVE",
"332 642 CURVE SMOOTH",
"332 763 OFFCURVE",
"284 826 OFFCURVE",
"187 826 CURVE SMOOTH",
"91 826 OFFCURVE",
"42 763 OFFCURVE",
"42 642 CURVE SMOOTH",
"42 520 OFFCURVE",
"91 458 OFFCURVE",
"187 458 CURVE SMOOTH"
);
},
{
closed = 1;
nodes = (
"163 538 OFFCURVE",
"135 553 OFFCURVE",
"135 642 CURVE SMOOTH",
"135 731 OFFCURVE",
"163 747 OFFCURVE",
"187 747 CURVE SMOOTH",
"213 747 OFFCURVE",
"241 731 OFFCURVE",
"241 642 CURVE SMOOTH",
"241 553 OFFCURVE",
"213 538 OFFCURVE",
"187 538 CURVE SMOOTH"
);
}
);
};
components = (
{
name = zero.dnom;
transform = "{1, 0, 0, 1, 0, 473}";
}
);
layerId = "ECACF70C-BE42-4FA5-B3A0-AFDA71FB1D31";
width = 380;
}
);
leftKerningGroup = tilde;
rightKerningGroup = tilde;
unicode = 2070;
},
{
glyphname = one.superior;
lastChange = "2016-08-31 15:19:20 +0000";
layers = (
{
components = (
{
name = one.dnom;
transform = "{1, 0, 0, 1, 0, 462}";
}
);
layerId = UUID0;
width = 234;
},
{
background = {
paths = (
{
closed = 1;
nodes = (
"196 463 LINE",
"196 822 LINE",
"120 822 LINE",
"45 775 LINE",
"45 684 LINE",
"103 719 LINE",
"103 463 LINE"
);
}
);
};
components = (
{
name = one.dnom;
transform = "{1, 0, 0, 1, 0, 462}";
}
);
layerId = "ECACF70C-BE42-4FA5-B3A0-AFDA71FB1D31";
width = 250;
}
);
leftKerningGroup = tilde;
rightKerningGroup = tilde;
unicode = 00B9;
},
{
glyphname = two.superior;
lastChange = "2016-08-31 15:19:28 +0000";
layers = (
{
background = {
paths = (
{
closed = 1;
nodes = (
"279 463 LINE",
"279 502 LINE",
"117 502 LINE",
"182 555 OFFCURVE",
"274 644 OFFCURVE",
"274 726 CURVE SMOOTH",
"274 774 OFFCURVE",
"242 826 OFFCURVE",
"154 826 CURVE SMOOTH",
"113 826 OFFCURVE",
"80 813 OFFCURVE",
"57 799 CURVE",
"57 757 LINE",
"75 770 OFFCURVE",
"108 787 OFFCURVE",
"151 787 CURVE SMOOTH",
"220 787 OFFCURVE",
"235 754 OFFCURVE",
"235 726 CURVE SMOOTH",
"235 647 OFFCURVE",
"114 542 OFFCURVE",
"53 497 CURVE",
"53 463 LINE"
);
}
);
};
components = (
{
name = two.dnom;
transform = "{1, 0, 0, 1, 0, 462}";
}
);
layerId = UUID0;
width = 328;
},
{
background = {
paths = (
{
closed = 1;
nodes = (
"296 463 LINE",
"296 546 LINE",
"191 546 LINE",
"235 585 OFFCURVE",
"294 651 OFFCURVE",
"294 712 CURVE SMOOTH",
"294 768 OFFCURVE",
"260 827 OFFCURVE",
"164 827 CURVE SMOOTH",
"122 827 OFFCURVE",
"83 810 OFFCURVE",
"52 791 CURVE",
"52 697 LINE",
"87 725 OFFCURVE",
"126 741 OFFCURVE",
"155 741 CURVE SMOOTH",
"187 741 OFFCURVE",
"202 726 OFFCURVE",
"202 705 CURVE SMOOTH",
"202 652 OFFCURVE",
"101 574 OFFCURVE",
"50 536 CURVE",
"50 463 LINE"
);
}
);
};
components = (
{
name = two.dnom;
transform = "{1, 0, 0, 1, 0, 463}";
}
);
layerId = "ECACF70C-BE42-4FA5-B3A0-AFDA71FB1D31";
width = 339;
}
);
leftKerningGroup = tilde;
rightKerningGroup = tilde;
unicode = 00B2;
},
{
glyphname = three.superior;
lastChange = "2016-08-31 15:19:38 +0000";
layers = (
{
background = {
paths = (
{
closed = 1;
nodes = (
"246 459 OFFCURVE",
"281 514 OFFCURVE",
"281 565 CURVE SMOOTH",
"281 631 OFFCURVE",
"217 657 OFFCURVE",
"217 657 CURVE SMOOTH",
"217 657 OFFCURVE",
"263 676 OFFCURVE",
"263 730 CURVE SMOOTH",
"263 776 OFFCURVE",
"232 826 OFFCURVE",
"144 826 CURVE SMOOTH",
"111 826 OFFCURVE",
"84 818 OFFCURVE",
"62 808 CURVE",
"62 769 LINE",
"81 779 OFFCURVE",
"107 787 OFFCURVE",
"139 787 CURVE SMOOTH",
"194 787 OFFCURVE",
"224 767 OFFCURVE",
"224 730 CURVE SMOOTH",
"224 692 OFFCURVE",
"196 672 OFFCURVE",
"144 672 CURVE SMOOTH",
"103 672 LINE",
"103 635 LINE",
"142 635 LINE SMOOTH",
"207 635 OFFCURVE",
"243 611 OFFCURVE",
"243 566 CURVE SMOOTH",
"243 522 OFFCURVE",
"208 497 OFFCURVE",
"144 497 CURVE SMOOTH",
"106 497 OFFCURVE",
"75 509 OFFCURVE",
"53 521 CURVE",
"53 481 LINE",
"78 469 OFFCURVE",
"110 459 OFFCURVE",
"149 459 CURVE SMOOTH"
);
}
);
};
components = (
{
name = three.dnom;
transform = "{1, 0, 0, 1, 0, 462}";
}
);
layerId = UUID0;
width = 323;
},
{
background = {
paths = (
{
closed = 1;
nodes = (
"219 458 OFFCURVE",
"299 477 OFFCURVE",
"299 563 CURVE SMOOTH",
"299 609 OFFCURVE",
"270 645 OFFCURVE",
"228 657 CURVE",
"255 662 OFFCURVE",
"284 692 OFFCURVE",
"284 727 CURVE SMOOTH",
"284 805 OFFCURVE",
"210 826 OFFCURVE",
"154 826 CURVE SMOOTH",
"119 826 OFFCURVE",
"84 815 OFFCURVE",
"56 800 CURVE",
"56 722 LINE",
"100 743 OFFCURVE",
"122 741 OFFCURVE",
"144 741 CURVE SMOOTH",
"166 741 OFFCURVE",
"191 732 OFFCURVE",
"191 714 CURVE SMOOTH",
"191 699 OFFCURVE",
"181 684 OFFCURVE",
"154 684 CURVE SMOOTH",
"94 684 LINE",
"94 618 LINE",
"153 618 LINE SMOOTH",
"197 618 OFFCURVE",
"207 596 OFFCURVE",
"207 578 CURVE SMOOTH",
"207 557 OFFCURVE",
"186 541 OFFCURVE",
"154 541 CURVE SMOOTH",
"124 541 OFFCURVE",
"85 555 OFFCURVE",
"49 577 CURVE",
"49 488 LINE",
"82 472 OFFCURVE",
"119 458 OFFCURVE",
"158 458 CURVE SMOOTH"
);
}
);
};
components = (
{
name = three.dnom;
transform = "{1, 0, 0, 1, 0, 463}";
}
);
layerId = "ECACF70C-BE42-4FA5-B3A0-AFDA71FB1D31";
width = 335;
}
);
leftKerningGroup = tilde;
rightKerningGroup = tilde;
unicode = 00B3;
},
{
glyphname = four.superior;
lastChange = "2016-08-31 15:19:44 +0000";
layers = (
{
background = {
paths = (
{
closed = 1;
nodes = (
"242 463 LINE",
"242 571 LINE",
"293 571 LINE",
"293 607 LINE",
"242 607 LINE",
"242 822 LINE",
"199 822 LINE",
"29 612 LINE",
"29 571 LINE",
"203 571 LINE",
"203 463 LINE"
);
},
{
closed = 1;
nodes = (
"203 766 LINE",
"203 607 LINE",
"72 607 LINE"
);
}
);
};
components = (
{
name = four.dnom;
transform = "{1, 0, 0, 1, 0, 462}";
}
);
layerId = UUID0;
width = 328;
},
{
background = {
paths = (
{
closed = 1;
nodes = (
"263 463 LINE",
"263 554 LINE",
"306 554 LINE",
"306 633 LINE",
"263 633 LINE",
"263 822 LINE",
"182 822 LINE",
"25 625 LINE",
"25 554 LINE",
"171 554 LINE",
"171 463 LINE"
);
},
{
closed = 1;
nodes = (
"171 696 LINE",
"171 633 LINE",
"123 633 LINE"
);
}
);
};
components = (
{
name = four.dnom;
transform = "{1, 0, 0, 1, 0, 463}";
}
);
layerId = "ECACF70C-BE42-4FA5-B3A0-AFDA71FB1D31";
width = 343;
}
);
leftKerningGroup = tilde;
rightKerningGroup = tilde;
unicode = 2074;
},
{
glyphname = five.superior;
lastChange = "2016-08-31 15:19:51 +0000";
layers = (
{
background = {
paths = (
{
closed = 1;
nodes = (
"218 459 OFFCURVE",
"280 479 OFFCURVE",
"280 573 CURVE SMOOTH",
"280 667 OFFCURVE",
"218 686 OFFCURVE",
"166 686 CURVE SMOOTH",
"137 686 OFFCURVE",
"114 682 OFFCURVE",
"96 677 CURVE",
"106 783 LINE",
"257 783 LINE",
"257 822 LINE",
"73 822 LINE",
"55 656 LINE",
"79 631 LINE",
"79 631 OFFCURVE",
"106 648 OFFCURVE",
"163 648 CURVE SMOOTH",
"201 648 OFFCURVE",
"242 640 OFFCURVE",
"242 573 CURVE SMOOTH",
"242 540 OFFCURVE",
"237 496 OFFCURVE",
"163 496 CURVE SMOOTH",
"111 496 OFFCURVE",
"78 512 OFFCURVE",
"63 521 CURVE",
"63 481 LINE",
"85 469 OFFCURVE",
"118 459 OFFCURVE",
"166 459 CURVE SMOOTH"
);
}
);
};
components = (
{
name = five.dnom;
transform = "{1, 0, 0, 1, 0, 462}";
}
);
layerId = UUID0;
width = 319;
},
{
background = {
paths = (
{
closed = 1;
nodes = (
"232 458 OFFCURVE",
"297 482 OFFCURVE",
"297 575 CURVE SMOOTH",
"297 669 OFFCURVE",
"247 709 OFFCURVE",
"170 709 CURVE SMOOTH",
"160 709 OFFCURVE",
"152 709 OFFCURVE",
"144 708 CURVE",
"146 739 LINE",
"278 739 LINE",
"278 822 LINE",
"66 822 LINE",
"46 648 LINE",
"97 611 LINE",
"97 611 OFFCURVE",
"123 628 OFFCURVE",
"162 627 CURVE SMOOTH",
"186 627 OFFCURVE",
"205 613 OFFCURVE",
"205 583 CURVE SMOOTH",
"205 564 OFFCURVE",
"192 540 OFFCURVE",
"158 540 CURVE SMOOTH",
"122 540 OFFCURVE",
"82 558 OFFCURVE",
"54 576 CURVE",
"54 488 LINE",
"86 473 OFFCURVE",
"125 458 OFFCURVE",
"171 458 CURVE SMOOTH"
);
}
);
};
components = (
{
name = five.dnom;
transform = "{1, 0, 0, 1, 0, 472}";
}
);
layerId = "ECACF70C-BE42-4FA5-B3A0-AFDA71FB1D31";
width = 326;
}
);
leftKerningGroup = tilde;
rightKerningGroup = tilde;
unicode = 2075;
},
{
glyphname = six.superior;
lastChange = "2016-08-31 15:19:58 +0000";
layers = (
{
background = {
paths = (
{
closed = 1;
nodes = (
"268 459 OFFCURVE",
"300 524 OFFCURVE",
"300 580 CURVE SMOOTH",
"300 649 OFFCURVE",
"253 692 OFFCURVE",
"178 692 CURVE SMOOTH",
"137 692 OFFCURVE",
"110 678 OFFCURVE",
"97 669 CURVE",
"110 782 OFFCURVE",
"193 790 OFFCURVE",
"224 790 CURVE SMOOTH",
"242 790 OFFCURVE",
"258 787 OFFCURVE",
"272 783 CURVE",
"272 819 LINE",
"257 823 OFFCURVE",
"239 826 OFFCURVE",
"220 826 CURVE SMOOTH",
"170 826 OFFCURVE",
"56 807 OFFCURVE",
"56 627 CURVE SMOOTH",
"56 515 OFFCURVE",
"97 459 OFFCURVE",
"178 459 CURVE SMOOTH"
);
},
{
closed = 1;
nodes = (
"153 495 OFFCURVE",
"96 495 OFFCURVE",
"95 626 CURVE",
"104 635 OFFCURVE",
"130 656 OFFCURVE",
"178 656 CURVE SMOOTH",
"232 656 OFFCURVE",
"261 629 OFFCURVE",
"261 580 CURVE SMOOTH",
"261 560 OFFCURVE",
"255 495 OFFCURVE",
"178 495 CURVE SMOOTH"
);
}
);
};
components = (
{
name = six.dnom;
transform = "{1, 0, 0, 1, 0, 462}";
}
);
layerId = UUID0;
width = 338;
},
{
background = {
paths = (
{
closed = 1;
nodes = (
"279 458 OFFCURVE",
"314 528 OFFCURVE",
"314 589 CURVE SMOOTH",
"314 685 OFFCURVE",
"248 699 OFFCURVE",
"190 699 CURVE SMOOTH",
"185 699 OFFCURVE",
"152 697 OFFCURVE",
"140 692 CURVE",
"145 733 OFFCURVE",
"190 747 OFFCURVE",
"224 747 CURVE SMOOTH",
"237 747 OFFCURVE",
"257 745 OFFCURVE",
"289 735 CURVE",
"289 813 LINE",
"273 821 OFFCURVE",
"243 826 OFFCURVE",
"216 826 CURVE SMOOTH",
"165 826 OFFCURVE",
"49 807 OFFCURVE",
"49 628 CURVE SMOOTH",
"49 516 OFFCURVE",
"94 458 OFFCURVE",
"182 458 CURVE SMOOTH"
);
},
{
closed = 1;
nodes = (
"161 538 OFFCURVE",
"140 567 OFFCURVE",
"141 635 CURVE",
"151 639 OFFCURVE",
"165 641 OFFCURVE",
"181 641 CURVE SMOOTH",
"211 641 OFFCURVE",
"221 612 OFFCURVE",
"221 589 CURVE SMOOTH",
"221 579 OFFCURVE",
"218 538 OFFCURVE",
"182 538 CURVE SMOOTH"
);
}
);
};
components = (
{
name = six.dnom;
transform = "{1, 0, 0, 1, 0, 463}";
}
);
layerId = "ECACF70C-BE42-4FA5-B3A0-AFDA71FB1D31";
width = 347;
}
);
leftKerningGroup = tilde;
rightKerningGroup = tilde;
unicode = 2076;
},
{
glyphname = seven.superior;
lastChange = "2016-08-31 15:20:10 +0000";
layers = (
{
background = {
paths = (
{
closed = 1;
nodes = (
"129 463 LINE",
"284 785 LINE",
"284 822 LINE",
"40 822 LINE",
"40 783 LINE",
"242 783 LINE",
"86 463 LINE"
);
}
);
};
components = (
{
name = seven.dnom;
transform = "{1, 0, 0, 1, 0, 462}";
}
);
layerId = UUID0;
width = 315;
},
{
background = {
paths = (
{
closed = 1;
nodes = (
"157 463 LINE",
"298 754 LINE",
"298 822 LINE",
"34 822 LINE",
"34 730 LINE",
"180 730 LINE",
"50 463 LINE"
);
}
);
};
components = (
{
name = seven.dnom;
transform = "{1, 0, 0, 1, 0, 462}";
}
);
layerId = "ECACF70C-BE42-4FA5-B3A0-AFDA71FB1D31";
width = 322;
}
);
leftKerningGroup = tilde;
rightKerningGroup = tilde;
unicode = 2077;
},
{
glyphname = eight.superior;
lastChange = "2016-08-31 15:20:17 +0000";
layers = (
{
background = {
paths = (
{
closed = 1;
nodes = (
"258 459 OFFCURVE",
"291 519 OFFCURVE",
"291 570 CURVE SMOOTH",
"291 635 OFFCURVE",
"231 657 OFFCURVE",
"231 657 CURVE SMOOTH",
"231 657 OFFCURVE",
"277 676 OFFCURVE",
"277 734 CURVE SMOOTH",
"277 778 OFFCURVE",
"248 826 OFFCURVE",
"167 826 CURVE SMOOTH",
"85 826 OFFCURVE",
"56 778 OFFCURVE",
"56 734 CURVE SMOOTH",
"56 677 OFFCURVE",
"104 657 OFFCURVE",
"104 657 CURVE SMOOTH",
"104 657 OFFCURVE",
"43 636 OFFCURVE",
"43 570 CURVE SMOOTH",
"43 519 OFFCURVE",
"75 459 OFFCURVE",
"167 459 CURVE SMOOTH"
);
},
{
closed = 1;
nodes = (
"88 495 OFFCURVE",
"81 552 OFFCURVE",
"81 570 CURVE SMOOTH",
"81 612 OFFCURVE",
"112 636 OFFCURVE",
"167 636 CURVE SMOOTH",
"222 636 OFFCURVE",
"252 612 OFFCURVE",
"252 570 CURVE SMOOTH",
"252 552 OFFCURVE",
"246 495 OFFCURVE",
"167 495 CURVE SMOOTH"
);
},
{
closed = 1;
nodes = (
"122 672 OFFCURVE",
"95 695 OFFCURVE",
"95 733 CURVE SMOOTH",
"95 779 OFFCURVE",
"134 788 OFFCURVE",
"167 788 CURVE SMOOTH",
"200 788 OFFCURVE",
"239 779 OFFCURVE",
"239 733 CURVE SMOOTH",
"239 695 OFFCURVE",
"212 672 OFFCURVE",
"167 672 CURVE SMOOTH"
);
}
);
};
components = (
{
name = eight.dnom;
transform = "{1, 0, 0, 1, 0, 462}";
}
);
layerId = UUID0;
width = 332;
},
{
background = {
paths = (
{
closed = 1;
nodes = (
"255 458 OFFCURVE",
"306 494 OFFCURVE",
"306 567 CURVE SMOOTH",
"306 611 OFFCURVE",
"272 645 OFFCURVE",
"234 655 CURVE",
"262 663 OFFCURVE",
"291 689 OFFCURVE",
"291 727 CURVE SMOOTH",
"291 794 OFFCURVE",
"247 826 OFFCURVE",
"171 826 CURVE SMOOTH",
"95 826 OFFCURVE",
"50 794 OFFCURVE",
"50 727 CURVE SMOOTH",
"50 689 OFFCURVE",
"80 663 OFFCURVE",
"108 655 CURVE",
"70 645 OFFCURVE",
"36 611 OFFCURVE",
"36 567 CURVE SMOOTH",
"36 494 OFFCURVE",
"87 458 OFFCURVE",
"171 458 CURVE SMOOTH"
);
},
{
closed = 1;
nodes = (
"142 534 OFFCURVE",
"129 554 OFFCURVE",
"129 578 CURVE SMOOTH",
"129 593 OFFCURVE",
"142 614 OFFCURVE",
"171 614 CURVE SMOOTH",
"200 614 OFFCURVE",
"212 593 OFFCURVE",
"212 578 CURVE SMOOTH",
"212 554 OFFCURVE",
"200 534 OFFCURVE",
"171 534 CURVE SMOOTH"
);
},
{
closed = 1;
nodes = (
"158 690 OFFCURVE",
"140 699 OFFCURVE",
"140 719 CURVE SMOOTH",
"140 732 OFFCURVE",
"150 750 OFFCURVE",
"171 750 CURVE SMOOTH",
"192 750 OFFCURVE",
"202 732 OFFCURVE",
"202 719 CURVE SMOOTH",
"202 699 OFFCURVE",
"185 690 OFFCURVE",
"171 690 CURVE SMOOTH"
);
}
);
};
components = (
{
name = eight.dnom;
transform = "{1, 0, 0, 1, 0, 463}";
}
);
layerId = "ECACF70C-BE42-4FA5-B3A0-AFDA71FB1D31";
width = 343;
}
);
leftKerningGroup = tilde;
rightKerningGroup = tilde;
unicode = 2078;
},
{
glyphname = nine.superior;
lastChange = "2016-08-31 15:20:24 +0000";
layers = (
{
background = {
paths = (
{
closed = 1;
nodes = (
"179 459 OFFCURVE",
"293 478 OFFCURVE",
"293 658 CURVE SMOOTH",
"293 770 OFFCURVE",
"252 826 OFFCURVE",
"171 826 CURVE SMOOTH",
"81 826 OFFCURVE",
"49 761 OFFCURVE",
"49 705 CURVE SMOOTH",
"49 636 OFFCURVE",
"96 593 OFFCURVE",
"171 593 CURVE SMOOTH",
"212 593 OFFCURVE",
"239 607 OFFCURVE",
"252 616 CURVE",
"240 503 OFFCURVE",
"156 495 OFFCURVE",
"125 495 CURVE SMOOTH",
"107 495 OFFCURVE",
"91 498 OFFCURVE",
"77 502 CURVE",
"77 466 LINE",
"92 462 OFFCURVE",
"110 459 OFFCURVE",
"130 459 CURVE SMOOTH"
);
},
{
closed = 1;
nodes = (
"117 629 OFFCURVE",
"88 656 OFFCURVE",
"88 705 CURVE SMOOTH",
"88 725 OFFCURVE",
"94 790 OFFCURVE",
"171 790 CURVE SMOOTH",
"196 790 OFFCURVE",
"253 790 OFFCURVE",
"254 659 CURVE",
"245 650 OFFCURVE",
"219 629 OFFCURVE",
"171 629 CURVE SMOOTH"
);
}
);
};
components = (
{
name = nine.dnom;
transform = "{1, 0, 0, 1, 0, 462}";
}
);
layerId = UUID0;
width = 338;
},
{
background = {
paths = (
{
closed = 1;
nodes = (
"193 458 OFFCURVE",
"309 477 OFFCURVE",
"309 655 CURVE SMOOTH",
"309 768 OFFCURVE",
"264 826 OFFCURVE",
"177 826 CURVE SMOOTH",
"80 826 OFFCURVE",
"45 755 OFFCURVE",
"45 695 CURVE SMOOTH",
"45 598 OFFCURVE",
"111 585 OFFCURVE",
"169 585 CURVE SMOOTH",
"174 585 OFFCURVE",
"207 587 OFFCURVE",
"219 592 CURVE",
"214 551 OFFCURVE",
"169 537 OFFCURVE",
"135 537 CURVE SMOOTH",
"121 537 OFFCURVE",
"102 539 OFFCURVE",
"69 549 CURVE",
"69 471 LINE",
"86 463 OFFCURVE",
"116 458 OFFCURVE",
"142 458 CURVE SMOOTH"
);
},
{
closed = 1;
nodes = (
"148 643 OFFCURVE",
"138 671 OFFCURVE",
"138 694 CURVE SMOOTH",
"138 704 OFFCURVE",
"141 746 OFFCURVE",
"177 746 CURVE SMOOTH",
"198 746 OFFCURVE",
"219 716 OFFCURVE",
"218 649 CURVE",
"207 644 OFFCURVE",
"193 643 OFFCURVE",
"178 643 CURVE SMOOTH"
);
}
);
};
components = (
{
name = nine.dnom;
transform = "{1, 0, 0, 1, 0, 472}";
}
);
layerId = "ECACF70C-BE42-4FA5-B3A0-AFDA71FB1D31";
width = 349;
}
);
leftKerningGroup = tilde;
rightKerningGroup = tilde;
unicode = 2079;
},
{
glyphname = zero.dnom;
lastChange = "2017-07-04 14:12:15 +0000";
layers = (
{
layerId = UUID0;
paths = (
{
closed = 1;
nodes = (
"283 -5 OFFCURVE",
"331 57 OFFCURVE",
"331 179 CURVE SMOOTH",
"331 301 OFFCURVE",
"283 363 OFFCURVE",
"190 363 CURVE SMOOTH",
"96 363 OFFCURVE",
"48 301 OFFCURVE",
"48 179 CURVE SMOOTH",
"48 57 OFFCURVE",
"96 -5 OFFCURVE",
"190 -5 CURVE SMOOTH"
);
},
{
closed = 1;
nodes = (
"164 45 OFFCURVE",
"109 62 OFFCURVE",
"109 179 CURVE SMOOTH",
"109 296 OFFCURVE",
"164 313 OFFCURVE",
"190 313 CURVE SMOOTH",
"215 313 OFFCURVE",
"270 296 OFFCURVE",
"270 179 CURVE SMOOTH",
"270 62 OFFCURVE",
"215 45 OFFCURVE",
"190 45 CURVE SMOOTH"
);
}
);
width = 379;
},
{
layerId = "ECACF70C-BE42-4FA5-B3A0-AFDA71FB1D31";
paths = (
{
closed = 1;
nodes = (
"317 -14 OFFCURVE",
"365 48 OFFCURVE",
"365 170 CURVE SMOOTH",
"365 291 OFFCURVE",
"317 354 OFFCURVE",
"190 354 CURVE SMOOTH",
"64 354 OFFCURVE",
"15 291 OFFCURVE",
"15 170 CURVE SMOOTH",
"15 48 OFFCURVE",
"64 -14 OFFCURVE",
"190 -14 CURVE SMOOTH"
);
},
{
closed = 1;
nodes = (
"166 86 OFFCURVE",
"141 101 OFFCURVE",
"141 170 CURVE SMOOTH",
"141 239 OFFCURVE",
"166 255 OFFCURVE",
"190 255 CURVE SMOOTH",
"216 255 OFFCURVE",
"239 239 OFFCURVE",
"239 170 CURVE SMOOTH",
"239 101 OFFCURVE",
"216 86 OFFCURVE",
"190 86 CURVE SMOOTH"
);
}
);
width = 380;
}
);
leftKerningGroup = six.denominator;
},
{
glyphname = one.dnom;
lastChange = "2016-08-31 20:51:05 +0000";
layers = (
{
layerId = UUID0;
paths = (
{
closed = 1;
nodes = (
"163 1 LINE",
"163 360 LINE",
"119 360 LINE",
"53 318 LINE",
"53 242 LINE",
"108 278 LINE",
"95 319 LINE",
"95 1 LINE"
);
}
);
width = 234;
},
{
layerId = "ECACF70C-BE42-4FA5-B3A0-AFDA71FB1D31";
paths = (
{
closed = 1;
nodes = (
"195 0 LINE",
"195 359 LINE",
"92 359 LINE",
"17 312 LINE",
"17 201 LINE",
"91 242 LINE",
"75 270 LINE",
"75 0 LINE"
);
}
);
width = 250;
}
);
},
{
glyphname = two.dnom;
lastChange = "2016-08-31 20:53:54 +0000";
layers = (
{
layerId = UUID0;
paths = (
{
closed = 1;
nodes = (
"279 1 LINE",
"279 60 LINE",
"117 60 LINE",
"127 40 LINE",
"192 93 OFFCURVE",
"274 182 OFFCURVE",
"274 264 CURVE SMOOTH",
"274 312 OFFCURVE",
"242 364 OFFCURVE",
"154 364 CURVE SMOOTH",
"113 364 OFFCURVE",
"80 351 OFFCURVE",
"57 337 CURVE",
"57 273 LINE",
"75 286 OFFCURVE",
"108 303 OFFCURVE",
"140 303 CURVE SMOOTH",
"180 303 OFFCURVE",
"205 280 OFFCURVE",
"205 252 CURVE SMOOTH",
"205 173 OFFCURVE",
"114 80 OFFCURVE",
"53 35 CURVE",
"53 1 LINE"
);
}
);
width = 328;
},
{
layerId = "ECACF70C-BE42-4FA5-B3A0-AFDA71FB1D31";
paths = (
{
closed = 1;
nodes = (
"309 0 LINE",
"309 113 LINE",
"164 113 LINE",
"174 103 LINE",
"254 132 OFFCURVE",
"307 187 OFFCURVE",
"307 249 CURVE SMOOTH",
"307 305 OFFCURVE",
"273 364 OFFCURVE",
"157 364 CURVE SMOOTH",
"115 364 OFFCURVE",
"76 347 OFFCURVE",
"45 328 CURVE",
"45 234 LINE",
"70 252 OFFCURVE",
"91 268 OFFCURVE",
"133 268 CURVE SMOOTH",
"156 268 OFFCURVE",
"182 253 OFFCURVE",
"182 216 CURVE SMOOTH",
"182 155 OFFCURVE",
"94 111 OFFCURVE",
"43 73 CURVE",
"43 0 LINE"
);
}
);
width = 339;
}
);
},
{
glyphname = three.dnom;
lastChange = "2016-08-31 20:54:14 +0000";
layers = (
{
layerId = UUID0;
paths = (
{
closed = 1;
nodes = (
"246 -3 OFFCURVE",
"281 52 OFFCURVE",
"281 103 CURVE SMOOTH",
"281 169 OFFCURVE",
"235 183 OFFCURVE",
"217 195 CURVE SMOOTH",
"217 195 OFFCURVE",
"263 214 OFFCURVE",
"263 268 CURVE SMOOTH",
"263 314 OFFCURVE",
"232 364 OFFCURVE",
"144 364 CURVE SMOOTH",
"111 364 OFFCURVE",
"84 356 OFFCURVE",
"62 346 CURVE",
"62 284 LINE",
"81 294 OFFCURVE",
"107 303 OFFCURVE",
"139 303 CURVE SMOOTH",
"172 303 OFFCURVE",
"195 288 OFFCURVE",
"195 268 CURVE SMOOTH",
"195 230 OFFCURVE",
"167 220 OFFCURVE",
"144 220 CURVE SMOOTH",
"103 220 LINE",
"103 163 LINE",
"142 163 LINE SMOOTH",
"178 163 OFFCURVE",
"214 149 OFFCURVE",
"214 113 CURVE SMOOTH",
"214 71 OFFCURVE",
"179 57 OFFCURVE",
"144 57 CURVE SMOOTH",
"106 57 OFFCURVE",
"75 69 OFFCURVE",
"53 81 CURVE",
"53 19 LINE",
"78 7 OFFCURVE",
"110 -3 OFFCURVE",
"149 -3 CURVE SMOOTH"
);
}
);
width = 323;
},
{
layerId = "ECACF70C-BE42-4FA5-B3A0-AFDA71FB1D31";
paths = (
{
closed = 1;
nodes = (
"210 -5 OFFCURVE",
"304 14 OFFCURVE",
"304 100 CURVE SMOOTH",
"304 146 OFFCURVE",
"275 182 OFFCURVE",
"233 194 CURVE",
"260 199 OFFCURVE",
"289 229 OFFCURVE",
"289 264 CURVE SMOOTH",
"289 342 OFFCURVE",
"201 363 OFFCURVE",
"145 363 CURVE SMOOTH",
"110 363 OFFCURVE",
"75 352 OFFCURVE",
"47 337 CURVE",
"47 259 LINE",
"69 270 OFFCURVE",
"93 278 OFFCURVE",
"115 278 CURVE SMOOTH",
"137 278 OFFCURVE",
"162 269 OFFCURVE",
"162 251 CURVE SMOOTH",
"162 236 OFFCURVE",
"152 221 OFFCURVE",
"125 221 CURVE SMOOTH",
"85 221 LINE",
"85 155 LINE",
"124 155 LINE SMOOTH",
"168 155 OFFCURVE",
"178 133 OFFCURVE",
"178 115 CURVE SMOOTH",
"178 94 OFFCURVE",
"157 78 OFFCURVE",
"125 78 CURVE SMOOTH",
"95 78 OFFCURVE",
"76 92 OFFCURVE",
"40 114 CURVE",
"40 25 LINE",
"73 9 OFFCURVE",
"110 -5 OFFCURVE",
"149 -5 CURVE SMOOTH"
);
}
);
width = 335;
}
);
},
{
glyphname = four.dnom;
lastChange = "2016-08-31 20:55:17 +0000";
layers = (
{
layerId = UUID0;
paths = (
{
closed = 1;
nodes = (
"242 1 LINE",
"242 89 LINE",
"293 89 LINE",
"293 145 LINE",
"242 145 LINE",
"242 360 LINE",
"199 360 LINE",
"29 150 LINE",
"29 89 LINE",
"173 89 LINE",
"173 1 LINE"
);
},
{
closed = 1;
nodes = (
"223 304 LINE",
"173 291 LINE",
"173 145 LINE",
"92 145 LINE"
);
}
);
width = 328;
},
{
layerId = "ECACF70C-BE42-4FA5-B3A0-AFDA71FB1D31";
paths = (
{
closed = 1;
nodes = (
"290 0 LINE",
"290 81 LINE",
"333 81 LINE",
"333 170 LINE",
"290 170 LINE",
"290 359 LINE",
"181 359 LINE",
"24 162 LINE",
"24 81 LINE",
"180 81 LINE",
"180 0 LINE"
);
},
{
closed = 1;
nodes = (
"197 268 LINE",
"180 268 LINE",
"180 170 LINE",
"122 170 LINE"
);
}
);
width = 343;
}
);
},
{
glyphname = five.dnom;
lastChange = "2016-08-31 20:56:04 +0000";
layers = (
{
layerId = UUID0;
paths = (
{
closed = 1;
nodes = (
"218 -3 OFFCURVE",
"280 17 OFFCURVE",
"280 111 CURVE SMOOTH",
"280 205 OFFCURVE",
"218 224 OFFCURVE",
"180 224 CURVE SMOOTH",
"152 224 OFFCURVE",
"134 220 OFFCURVE",
"116 215 CURVE",
"126 301 LINE",
"257 301 LINE",
"257 360 LINE",
"73 360 LINE",
"55 194 LINE",
"79 149 LINE",
"79 149 OFFCURVE",
"106 166 OFFCURVE",
"141 166 CURVE SMOOTH",
"171 166 OFFCURVE",
"212 158 OFFCURVE",
"212 103 CURVE SMOOTH",
"212 67 OFFCURVE",
"187 54 OFFCURVE",
"148 54 CURVE SMOOTH",
"111 54 OFFCURVE",
"78 70 OFFCURVE",
"63 79 CURVE",
"63 19 LINE",
"85 7 OFFCURVE",
"118 -3 OFFCURVE",
"166 -3 CURVE SMOOTH"
);
}
);
width = 319;
},
{
layerId = "ECACF70C-BE42-4FA5-B3A0-AFDA71FB1D31";
paths = (
{
closed = 1;
nodes = (
"252 -14 OFFCURVE",
"311 20 OFFCURVE",
"311 113 CURVE SMOOTH",
"311 197 OFFCURVE",
"247 227 OFFCURVE",
"191 227 CURVE SMOOTH",
"160 227 OFFCURVE",
"152 227 OFFCURVE",
"144 226 CURVE",
"146 257 LINE",
"288 257 LINE",
"288 350 LINE",
"66 350 LINE",
"46 176 LINE",
"97 141 LINE",
"110 148 OFFCURVE",
"125 155 OFFCURVE",
"142 155 CURVE SMOOTH",
"166 155 OFFCURVE",
"185 141 OFFCURVE",
"185 118 CURVE SMOOTH",
"185 92 OFFCURVE",
"172 78 OFFCURVE",
"138 78 CURVE SMOOTH",
"112 78 OFFCURVE",
"82 86 OFFCURVE",
"54 104 CURVE",
"54 10 LINE",
"86 -5 OFFCURVE",
"125 -14 OFFCURVE",
"171 -14 CURVE SMOOTH"
);
}
);
width = 326;
}
);
},
{
glyphname = six.dnom;
lastChange = "2016-08-31 20:56:55 +0000";
layers = (
{
layerId = UUID0;
paths = (
{
closed = 1;
nodes = (
"268 -3 OFFCURVE",
"300 62 OFFCURVE",
"300 118 CURVE SMOOTH",
"300 187 OFFCURVE",
"253 230 OFFCURVE",
"178 230 CURVE SMOOTH",
"137 230 OFFCURVE",
"110 216 OFFCURVE",
"97 207 CURVE",
"110 300 OFFCURVE",
"193 308 OFFCURVE",
"224 308 CURVE SMOOTH",
"242 308 OFFCURVE",
"258 305 OFFCURVE",
"272 301 CURVE",
"272 358 LINE",
"257 361 OFFCURVE",
"239 364 OFFCURVE",
"220 364 CURVE SMOOTH",
"140 364 OFFCURVE",
"26 345 OFFCURVE",
"26 165 CURVE SMOOTH",
"26 54 OFFCURVE",
"67 -3 OFFCURVE",
"178 -3 CURVE SMOOTH"
);
},
{
closed = 1;
nodes = (
"143 53 OFFCURVE",
"96 63 OFFCURVE",
"95 144 CURVE",
"104 153 OFFCURVE",
"130 174 OFFCURVE",
"165 174 CURVE SMOOTH",
"202 174 OFFCURVE",
"231 147 OFFCURVE",
"231 118 CURVE SMOOTH",
"231 78 OFFCURVE",
"215 53 OFFCURVE",
"168 53 CURVE SMOOTH"
);
}
);
width = 338;
},
{
layerId = "ECACF70C-BE42-4FA5-B3A0-AFDA71FB1D31";
paths = (
{
closed = 1;
nodes = (
"277 -5 OFFCURVE",
"326 45 OFFCURVE",
"326 126 CURVE SMOOTH",
"326 202 OFFCURVE",
"276 236 OFFCURVE",
"227 236 CURVE SMOOTH",
"168 236 OFFCURVE",
"150 219 OFFCURVE",
"138 203 CURVE",
"138 264 OFFCURVE",
"188 284 OFFCURVE",
"222 284 CURVE SMOOTH",
"235 284 OFFCURVE",
"255 282 OFFCURVE",
"287 272 CURVE",
"287 350 LINE",
"271 358 OFFCURVE",
"241 363 OFFCURVE",
"214 363 CURVE SMOOTH",
"128 363 OFFCURVE",
"12 344 OFFCURVE",
"12 165 CURVE SMOOTH",
"12 53 OFFCURVE",
"57 -5 OFFCURVE",
"180 -5 CURVE SMOOTH"
);
},
{
closed = 1;
nodes = (
"149 65 OFFCURVE",
"139 98 OFFCURVE",
"139 134 CURVE",
"145 151 OFFCURVE",
"160 168 OFFCURVE",
"174 168 CURVE SMOOTH",
"186 168 OFFCURVE",
"199 157 OFFCURVE",
"199 116 CURVE SMOOTH",
"199 91 OFFCURVE",
"186 65 OFFCURVE",
"170 65 CURVE SMOOTH"
);
}
);
width = 347;
}
);
leftKerningGroup = six.denominator;
},
{
glyphname = seven.dnom;
lastChange = "2016-08-31 21:00:37 +0000";
layers = (
{
layerId = UUID0;
paths = (
{
closed = 1;
nodes = (
"139 1 LINE",
"284 323 LINE",
"284 360 LINE",
"40 360 LINE",
"40 301 LINE",
"264 301 LINE",
"234 354 LINE",
"76 1 LINE"
);
}
);
width = 315;
},
{
layerId = "ECACF70C-BE42-4FA5-B3A0-AFDA71FB1D31";
paths = (
{
closed = 1;
nodes = (
"188 0 LINE",
"307 301 LINE",
"307 359 LINE",
"35 359 LINE",
"35 247 LINE",
"243 247 LINE",
"191 314 LINE",
"51 0 LINE"
);
}
);
width = 322;
}
);
},
{
glyphname = eight.dnom;
lastChange = "2016-08-31 21:02:48 +0000";
layers = (
{
layerId = UUID0;
paths = (
{
closed = 1;
nodes = (
"258 -3 OFFCURVE",
"291 57 OFFCURVE",
"291 108 CURVE SMOOTH",
"291 173 OFFCURVE",
"231 195 OFFCURVE",
"231 195 CURVE SMOOTH",
"231 195 OFFCURVE",
"277 214 OFFCURVE",
"277 272 CURVE SMOOTH",
"277 316 OFFCURVE",
"248 364 OFFCURVE",
"167 364 CURVE SMOOTH",
"85 364 OFFCURVE",
"56 316 OFFCURVE",
"56 272 CURVE SMOOTH",
"56 215 OFFCURVE",
"104 195 OFFCURVE",
"104 195 CURVE SMOOTH",
"104 195 OFFCURVE",
"43 174 OFFCURVE",
"43 108 CURVE SMOOTH",
"43 57 OFFCURVE",
"75 -3 OFFCURVE",
"167 -3 CURVE SMOOTH"
);
},
{
closed = 1;
nodes = (
"134 54 OFFCURVE",
"112 80 OFFCURVE",
"112 108 CURVE SMOOTH",
"112 150 OFFCURVE",
"138 169 OFFCURVE",
"167 169 CURVE SMOOTH",
"195 169 OFFCURVE",
"222 150 OFFCURVE",
"222 108 CURVE SMOOTH",
"222 80 OFFCURVE",
"209 54 OFFCURVE",
"167 54 CURVE SMOOTH"
);
},
{
closed = 1;
nodes = (
"137 220 OFFCURVE",
"126 243 OFFCURVE",
"126 263 CURVE SMOOTH",
"126 297 OFFCURVE",
"149 306 OFFCURVE",
"167 306 CURVE SMOOTH",
"190 306 OFFCURVE",
"209 297 OFFCURVE",
"209 264 CURVE SMOOTH",
"209 243 OFFCURVE",
"196 220 OFFCURVE",
"167 220 CURVE SMOOTH"
);
}
);
width = 332;
},
{
layerId = "ECACF70C-BE42-4FA5-B3A0-AFDA71FB1D31";
paths = (
{
closed = 1;
nodes = (
"285 -5 OFFCURVE",
"336 31 OFFCURVE",
"336 104 CURVE SMOOTH",
"336 148 OFFCURVE",
"302 182 OFFCURVE",
"264 192 CURVE",
"292 200 OFFCURVE",
"321 226 OFFCURVE",
"321 264 CURVE SMOOTH",
"321 331 OFFCURVE",
"277 363 OFFCURVE",
"171 363 CURVE SMOOTH",
"65 363 OFFCURVE",
"20 331 OFFCURVE",
"20 264 CURVE SMOOTH",
"20 226 OFFCURVE",
"50 200 OFFCURVE",
"78 192 CURVE",
"40 182 OFFCURVE",
"6 148 OFFCURVE",
"6 104 CURVE SMOOTH",
"6 31 OFFCURVE",
"57 -5 OFFCURVE",
"171 -5 CURVE SMOOTH"
);
},
{
closed = 1;
nodes = (
"142 71 OFFCURVE",
"129 91 OFFCURVE",
"129 115 CURVE SMOOTH",
"129 130 OFFCURVE",
"142 151 OFFCURVE",
"171 151 CURVE SMOOTH",
"200 151 OFFCURVE",
"212 130 OFFCURVE",
"212 115 CURVE SMOOTH",
"212 91 OFFCURVE",
"200 71 OFFCURVE",
"171 71 CURVE SMOOTH"
);
},
{
closed = 1;
nodes = (
"154 217 OFFCURVE",
"136 226 OFFCURVE",
"136 251 CURVE SMOOTH",
"136 269 OFFCURVE",
"146 287 OFFCURVE",
"171 287 CURVE SMOOTH",
"197 287 OFFCURVE",
"207 269 OFFCURVE",
"207 251 CURVE SMOOTH",
"207 226 OFFCURVE",
"190 217 OFFCURVE",
"171 217 CURVE SMOOTH"
);
}
);
width = 343;
}
);
rightKerningGroup = nine.denominator;
},
{
glyphname = nine.dnom;
lastChange = "2016-08-31 21:03:29 +0000";
layers = (
{
layerId = UUID0;
paths = (
{
closed = 1;
nodes = (
"189 -3 OFFCURVE",
"303 16 OFFCURVE",
"303 196 CURVE SMOOTH",
"303 308 OFFCURVE",
"262 364 OFFCURVE",
"151 364 CURVE SMOOTH",
"61 364 OFFCURVE",
"29 299 OFFCURVE",
"29 243 CURVE SMOOTH",
"29 174 OFFCURVE",
"76 131 OFFCURVE",
"151 131 CURVE SMOOTH",
"192 131 OFFCURVE",
"219 145 OFFCURVE",
"232 154 CURVE",
"220 61 OFFCURVE",
"136 53 OFFCURVE",
"105 53 CURVE SMOOTH",
"87 53 OFFCURVE",
"71 56 OFFCURVE",
"57 60 CURVE",
"57 4 LINE",
"72 0 OFFCURVE",
"90 -3 OFFCURVE",
"110 -3 CURVE SMOOTH"
);
},
{
closed = 1;
nodes = (
"127 187 OFFCURVE",
"98 214 OFFCURVE",
"98 243 CURVE SMOOTH",
"98 263 OFFCURVE",
"104 308 OFFCURVE",
"151 308 CURVE SMOOTH",
"192 308 OFFCURVE",
"234 299 OFFCURVE",
"234 217 CURVE",
"225 208 OFFCURVE",
"199 187 OFFCURVE",
"151 187 CURVE SMOOTH"
);
}
);
width = 338;
},
{
layerId = "ECACF70C-BE42-4FA5-B3A0-AFDA71FB1D31";
paths = (
{
closed = 1;
nodes = (
"210 -14 OFFCURVE",
"326 5 OFFCURVE",
"326 184 CURVE SMOOTH",
"326 296 OFFCURVE",
"281 354 OFFCURVE",
"158 354 CURVE SMOOTH",
"61 354 OFFCURVE",
"12 304 OFFCURVE",
"12 223 CURVE SMOOTH",
"12 147 OFFCURVE",
"62 113 OFFCURVE",
"111 113 CURVE SMOOTH",
"170 113 OFFCURVE",
"188 130 OFFCURVE",
"200 146 CURVE",
"200 85 OFFCURVE",
"150 65 OFFCURVE",
"116 65 CURVE SMOOTH",
"103 65 OFFCURVE",
"83 67 OFFCURVE",
"51 77 CURVE",
"51 -1 LINE",
"67 -9 OFFCURVE",
"97 -14 OFFCURVE",
"124 -14 CURVE SMOOTH"
);
},
{
closed = 1;
nodes = (
"152 181 OFFCURVE",
"139 192 OFFCURVE",
"139 233 CURVE SMOOTH",
"139 258 OFFCURVE",
"152 284 OFFCURVE",
"168 284 CURVE SMOOTH",
"189 284 OFFCURVE",
"199 251 OFFCURVE",
"199 215 CURVE",
"193 198 OFFCURVE",
"178 181 OFFCURVE",
"164 181 CURVE SMOOTH"
);
}
);
width = 349;
}
);
rightKerningGroup = nine.denominator;
},
{
glyphname = zero.numr;
lastChange = "2017-07-04 14:13:09 +0000";
layers = (
{
background = {
paths = (
{
closed = 1;
nodes = (
"281 309 OFFCURVE",
"329 371 OFFCURVE",
"329 493 CURVE SMOOTH",
"329 615 OFFCURVE",
"281 677 OFFCURVE",
"188 677 CURVE SMOOTH",
"94 677 OFFCURVE",
"46 615 OFFCURVE",
"46 493 CURVE SMOOTH",
"46 371 OFFCURVE",
"94 309 OFFCURVE",
"188 309 CURVE SMOOTH"
);
},
{
closed = 1;
nodes = (
"140 345 OFFCURVE",
"85 362 OFFCURVE",
"85 493 CURVE SMOOTH",
"85 624 OFFCURVE",
"140 641 OFFCURVE",
"188 641 CURVE SMOOTH",
"235 641 OFFCURVE",
"290 624 OFFCURVE",
"290 493 CURVE SMOOTH",
"290 362 OFFCURVE",
"235 345 OFFCURVE",
"188 345 CURVE SMOOTH"
);
}
);
};
components = (
{
name = zero.dnom;
transform = "{1, 0, 0, 1, 0, 314}";
}
);
layerId = UUID0;
width = 379;
},
{
background = {
paths = (
{
closed = 1;
nodes = (
"284 310 OFFCURVE",
"332 372 OFFCURVE",
"332 494 CURVE SMOOTH",
"332 615 OFFCURVE",
"284 678 OFFCURVE",
"187 678 CURVE SMOOTH",
"91 678 OFFCURVE",
"42 615 OFFCURVE",
"42 494 CURVE SMOOTH",
"42 372 OFFCURVE",
"91 310 OFFCURVE",
"187 310 CURVE SMOOTH"
);
},
{
closed = 1;
nodes = (
"163 390 OFFCURVE",
"135 405 OFFCURVE",
"135 494 CURVE SMOOTH",
"135 583 OFFCURVE",
"163 599 OFFCURVE",
"187 599 CURVE SMOOTH",
"213 599 OFFCURVE",
"241 583 OFFCURVE",
"241 494 CURVE SMOOTH",
"241 405 OFFCURVE",
"213 390 OFFCURVE",
"187 390 CURVE SMOOTH"
);
}
);
};
components = (
{
name = zero.dnom;
transform = "{1, 0, 0, 1, 0, 326}";
}
);
layerId = "ECACF70C-BE42-4FA5-B3A0-AFDA71FB1D31";
width = 380;
}
);
leftKerningGroup = six.numerator;
rightKerningGroup = nine.numerator;
},
{
glyphname = one.numr;
lastChange = "2016-08-31 15:20:56 +0000";
layers = (
{
background = {
paths = (
{
closed = 1;
nodes = (
"163 315 LINE",
"163 674 LINE",
"119 674 LINE",
"53 632 LINE",
"53 586 LINE",
"125 633 LINE",
"125 315 LINE"
);
}
);
};
components = (
{
name = one.dnom;
transform = "{1, 0, 0, 1, 0, 314}";
}
);
layerId = UUID0;
width = 234;
},
{
background = {
paths = (
{
closed = 1;
nodes = (
"196 315 LINE",
"196 674 LINE",
"120 674 LINE",
"45 627 LINE",
"45 536 LINE",
"103 571 LINE",
"103 315 LINE"
);
}
);
};
components = (
{
name = one.dnom;
transform = "{1, 0, 0, 1, 0, 312}";
}
);
layerId = "ECACF70C-BE42-4FA5-B3A0-AFDA71FB1D31";
width = 250;
}
);
leftKerningGroup = one.numerator;
rightKerningGroup = one.numerator;
},
{
glyphname = two.numr;
lastChange = "2016-08-31 15:21:01 +0000";
layers = (
{
background = {
paths = (
{
closed = 1;
nodes = (
"279 315 LINE",
"279 354 LINE",
"117 354 LINE",
"182 407 OFFCURVE",
"274 496 OFFCURVE",
"274 578 CURVE SMOOTH",
"274 626 OFFCURVE",
"242 678 OFFCURVE",
"154 678 CURVE SMOOTH",
"113 678 OFFCURVE",
"80 665 OFFCURVE",
"57 651 CURVE",
"57 609 LINE",
"75 622 OFFCURVE",
"108 639 OFFCURVE",
"151 639 CURVE SMOOTH",
"220 639 OFFCURVE",
"235 606 OFFCURVE",
"235 578 CURVE SMOOTH",
"235 499 OFFCURVE",
"114 394 OFFCURVE",
"53 349 CURVE",
"53 315 LINE"
);
}
);
};
components = (
{
name = two.dnom;
transform = "{1, 0, 0, 1, 0, 314}";
}
);
layerId = UUID0;
width = 328;
},
{
background = {
paths = (
{
closed = 1;
nodes = (
"295 315 LINE",
"295 398 LINE",
"190 398 LINE",
"234 437 OFFCURVE",
"293 503 OFFCURVE",
"293 564 CURVE SMOOTH",
"293 620 OFFCURVE",
"259 679 OFFCURVE",
"163 679 CURVE SMOOTH",
"121 679 OFFCURVE",
"82 662 OFFCURVE",
"51 643 CURVE",
"51 549 LINE",
"86 577 OFFCURVE",
"125 593 OFFCURVE",
"154 593 CURVE SMOOTH",
"186 593 OFFCURVE",
"201 578 OFFCURVE",
"201 557 CURVE SMOOTH",
"201 504 OFFCURVE",
"100 426 OFFCURVE",
"49 388 CURVE",
"49 315 LINE"
);
}
);
};
components = (
{
name = two.dnom;
transform = "{1, 0, 0, 1, 0, 326}";
}
);
layerId = "ECACF70C-BE42-4FA5-B3A0-AFDA71FB1D31";
width = 339;
}
);
},
{
glyphname = three.numr;
lastChange = "2016-08-31 15:21:09 +0000";
layers = (
{
background = {
paths = (
{
closed = 1;
nodes = (
"246 311 OFFCURVE",
"281 366 OFFCURVE",
"281 417 CURVE SMOOTH",
"281 483 OFFCURVE",
"217 509 OFFCURVE",
"217 509 CURVE SMOOTH",
"217 509 OFFCURVE",
"263 528 OFFCURVE",
"263 582 CURVE SMOOTH",
"263 628 OFFCURVE",
"232 678 OFFCURVE",
"144 678 CURVE SMOOTH",
"111 678 OFFCURVE",
"84 670 OFFCURVE",
"62 660 CURVE",
"62 621 LINE",
"81 631 OFFCURVE",
"107 639 OFFCURVE",
"139 639 CURVE SMOOTH",
"194 639 OFFCURVE",
"224 619 OFFCURVE",
"224 582 CURVE SMOOTH",
"224 544 OFFCURVE",
"196 524 OFFCURVE",
"144 524 CURVE SMOOTH",
"103 524 LINE",
"103 487 LINE",
"142 487 LINE SMOOTH",
"207 487 OFFCURVE",
"243 463 OFFCURVE",
"243 418 CURVE SMOOTH",
"243 374 OFFCURVE",
"208 349 OFFCURVE",
"144 349 CURVE SMOOTH",
"106 349 OFFCURVE",
"75 361 OFFCURVE",
"53 373 CURVE",
"53 333 LINE",
"78 321 OFFCURVE",
"110 311 OFFCURVE",
"149 311 CURVE SMOOTH"
);
}
);
};
components = (
{
name = three.dnom;
transform = "{1, 0, 0, 1, 0, 314}";
}
);
layerId = UUID0;
width = 323;
},
{
components = (
{
name = three.dnom;
transform = "{1, 0, 0, 1, 0, 326}";
}
);
layerId = "ECACF70C-BE42-4FA5-B3A0-AFDA71FB1D31";
width = 335;
}
);
rightKerningGroup = one.numerator;
},
{
glyphname = four.numr;
lastChange = "2016-08-31 15:21:16 +0000";
layers = (
{
background = {
paths = (
{
closed = 1;
nodes = (
"242 315 LINE",
"242 423 LINE",
"293 423 LINE",
"293 459 LINE",
"242 459 LINE",
"242 674 LINE",
"199 674 LINE",
"29 464 LINE",
"29 423 LINE",
"203 423 LINE",
"203 315 LINE"
);
},
{
closed = 1;
nodes = (
"203 618 LINE",
"203 459 LINE",
"72 459 LINE"
);
}
);
};
components = (
{
name = four.dnom;
transform = "{1, 0, 0, 1, 0, 314}";
}
);
layerId = UUID0;
width = 328;
},
{
components = (
{
name = four.dnom;
transform = "{1, 0, 0, 1, 0, 312}";
}
);
layerId = "ECACF70C-BE42-4FA5-B3A0-AFDA71FB1D31";
width = 343;
}
);
},
{
glyphname = five.numr;
lastChange = "2016-08-31 15:21:23 +0000";
layers = (
{
background = {
paths = (
{
closed = 1;
nodes = (
"218 311 OFFCURVE",
"280 331 OFFCURVE",
"280 425 CURVE SMOOTH",
"280 519 OFFCURVE",
"218 538 OFFCURVE",
"166 538 CURVE SMOOTH",
"137 538 OFFCURVE",
"114 534 OFFCURVE",
"96 529 CURVE",
"106 635 LINE",
"257 635 LINE",
"257 674 LINE",
"73 674 LINE",
"55 508 LINE",
"79 483 LINE",
"79 483 OFFCURVE",
"106 500 OFFCURVE",
"163 500 CURVE SMOOTH",
"201 500 OFFCURVE",
"242 492 OFFCURVE",
"242 425 CURVE SMOOTH",
"242 392 OFFCURVE",
"237 348 OFFCURVE",
"163 348 CURVE SMOOTH",
"111 348 OFFCURVE",
"78 364 OFFCURVE",
"63 373 CURVE",
"63 333 LINE",
"85 321 OFFCURVE",
"118 311 OFFCURVE",
"166 311 CURVE SMOOTH"
);
}
);
};
components = (
{
name = five.dnom;
transform = "{1, 0, 0, 1, 0, 314}";
}
);
layerId = UUID0;
width = 319;
},
{
components = (
{
name = five.dnom;
transform = "{1, 0, 0, 1, 0, 312}";
}
);
layerId = "ECACF70C-BE42-4FA5-B3A0-AFDA71FB1D31";
width = 326;
}
);
rightKerningGroup = one.numerator;
},
{
glyphname = six.numr;
lastChange = "2016-08-31 15:21:29 +0000";
layers = (
{
background = {
paths = (
{
closed = 1;
nodes = (
"268 311 OFFCURVE",
"300 376 OFFCURVE",
"300 432 CURVE SMOOTH",
"300 501 OFFCURVE",
"253 544 OFFCURVE",
"178 544 CURVE SMOOTH",
"137 544 OFFCURVE",
"110 530 OFFCURVE",
"97 521 CURVE",
"110 634 OFFCURVE",
"193 642 OFFCURVE",
"224 642 CURVE SMOOTH",
"242 642 OFFCURVE",
"258 639 OFFCURVE",
"272 635 CURVE",
"272 671 LINE",
"257 675 OFFCURVE",
"239 678 OFFCURVE",
"220 678 CURVE SMOOTH",
"170 678 OFFCURVE",
"56 659 OFFCURVE",
"56 479 CURVE SMOOTH",
"56 367 OFFCURVE",
"97 311 OFFCURVE",
"178 311 CURVE SMOOTH"
);
},
{
closed = 1;
nodes = (
"153 347 OFFCURVE",
"96 347 OFFCURVE",
"95 478 CURVE",
"104 487 OFFCURVE",
"130 508 OFFCURVE",
"178 508 CURVE SMOOTH",
"232 508 OFFCURVE",
"261 481 OFFCURVE",
"261 432 CURVE SMOOTH",
"261 412 OFFCURVE",
"255 347 OFFCURVE",
"178 347 CURVE SMOOTH"
);
}
);
};
components = (
{
name = six.dnom;
transform = "{1, 0, 0, 1, 0, 314}";
}
);
layerId = UUID0;
width = 338;
},
{
components = (
{
name = six.dnom;
transform = "{1, 0, 0, 1, 0, 326}";
}
);
layerId = "ECACF70C-BE42-4FA5-B3A0-AFDA71FB1D31";
width = 347;
}
);
leftKerningGroup = six.numerator;
rightKerningGroup = one.numerator;
},
{
glyphname = seven.numr;
lastChange = "2016-08-31 15:21:39 +0000";
layers = (
{
background = {
paths = (
{
closed = 1;
nodes = (
"129 315 LINE",
"284 637 LINE",
"284 674 LINE",
"40 674 LINE",
"40 635 LINE",
"242 635 LINE",
"86 315 LINE"
);
}
);
};
components = (
{
name = seven.dnom;
transform = "{1, 0, 0, 1, 0, 314}";
}
);
layerId = UUID0;
width = 315;
},
{
components = (
{
name = seven.dnom;
transform = "{1, 0, 0, 1, 0, 312}";
}
);
layerId = "ECACF70C-BE42-4FA5-B3A0-AFDA71FB1D31";
width = 322;
}
);
},
{
glyphname = eight.numr;
lastChange = "2016-08-31 15:21:45 +0000";
layers = (
{
background = {
paths = (
{
closed = 1;
nodes = (
"258 311 OFFCURVE",
"291 371 OFFCURVE",
"291 422 CURVE SMOOTH",
"291 487 OFFCURVE",
"231 509 OFFCURVE",
"231 509 CURVE SMOOTH",
"231 509 OFFCURVE",
"277 528 OFFCURVE",
"277 586 CURVE SMOOTH",
"277 630 OFFCURVE",
"248 678 OFFCURVE",
"167 678 CURVE SMOOTH",
"85 678 OFFCURVE",
"56 630 OFFCURVE",
"56 586 CURVE SMOOTH",
"56 529 OFFCURVE",
"104 509 OFFCURVE",
"104 509 CURVE SMOOTH",
"104 509 OFFCURVE",
"43 488 OFFCURVE",
"43 422 CURVE SMOOTH",
"43 371 OFFCURVE",
"75 311 OFFCURVE",
"167 311 CURVE SMOOTH"
);
},
{
closed = 1;
nodes = (
"88 347 OFFCURVE",
"81 404 OFFCURVE",
"81 422 CURVE SMOOTH",
"81 464 OFFCURVE",
"112 488 OFFCURVE",
"167 488 CURVE SMOOTH",
"222 488 OFFCURVE",
"252 464 OFFCURVE",
"252 422 CURVE SMOOTH",
"252 404 OFFCURVE",
"246 347 OFFCURVE",
"167 347 CURVE SMOOTH"
);
},
{
closed = 1;
nodes = (
"122 524 OFFCURVE",
"95 547 OFFCURVE",
"95 585 CURVE SMOOTH",
"95 631 OFFCURVE",
"134 640 OFFCURVE",
"167 640 CURVE SMOOTH",
"200 640 OFFCURVE",
"239 631 OFFCURVE",
"239 585 CURVE SMOOTH",
"239 547 OFFCURVE",
"212 524 OFFCURVE",
"167 524 CURVE SMOOTH"
);
}
);
};
components = (
{
name = eight.dnom;
transform = "{1, 0, 0, 1, 0, 314}";
}
);
layerId = UUID0;
width = 332;
},
{
components = (
{
name = eight.dnom;
transform = "{1, 0, 0, 1, 0, 326}";
}
);
layerId = "ECACF70C-BE42-4FA5-B3A0-AFDA71FB1D31";
width = 343;
}
);
leftKerningGroup = one.numerator;
rightKerningGroup = one.numerator;
},
